<svg width="20" height="20" viewBox="0 0 20 20" fill="none" xmlns="http://www.w3.org/2000/svg">
<path d="M16.6663 8.33268C16.6663 12.4935 12.0505 16.8268 10.5005 18.1652C10.3561 18.2738 10.1803 18.3325 9.99967 18.3325C9.81901 18.3325 9.64324 18.2738 9.49884 18.1652C7.94884 16.8268 3.33301 12.4935 3.33301 8.33268C3.33301 6.56457 4.03539 4.86888 5.28563 3.61864C6.53587 2.36839 8.23156 1.66602 9.99967 1.66602C11.7678 1.66602 13.4635 2.36839 14.7137 3.61864C15.964 4.86888 16.6663 6.56457 16.6663 8.33268Z" stroke="#EB0A1E" stroke-width="1.66667" stroke-linecap="round" stroke-linejoin="round"/>
<path d="M10 10.834C11.3807 10.834 12.5 9.7147 12.5 8.33398C12.5 6.95327 11.3807 5.83398 10 5.83398C8.61929 5.83398 7.5 6.95327 7.5 8.33398C7.5 9.7147 8.61929 10.834 10 10.834Z" stroke="#EB0A1E" stroke-width="1.66667" stroke-linecap="round" stroke-linejoin="round"/>
</svg>
