<svg width="16" height="16" viewBox="0 0 16 16" fill="none" xmlns="http://www.w3.org/2000/svg">
<g clip-path="url(#clip0_2915_4638)">
<path d="M11.3319 1.33398H4.66598C2.82523 1.33398 1.33301 2.82621 1.33301 4.66696V11.3329C1.33301 13.1736 2.82523 14.6659 4.66598 14.6659H11.3319C13.1727 14.6659 14.6649 13.1736 14.6649 11.3329V4.66696C14.6649 2.82621 13.1727 1.33398 11.3319 1.33398Z" stroke="white" stroke-width="1.33319" stroke-linecap="round" stroke-linejoin="round"/>
<path d="M10.6662 7.57995C10.7485 8.13472 10.6537 8.70131 10.3954 9.19912C10.1371 9.69693 9.72842 10.1006 9.22746 10.3528C8.7265 10.6049 8.15879 10.6927 7.60508 10.6036C7.05136 10.5145 6.53984 10.2531 6.14327 9.85648C5.7467 9.45991 5.48527 8.94839 5.39617 8.39467C5.30707 7.84096 5.39484 7.27325 5.64698 6.77229C5.89913 6.27133 6.30282 5.86263 6.80063 5.60433C7.29844 5.34602 7.86503 5.25127 8.4198 5.33353C8.98569 5.41745 9.50958 5.68114 9.9141 6.08565C10.3186 6.49017 10.5823 7.01407 10.6662 7.57995Z" stroke="white" stroke-width="1.33319" stroke-linecap="round" stroke-linejoin="round"/>
<path d="M11.665 4.33203H11.6717" stroke="white" stroke-width="1.33319" stroke-linecap="round" stroke-linejoin="round"/>
</g>
<defs>
<clipPath id="clip0_2915_4638">
<rect width="15.9983" height="15.9983" fill="white"/>
</clipPath>
</defs>
</svg>
