<svg width="16" height="16" viewBox="0 0 16 16" fill="none" xmlns="http://www.w3.org/2000/svg">
<g clip-path="url(#clip0_2915_4643)">
<path d="M1.66663 11.3325C1.20097 9.13488 1.20097 6.8641 1.66663 4.66652C1.72782 4.44335 1.84604 4.23995 2.00967 4.07632C2.1733 3.91269 2.3767 3.79447 2.59987 3.73328C6.17511 3.14099 9.82345 3.14099 13.3987 3.73328C13.6219 3.79447 13.8253 3.91269 13.9889 4.07632C14.1525 4.23995 14.2707 4.44335 14.3319 4.66652C14.7976 6.8641 14.7976 9.13488 14.3319 11.3325C14.2707 11.5556 14.1525 11.759 13.9889 11.9227C13.8253 12.0863 13.6219 12.2045 13.3987 12.2657C9.82346 12.8581 6.1751 12.8581 2.59987 12.2657C2.3767 12.2045 2.1733 12.0863 2.00967 11.9227C1.84604 11.759 1.72782 11.5556 1.66663 11.3325Z" stroke="white" stroke-width="1.33319" stroke-linecap="round" stroke-linejoin="round"/>
<path d="M6.66602 9.99957L9.99899 7.99978L6.66602 6V9.99957Z" stroke="white" stroke-width="1.33319" stroke-linecap="round" stroke-linejoin="round"/>
</g>
<defs>
<clipPath id="clip0_2915_4643">
<rect width="15.9983" height="15.9983" fill="white"/>
</clipPath>
</defs>
</svg>
