<svg width="205" height="36" viewBox="0 0 205 36" fill="none" xmlns="http://www.w3.org/2000/svg">
<g clip-path="url(#clip0_2847_17869)">
<path d="M21.9997 11.3345H19.9998C19.1158 11.3345 18.268 11.6857 17.643 12.3108C17.0179 12.9359 16.6667 13.7837 16.6667 14.6677V16.6675H14.6668V19.334H16.6667V24.667H19.3332V19.334H21.3331L21.9997 16.6675H19.3332V14.6677C19.3332 14.4909 19.4034 14.3213 19.5285 14.1963C19.6535 14.0713 19.823 14.001 19.9998 14.001H21.9997V11.3345Z" stroke="#F5F5F5" stroke-width="1.33319" stroke-linecap="round" stroke-linejoin="round"/>
</g>
<g clip-path="url(#clip1_2847_17869)">
<path d="M72.6633 12.6679C72.6633 12.6679 72.1966 14.0678 71.33 14.9345C72.3966 21.6007 65.0637 26.4671 59.3307 22.6673C60.7973 22.734 62.2639 22.2673 63.3305 21.3341C59.9974 20.3341 58.3308 16.401 59.9974 13.3346C61.4639 15.0678 63.7305 16.0677 65.997 16.0011C65.397 13.2012 68.6635 11.6013 70.6634 13.4679C71.3967 13.4679 72.6633 12.6679 72.6633 12.6679Z" stroke="#F5F5F5" stroke-width="1.33319" stroke-linecap="round" stroke-linejoin="round"/>
</g>
<g clip-path="url(#clip2_2847_17869)">
<path d="M117.327 11.3345H110.661C108.82 11.3345 107.328 12.8268 107.328 14.6677V21.3339C107.328 23.1747 108.82 24.667 110.661 24.667H117.327C119.168 24.667 120.66 23.1747 120.66 21.3339V14.6677C120.66 12.8268 119.168 11.3345 117.327 11.3345Z" stroke="#F5F5F5" stroke-width="1.33319" stroke-linecap="round" stroke-linejoin="round"/>
<path d="M116.661 17.5808C116.744 18.1356 116.649 18.7022 116.391 19.2C116.132 19.6979 115.724 20.1016 115.223 20.3537C114.722 20.6059 114.154 20.6937 113.6 20.6046C113.046 20.5155 112.535 20.254 112.138 19.8574C111.742 19.4608 111.48 18.9493 111.391 18.3955C111.302 17.8418 111.39 17.2741 111.642 16.7731C111.894 16.2721 112.298 15.8634 112.796 15.6051C113.293 15.3468 113.86 15.252 114.415 15.3343C114.981 15.4182 115.505 15.6819 115.909 16.0864C116.314 16.491 116.577 17.0149 116.661 17.5808Z" stroke="#F5F5F5" stroke-width="1.33319" stroke-linecap="round" stroke-linejoin="round"/>
<path d="M117.66 14.3327H117.667" stroke="#F5F5F5" stroke-width="1.33319" stroke-linecap="round" stroke-linejoin="round"/>
</g>
<g clip-path="url(#clip3_2847_17869)">
<path d="M155.658 21.3335C155.193 19.1358 155.193 16.8649 155.658 14.6672C155.719 14.444 155.838 14.2406 156.001 14.077C156.165 13.9134 156.368 13.7951 156.592 13.7339C160.167 13.1416 163.815 13.1416 167.391 13.7339C167.614 13.7951 167.817 13.9134 167.981 14.077C168.145 14.2406 168.263 14.444 168.324 14.6672C168.79 16.8649 168.79 19.1358 168.324 21.3335C168.263 21.5567 168.145 21.7601 167.981 21.9237C167.817 22.0873 167.614 22.2056 167.391 22.2667C163.816 22.8592 160.167 22.8592 156.592 22.2667C156.368 22.2056 156.165 22.0873 156.001 21.9237C155.838 21.7601 155.719 21.5567 155.658 21.3335Z" stroke="#F5F5F5" stroke-width="1.33319" stroke-linecap="round" stroke-linejoin="round"/>
<path d="M160.658 20.0005L163.991 18.0006L160.658 16.0008V20.0005Z" stroke="#F5F5F5" stroke-width="1.33319" stroke-linecap="round" stroke-linejoin="round"/>
</g>
<defs>
<clipPath id="clip0_2847_17869">
<rect width="15.9983" height="15.9983" fill="white" transform="translate(10.0005 10.0005)"/>
</clipPath>
<clipPath id="clip1_2847_17869">
<rect width="15.9983" height="15.9983" fill="white" transform="translate(57.9976 10.0005)"/>
</clipPath>
<clipPath id="clip2_2847_17869">
<rect width="15.9983" height="15.9983" fill="white" transform="translate(105.995 10.0005)"/>
</clipPath>
<clipPath id="clip3_2847_17869">
<rect width="15.9983" height="15.9983" fill="white" transform="translate(153.992 10.0005)"/>
</clipPath>
</defs>
</svg>
