<svg width="32" height="32" viewBox="0 0 32 32" fill="none" xmlns="http://www.w3.org/2000/svg">
<path fill-rule="evenodd" clip-rule="evenodd" d="M1.0004 14.9991C1.55254 14.9994 2.00079 15.4473 2.00079 15.9995C2.00079 19.7124 3.47566 23.2735 6.10105 25.8989C8.72585 28.5235 12.2858 29.9976 15.9976 29.9982C19.9321 29.9829 23.709 28.448 26.5379 25.7133L28.5846 23.6666H22.6662C22.114 23.6666 21.666 23.2184 21.6658 22.6662C21.6658 22.1139 22.1139 21.6658 22.6662 21.6658H30.9996C31.0573 21.6659 31.1136 21.6711 31.1686 21.6805C31.2097 21.6875 31.2506 21.6966 31.2907 21.7088C31.3103 21.7148 31.3293 21.7222 31.3484 21.7293C31.3581 21.7329 31.368 21.7361 31.3777 21.7401C31.4016 21.7499 31.425 21.7607 31.448 21.7723C31.4535 21.7751 31.4592 21.7773 31.4646 21.7801L31.4764 21.786C31.4946 21.7959 31.5115 21.8082 31.5291 21.8192C31.5358 21.8234 31.543 21.8266 31.5496 21.8309L31.5584 21.8368C31.5942 21.861 31.6277 21.8883 31.66 21.9169C31.6756 21.9306 31.692 21.944 31.7069 21.9589C31.8158 22.0679 31.8923 22.1968 31.9404 22.3331C31.9452 22.3468 31.9508 22.3602 31.9551 22.3741C31.984 22.4692 31.999 22.5676 31.999 22.6662V30.9996C31.9987 31.5515 31.5515 31.9987 30.9996 31.999C30.4475 31.999 29.9996 31.5516 29.9992 30.9996V25.0803L27.9281 27.1514C24.7278 30.2452 20.4546 31.9822 16.0034 31.999H15.9995C11.7564 31.9989 7.68683 30.3129 4.68643 27.3126C1.68604 24.3121 0 20.2428 0 15.9995C1.03231e-06 15.4472 0.448053 14.9991 1.0004 14.9991ZM15.9995 0C20.2427 0.000118422 24.3132 1.68603 27.3136 4.68643C30.3137 7.6868 31.9999 11.7565 32 15.9995C31.9998 16.5515 31.5515 16.9996 30.9996 16.9999C30.4474 16.9999 29.9994 16.5517 29.9992 15.9995C29.9991 12.287 28.5239 8.72631 25.8989 6.10105C23.274 3.47613 19.7136 2.00133 16.0015 2.00079C12.0672 2.01616 8.29087 3.5512 5.46213 6.2857L3.41542 8.33338H9.33378C9.88577 8.3338 10.3332 8.78169 10.3332 9.33378C10.3329 9.88557 9.88555 10.3328 9.33378 10.3332H1.0004C0.901466 10.3332 0.802747 10.3183 0.707312 10.2892C0.696749 10.286 0.686461 10.2821 0.676049 10.2785C0.536269 10.2308 0.404595 10.1524 0.293085 10.0411C0.211326 9.95933 0.147167 9.86615 0.0996489 9.76755C0.0907744 9.74921 0.0820142 9.7308 0.0742482 9.71186C0.07031 9.70221 0.0671258 9.6923 0.0635018 9.68255C0.0562714 9.66321 0.04903 9.64383 0.0429858 9.62394C0.0402381 9.61485 0.0376538 9.60573 0.0351702 9.59658C0.0209353 9.54439 0.0104981 9.49061 0.00488475 9.43538C0.00145087 9.40161 8.28507e-06 9.36769 0 9.33378V1.0004C0 0.448053 0.448053 0 1.0004 0C1.55254 0.000241785 2.00079 0.448202 2.00079 1.0004V6.91876L4.07193 4.84763C7.27231 1.75386 11.5453 0.0167451 15.9966 0H15.9995Z" fill="#EB0A1E"/>
</svg>
