<svg width="27" height="32" viewBox="0 0 27 32" fill="none" xmlns="http://www.w3.org/2000/svg">
<path d="M17.4744 0C17.806 0 18.1249 0.131831 18.3594 0.366289L25.734 7.74091C25.9684 7.97533 26.1002 8.2934 26.1003 8.62489V10.0813C26.1004 10.0874 26.1013 10.0937 26.1013 10.0998C26.1013 10.1057 26.1004 10.1115 26.1003 10.1174V27.7999C26.1002 28.9137 25.6571 29.9817 24.8696 30.7693C24.082 31.5567 23.0139 31.9999 21.9002 32H4.20012C3.08627 31.9999 2.01737 31.5569 1.22975 30.7693C0.442436 29.9817 0.000113883 28.9135 0 27.7999V4.20012C2.17858e-05 3.08628 0.442218 2.01741 1.22975 1.22975C2.01737 0.44214 3.08627 8.4085e-05 4.20012 0H17.4744ZM4.20012 2.50053C3.74945 2.50062 3.31736 2.68001 2.99869 2.99869C2.68009 3.3174 2.50056 3.74947 2.50053 4.20012V27.7999C2.50065 28.2505 2.68005 28.6827 2.99869 29.0013C3.31735 29.3199 3.74949 29.4994 4.20012 29.4995H21.9002C22.3507 29.4994 22.783 29.3198 23.1016 29.0013C23.4202 28.6827 23.5997 28.2505 23.5998 27.7999V11.3501H18.9513C17.8374 11.35 16.7686 10.9079 15.981 10.1203C15.1934 9.33269 14.7512 8.2638 14.7512 7.14996V2.50053H4.20012ZM16.5914 16.5895C17.0797 16.1013 17.8711 16.1013 18.3594 16.5895C18.8476 17.0777 18.8476 17.8692 18.3594 18.3574L12.4597 24.2571C12.2252 24.4915 11.9072 24.6234 11.5757 24.6234C11.2442 24.6234 10.9261 24.4915 10.6917 24.2571L7.74189 21.3073C7.25374 20.8191 7.25386 20.0276 7.74189 19.5393C8.23014 19.0511 9.02159 19.0511 9.50984 19.5393L11.5757 21.6052L16.5914 16.5895ZM17.2517 7.14996C17.2518 7.60067 17.4312 8.03367 17.7499 8.35237C18.0686 8.67082 18.5008 8.84951 18.9513 8.84955H23.3067L17.2517 2.79454V7.14996Z" fill="#EB0A1E"/>
</svg>
