<svg width="33" height="32" viewBox="0 0 33 32" fill="none" xmlns="http://www.w3.org/2000/svg">
<path fill-rule="evenodd" clip-rule="evenodd" d="M16.0029 0C24.8406 0.000151511 32.0048 7.16332 32.0049 16C32.0046 24.8365 24.8405 31.9998 16.0029 32C7.16531 32 0.000263947 24.8366 0 16C9.17616e-05 7.16326 7.1652 4.45148e-05 16.0029 0ZM16.0029 2.5C8.54552 2.50004 2.50009 8.54437 2.5 16C2.50026 23.4555 8.54562 29.5 16.0029 29.5C23.4601 29.4998 29.5046 23.4554 29.5049 16C29.5048 8.54443 23.4603 2.50015 16.0029 2.5ZM19.5439 12.167C20.0321 11.6789 20.8234 11.6789 21.3115 12.167C21.7996 12.6552 21.7996 13.4465 21.3115 13.9346L15.4102 19.835C14.922 20.3223 14.1305 20.3227 13.6426 19.835L10.6924 16.8848C10.2043 16.3968 10.2047 15.6054 10.6924 15.1172C11.1805 14.629 11.9718 14.6291 12.46 15.1172L14.5254 17.1826L19.5439 12.167Z" fill="#EB0A1E"/>
</svg>
