<svg width="16" height="16" viewBox="0 0 16 16" fill="none" xmlns="http://www.w3.org/2000/svg">
<path d="M11.0342 0C11.3101 0.000263701 11.5342 0.22402 11.5342 0.5V1.4668H13.2334C14.3195 1.46684 15.2002 2.34746 15.2002 3.43359V13.7002C15.2002 14.7863 14.3195 15.6669 13.2334 15.667H2.9668C1.88066 15.667 1.00004 14.7863 1 13.7002V3.43359C1 2.34743 1.88064 1.4668 2.9668 1.4668H4.66602V0.5C4.66602 0.223858 4.88987 0 5.16602 0C5.44216 0 5.66602 0.223858 5.66602 0.5V1.4668H10.5342V0.5C10.5342 0.223858 10.758 0 11.0342 0ZM2 6.86719V13.7002C2.00004 14.234 2.43295 14.667 2.9668 14.667H13.2334C13.7672 14.6669 14.2002 14.234 14.2002 13.7002V6.86719H2ZM2.9668 2.4668C2.43292 2.4668 2 2.89972 2 3.43359V5.86719H14.2002V3.43359C14.2002 2.89975 13.7672 2.46684 13.2334 2.4668H11.5342V3.43359C11.534 3.70945 11.31 3.93333 11.0342 3.93359C10.7581 3.93359 10.5343 3.70961 10.5342 3.43359V2.4668H5.66602V3.43359C5.66587 3.70961 5.44207 3.93359 5.16602 3.93359C4.88996 3.93359 4.66616 3.70961 4.66602 3.43359V2.4668H2.9668Z" fill="#EB0A1E"/>
</svg>
