<svg width="31" height="31" viewBox="0 0 31 31" fill="none" xmlns="http://www.w3.org/2000/svg">
<path d="M15.5 0.5C12.5333 0.5 9.63319 1.37973 7.16645 3.02796C4.69971 4.67618 2.77713 7.01886 1.64181 9.75975C0.506499 12.5006 0.209449 15.5166 0.788227 18.4264C1.36701 21.3361 2.79562 24.0088 4.8934 26.1066C6.99119 28.2044 9.66393 29.633 12.5736 30.2118C15.4834 30.7906 18.4994 30.4935 21.2403 29.3582C23.9811 28.2229 26.3238 26.3003 27.972 23.8335C29.6203 21.3668 30.5 18.4667 30.5 15.5C30.4958 11.523 28.9141 7.71017 26.102 4.89804C23.2898 2.0859 19.477 0.5042 15.5 0.5ZM15.5 28.1923C12.9897 28.1923 10.5358 27.4479 8.44854 26.0533C6.3613 24.6586 4.73449 22.6763 3.77384 20.3571C2.81319 18.0379 2.56184 15.4859 3.05158 13.0239C3.54131 10.5618 4.75014 8.30023 6.52519 6.52518C8.30024 4.75013 10.5618 3.54131 13.0239 3.05157C15.4859 2.56184 18.0379 2.81319 20.3571 3.77384C22.6764 4.73449 24.6586 6.36129 26.0533 8.44853C27.4479 10.5358 28.1923 12.9897 28.1923 15.5C28.1885 18.865 26.85 22.0912 24.4706 24.4706C22.0912 26.85 18.865 28.1885 15.5 28.1923ZM24.7308 15.5C24.7308 15.806 24.6092 16.0995 24.3928 16.3159C24.1764 16.5323 23.8829 16.6538 23.5769 16.6538H15.5C15.194 16.6538 14.9005 16.5323 14.6841 16.3159C14.4677 16.0995 14.3462 15.806 14.3462 15.5V7.42308C14.3462 7.11706 14.4677 6.82357 14.6841 6.60718C14.9005 6.3908 15.194 6.26923 15.5 6.26923C15.806 6.26923 16.0995 6.3908 16.3159 6.60718C16.5323 6.82357 16.6538 7.11706 16.6538 7.42308V14.3462H23.5769C23.8829 14.3462 24.1764 14.4677 24.3928 14.6841C24.6092 14.9005 24.7308 15.194 24.7308 15.5Z" fill="#EB0A1E" stroke="white"/>
</svg>
