<svg width="19" height="16" viewBox="0 0 19 16" fill="none" xmlns="http://www.w3.org/2000/svg">
<path fill-rule="evenodd" clip-rule="evenodd" d="M17.3778 2.96777C17.4207 2.96843 17.4635 2.97199 17.5057 2.98047C17.6903 3.01734 17.8479 3.1273 17.9491 3.27832C17.9547 3.28671 17.9585 3.29612 17.9637 3.30469C18.0284 3.41073 18.0682 3.53377 18.0682 3.66699V8.66699C18.0682 9.05355 17.7546 9.36712 17.368 9.36719C16.9814 9.36719 16.6678 9.05359 16.6678 8.66699V5.35547L10.7782 11.2451C10.5048 11.5185 10.0613 11.5184 9.78795 11.2451L6.11608 7.57324L1.19518 12.4951C0.921834 12.7685 0.478316 12.7684 0.204944 12.4951C-0.0682604 12.2217 -0.0683689 11.7782 0.204944 11.5049L5.62194 6.08887L5.73131 5.99902C6.00303 5.81955 6.37294 5.84964 6.61217 6.08887L10.2831 9.75977L15.6766 4.36719H12.368C11.9814 4.36719 11.6678 4.05359 11.6678 3.66699C11.6678 3.28039 11.9814 2.9668 12.368 2.9668H17.368C17.3713 2.9668 17.3745 2.96773 17.3778 2.96777Z" fill="#EB0A1E"/>
</svg>
