<svg width="16" height="16" viewBox="0 0 16 16" fill="none" xmlns="http://www.w3.org/2000/svg">
<path d="M14.99 6.20143C14.7207 5.92 14.4421 5.63 14.3371 5.375C14.24 5.14143 14.2343 4.75429 14.2286 4.37929C14.2179 3.68214 14.2064 2.89214 13.6571 2.34286C13.1079 1.79357 12.3179 1.78214 11.6207 1.77143C11.2457 1.76571 10.8586 1.76 10.625 1.66286C10.3707 1.55786 10.08 1.27929 9.79857 1.01C9.30571 0.536429 8.74571 0 8 0C7.25429 0 6.695 0.536429 6.20143 1.01C5.92 1.27929 5.63 1.55786 5.375 1.66286C5.14286 1.76 4.75429 1.76571 4.37929 1.77143C3.68214 1.78214 2.89214 1.79357 2.34286 2.34286C1.79357 2.89214 1.78571 3.68214 1.77143 4.37929C1.76571 4.75429 1.76 5.14143 1.66286 5.375C1.55786 5.62929 1.27929 5.92 1.01 6.20143C0.536429 6.69429 0 7.25429 0 8C0 8.74571 0.536429 9.305 1.01 9.79857C1.27929 10.08 1.55786 10.37 1.66286 10.625C1.76 10.8586 1.76571 11.2457 1.77143 11.6207C1.78214 12.3179 1.79357 13.1079 2.34286 13.6571C2.89214 14.2064 3.68214 14.2179 4.37929 14.2286C4.75429 14.2343 5.14143 14.24 5.375 14.3371C5.62929 14.4421 5.92 14.7207 6.20143 14.99C6.69429 15.4636 7.25429 16 8 16C8.74571 16 9.305 15.4636 9.79857 14.99C10.08 14.7207 10.37 14.4421 10.625 14.3371C10.8586 14.24 11.2457 14.2343 11.6207 14.2286C12.3179 14.2179 13.1079 14.2064 13.6571 13.6571C14.2064 13.1079 14.2179 12.3179 14.2286 11.6207C14.2343 11.2457 14.24 10.8586 14.3371 10.625C14.4421 10.3707 14.7207 10.08 14.99 9.79857C15.4636 9.30571 16 8.74571 16 8C16 7.25429 15.4636 6.695 14.99 6.20143ZM14.165 9.00786C13.8229 9.365 13.4686 9.73429 13.2807 10.1879C13.1007 10.6236 13.0929 11.1214 13.0857 11.6036C13.0786 12.1036 13.0707 12.6271 12.8486 12.8486C12.6264 13.07 12.1064 13.0786 11.6036 13.0857C11.1214 13.0929 10.6236 13.1007 10.1879 13.2807C9.73429 13.4686 9.365 13.8229 9.00786 14.165C8.65071 14.5071 8.28572 14.8571 8 14.8571C7.71429 14.8571 7.34643 14.5057 6.99214 14.165C6.63786 13.8243 6.26571 13.4686 5.81214 13.2807C5.37643 13.1007 4.87857 13.0929 4.39643 13.0857C3.89643 13.0786 3.37286 13.0707 3.15143 12.8486C2.93 12.6264 2.92143 12.1064 2.91429 11.6036C2.90714 11.1214 2.89929 10.6236 2.71929 10.1879C2.53143 9.73429 2.17714 9.365 1.835 9.00786C1.49286 8.65071 1.14286 8.28572 1.14286 8C1.14286 7.71429 1.49429 7.34643 1.835 6.99214C2.17571 6.63786 2.53143 6.26571 2.71929 5.81214C2.89929 5.37643 2.90714 4.87857 2.91429 4.39643C2.92143 3.89643 2.92929 3.37286 3.15143 3.15143C3.37357 2.93 3.89357 2.92143 4.39643 2.91429C4.87857 2.90714 5.37643 2.89929 5.81214 2.71929C6.26571 2.53143 6.635 2.17714 6.99214 1.835C7.34929 1.49286 7.71429 1.14286 8 1.14286C8.28572 1.14286 8.65357 1.49429 9.00786 1.835C9.36214 2.17571 9.73429 2.53143 10.1879 2.71929C10.6236 2.89929 11.1214 2.90714 11.6036 2.91429C12.1036 2.92143 12.6271 2.92929 12.8486 3.15143C13.07 3.37357 13.0786 3.89357 13.0857 4.39643C13.0929 4.87857 13.1007 5.37643 13.2807 5.81214C13.4686 6.26571 13.8229 6.635 14.165 6.99214C14.5071 7.34929 14.8571 7.71429 14.8571 8C14.8571 8.28572 14.5057 8.65357 14.165 9.00786ZM11.2614 5.88143C11.3146 5.9345 11.3567 5.99752 11.3855 6.06689C11.4142 6.13626 11.429 6.21062 11.429 6.28571C11.429 6.36081 11.4142 6.43517 11.3855 6.50454C11.3567 6.57391 11.3146 6.63693 11.2614 6.69L7.26143 10.69C7.20836 10.7431 7.14534 10.7853 7.07597 10.814C7.0066 10.8428 6.93224 10.8576 6.85714 10.8576C6.78205 10.8576 6.70769 10.8428 6.63832 10.814C6.56895 10.7853 6.50593 10.7431 6.45286 10.69L4.73857 8.97571C4.63135 8.86849 4.57111 8.72307 4.57111 8.57143C4.57111 8.41979 4.63135 8.27437 4.73857 8.16714C4.84579 8.05992 4.99122 7.99968 5.14286 7.99968C5.29449 7.99968 5.43992 8.05992 5.54714 8.16714L6.85714 9.47786L10.4529 5.88143C10.5059 5.8283 10.5689 5.78615 10.6383 5.75739C10.7077 5.72864 10.782 5.71384 10.8571 5.71384C10.9322 5.71384 11.0066 5.72864 11.076 5.75739C11.1453 5.78615 11.2084 5.8283 11.2614 5.88143Z" fill="#EB0A1E"/>
</svg>
