<svg width="48" height="48" viewBox="0 0 48 48" fill="none" xmlns="http://www.w3.org/2000/svg">
<rect width="48" height="48" rx="8" fill="white" fill-opacity="0.2"/>
<path d="M23.5259 14.2938C23.5698 14.2056 23.6375 14.1313 23.7214 14.0794C23.8053 14.0275 23.9021 14 24.0009 14C24.0997 14 24.1965 14.0275 24.2804 14.0794C24.3643 14.1313 24.432 14.2056 24.4759 14.2938L26.7856 18.9551C26.9378 19.2619 27.1624 19.5273 27.4402 19.7286C27.718 19.9299 28.0407 20.061 28.3805 20.1107L33.546 20.8639C33.6439 20.878 33.7359 20.9191 33.8115 20.9826C33.8871 21.0461 33.9434 21.1294 33.974 21.2231C34.0046 21.3168 34.0083 21.4172 33.9846 21.5128C33.9609 21.6085 33.9108 21.6957 33.84 21.7644L30.1043 25.3887C29.858 25.6279 29.6737 25.9232 29.5672 26.2491C29.4608 26.575 29.4355 26.9218 29.4934 27.2596L30.3753 32.3802C30.3926 32.4776 30.382 32.578 30.3448 32.6698C30.3076 32.7615 30.2453 32.841 30.1649 32.8992C30.0845 32.9574 29.9893 32.9919 29.8902 32.9987C29.7911 33.0056 29.6921 32.9846 29.6044 32.9381L24.9868 30.5192C24.6826 30.3601 24.344 30.2769 24.0004 30.2769C23.6567 30.2769 23.3182 30.3601 23.014 30.5192L18.3974 32.9381C18.3097 32.9843 18.2108 33.0051 18.1119 32.9981C18.0129 32.9911 17.918 32.9566 17.8377 32.8984C17.7575 32.8403 17.6953 32.7609 17.6581 32.6693C17.621 32.5777 17.6103 32.4775 17.6275 32.3802L18.5084 27.2606C18.5666 26.9226 18.5414 26.5756 18.4349 26.2495C18.3285 25.9234 18.144 25.6279 17.8974 25.3887L14.1618 21.7654C14.0904 21.6967 14.0398 21.6094 14.0158 21.5135C13.9917 21.4175 13.9952 21.3168 14.0259 21.2227C14.0565 21.1286 14.1131 21.045 14.1891 20.9814C14.2651 20.9178 14.3575 20.8767 14.4558 20.8629L19.6203 20.1107C19.9605 20.0614 20.2836 19.9305 20.5618 19.7291C20.84 19.5278 21.0649 19.2622 21.2171 18.9551L23.5259 14.2938Z" stroke="white" stroke-width="1.6" stroke-linecap="round" stroke-linejoin="round"/>
</svg>
