<svg width="48" height="48" viewBox="0 0 48 48" fill="none" xmlns="http://www.w3.org/2000/svg">
<rect width="48" height="48" rx="8" fill="white" fill-opacity="0.2"/>
<path d="M34.485 21.3021C34.0811 20.88 33.6632 20.445 33.5057 20.0625C33.36 19.7121 33.3514 19.1314 33.3429 18.5689C33.3268 17.5232 33.3096 16.3382 32.4857 15.5143C31.6618 14.6904 30.4768 14.6732 29.4311 14.6571C28.8686 14.6486 28.2879 14.64 27.9375 14.4943C27.5561 14.3368 27.12 13.9189 26.6979 13.515C25.9586 12.8046 25.1186 12 24 12C22.8814 12 22.0425 12.8046 21.3021 13.515C20.88 13.9189 20.445 14.3368 20.0625 14.4943C19.7143 14.64 19.1314 14.6486 18.5689 14.6571C17.5232 14.6732 16.3382 14.6904 15.5143 15.5143C14.6904 16.3382 14.6786 17.5232 14.6571 18.5689C14.6486 19.1314 14.64 19.7121 14.4943 20.0625C14.3368 20.4439 13.9189 20.88 13.515 21.3021C12.8046 22.0414 12 22.8814 12 24C12 25.1186 12.8046 25.9575 13.515 26.6979C13.9189 27.12 14.3368 27.555 14.4943 27.9375C14.64 28.2879 14.6486 28.8686 14.6571 29.4311C14.6732 30.4768 14.6904 31.6618 15.5143 32.4857C16.3382 33.3096 17.5232 33.3268 18.5689 33.3429C19.1314 33.3514 19.7121 33.36 20.0625 33.5057C20.4439 33.6632 20.88 34.0811 21.3021 34.485C22.0414 35.1954 22.8814 36 24 36C25.1186 36 25.9575 35.1954 26.6979 34.485C27.12 34.0811 27.555 33.6632 27.9375 33.5057C28.2879 33.36 28.8686 33.3514 29.4311 33.3429C30.4768 33.3268 31.6618 33.3096 32.4857 32.4857C33.3096 31.6618 33.3268 30.4768 33.3429 29.4311C33.3514 28.8686 33.36 28.2879 33.5057 27.9375C33.6632 27.5561 34.0811 27.12 34.485 26.6979C35.1954 25.9586 36 25.1186 36 24C36 22.8814 35.1954 22.0425 34.485 21.3021ZM33.2475 25.5118C32.7343 26.0475 32.2029 26.6014 31.9211 27.2818C31.6511 27.9354 31.6393 28.6821 31.6286 29.4054C31.6179 30.1554 31.6061 30.9407 31.2729 31.2729C30.9396 31.605 30.1596 31.6179 29.4054 31.6286C28.6821 31.6393 27.9354 31.6511 27.2818 31.9211C26.6014 32.2029 26.0475 32.7343 25.5118 33.2475C24.9761 33.7607 24.4286 34.2857 24 34.2857C23.5714 34.2857 23.0196 33.7586 22.4882 33.2475C21.9568 32.7364 21.3986 32.2029 20.7182 31.9211C20.0646 31.6511 19.3179 31.6393 18.5946 31.6286C17.8446 31.6179 17.0593 31.6061 16.7271 31.2729C16.395 30.9396 16.3821 30.1596 16.3714 29.4054C16.3607 28.6821 16.3489 27.9354 16.0789 27.2818C15.7971 26.6014 15.2657 26.0475 14.7525 25.5118C14.2393 24.9761 13.7143 24.4286 13.7143 24C13.7143 23.5714 14.2414 23.0196 14.7525 22.4882C15.2636 21.9568 15.7971 21.3986 16.0789 20.7182C16.3489 20.0646 16.3607 19.3179 16.3714 18.5946C16.3821 17.8446 16.3939 17.0593 16.7271 16.7271C17.0604 16.395 17.8404 16.3821 18.5946 16.3714C19.3179 16.3607 20.0646 16.3489 20.7182 16.0789C21.3986 15.7971 21.9525 15.2657 22.4882 14.7525C23.0239 14.2393 23.5714 13.7143 24 13.7143C24.4286 13.7143 24.9804 14.2414 25.5118 14.7525C26.0432 15.2636 26.6014 15.7971 27.2818 16.0789C27.9354 16.3489 28.6821 16.3607 29.4054 16.3714C30.1554 16.3821 30.9407 16.3939 31.2729 16.7271C31.605 17.0604 31.6179 17.8404 31.6286 18.5946C31.6393 19.3179 31.6511 20.0646 31.9211 20.7182C32.2029 21.3986 32.7343 21.9525 33.2475 22.4882C33.7607 23.0239 34.2857 23.5714 34.2857 24C34.2857 24.4286 33.7586 24.9804 33.2475 25.5118ZM28.8921 20.8221C28.9718 20.9017 29.0351 20.9963 29.0782 21.1003C29.1213 21.2044 29.1435 21.3159 29.1435 21.4286C29.1435 21.5412 29.1213 21.6528 29.0782 21.7568C29.0351 21.8609 28.9718 21.9554 28.8921 22.035L22.8921 28.035C22.8125 28.1147 22.718 28.1779 22.6139 28.2211C22.5099 28.2642 22.3984 28.2864 22.2857 28.2864C22.1731 28.2864 22.0615 28.2642 21.9575 28.2211C21.8534 28.1779 21.7589 28.1147 21.6793 28.035L19.1079 25.4636C18.947 25.3027 18.8567 25.0846 18.8567 24.8571C18.8567 24.6297 18.947 24.4115 19.1079 24.2507C19.2687 24.0899 19.4868 23.9995 19.7143 23.9995C19.9417 23.9995 20.1599 24.0899 20.3207 24.2507L22.2857 26.2168L27.6793 20.8221C27.7589 20.7424 27.8534 20.6792 27.9575 20.6361C28.0615 20.593 28.1731 20.5708 28.2857 20.5708C28.3984 20.5708 28.5099 20.593 28.6139 20.6361C28.718 20.6792 28.8125 20.7424 28.8921 20.8221Z" fill="white"/>
</svg>
