<svg width="48" height="48" viewBox="0 0 48 48" fill="none" xmlns="http://www.w3.org/2000/svg">
<rect width="48" height="48" rx="8" fill="white" fill-opacity="0.2"/>
<path d="M32 20.8031C32.0008 19.3205 31.6397 17.8616 30.95 16.5621C30.2604 15.2627 29.2646 14.1646 28.0553 13.3701C26.8459 12.5755 25.4621 12.1102 24.0325 12.0173C22.6029 11.9244 21.1737 12.207 19.8779 12.8388C18.582 13.4706 17.4614 14.4311 16.6202 15.6311C15.7789 16.8312 15.2444 18.2318 15.0661 19.7029C14.8878 21.174 15.0716 22.6679 15.6004 24.0458C16.1293 25.4237 16.9859 26.641 18.0909 27.5845V35.1996C18.0908 35.336 18.1244 35.4702 18.1885 35.5894C18.2527 35.7085 18.3452 35.8087 18.4573 35.8805C18.5693 35.9522 18.6973 35.9931 18.829 35.9992C18.9606 36.0053 19.0916 35.9765 19.2094 35.9154L23.5 33.7L27.7915 35.9204C27.8991 35.9737 28.0171 36.0008 28.1364 35.9994C28.3413 35.9994 28.5378 35.9152 28.6828 35.7652C28.8277 35.6152 28.9091 35.4117 28.9091 35.1996V27.5845C29.8759 26.7603 30.6544 25.7248 31.1888 24.5523C31.7233 23.3799 32.0003 22.0995 32 20.8031ZM16.5455 20.8031C16.5455 19.3794 16.9533 17.9877 17.7175 16.804C18.4817 15.6202 19.5678 14.6976 20.8386 14.1528C22.1094 13.608 23.5077 13.4654 24.8568 13.7432C26.2058 14.0209 27.445 14.7065 28.4176 15.7132C29.3902 16.7199 30.0526 18.0025 30.3209 19.3988C30.5893 20.7951 30.4515 22.2424 29.9252 23.5578C29.3988 24.8731 28.5074 25.9973 27.3637 26.7882C26.2201 27.5792 24.8755 28.0014 23.5 28.0014C21.6562 27.9992 19.8884 27.2402 18.5847 25.8907C17.2809 24.5412 16.5475 22.7115 16.5455 20.8031ZM27.3636 33.9059L23.8448 32.0854C23.7375 32.0298 23.6191 32.0008 23.499 32.0008C23.379 32.0008 23.2606 32.0298 23.1532 32.0854L19.6364 33.9059V28.6382C20.8325 29.271 22.1567 29.601 23.5 29.601C24.8433 29.601 26.1675 29.271 27.3636 28.6382V33.9059ZM23.5 26.4017C24.5698 26.4017 25.6156 26.0734 26.5051 25.4582C27.3946 24.843 28.0879 23.9686 28.4973 22.9456C28.9067 21.9226 29.0139 20.7969 28.8052 19.7109C28.5964 18.6248 28.0813 17.6272 27.3248 16.8443C26.5683 16.0613 25.6045 15.5281 24.5553 15.312C23.506 15.096 22.4184 15.2069 21.43 15.6306C20.4416 16.0544 19.5969 16.772 19.0025 17.6927C18.4081 18.6134 18.0909 19.6958 18.0909 20.8031C18.0924 22.2875 18.6628 23.7106 19.6769 24.7602C20.691 25.8098 22.0659 26.4002 23.5 26.4017ZM23.5 16.8041C24.2642 16.8041 25.0111 17.0386 25.6465 17.478C26.2819 17.9174 26.7771 18.542 27.0695 19.2727C27.362 20.0035 27.4385 20.8075 27.2894 21.5833C27.1403 22.359 26.7723 23.0716 26.232 23.6308C25.6917 24.1901 25.0032 24.571 24.2538 24.7253C23.5043 24.8796 22.7274 24.8004 22.0215 24.4977C21.3155 24.195 20.712 23.6825 20.2875 23.0248C19.863 22.3672 19.6364 21.594 19.6364 20.8031C19.6364 19.7425 20.0434 18.7253 20.768 17.9754C21.4926 17.2254 22.4753 16.8041 23.5 16.8041Z" fill="white"/>
</svg>
