<svg width="48" height="48" viewBox="0 0 48 48" fill="none" xmlns="http://www.w3.org/2000/svg">
<rect width="48" height="48" rx="8" fill="white" fill-opacity="0.2"/>
<path d="M36.339 22H35.0059L31.887 14.9233C31.7658 14.6485 31.5682 14.415 31.3181 14.2511C31.068 14.0873 30.7762 14 30.478 14H17.522C17.2238 14 16.932 14.0873 16.6819 14.2511C16.4318 14.415 16.2342 14.6485 16.113 14.9233L12.9941 22H11.661C11.4857 22 11.3176 22.0702 11.1936 22.1953C11.0696 22.3203 11 22.4899 11 22.6667C11 22.8435 11.0696 23.013 11.1936 23.1381C11.3176 23.2631 11.4857 23.3333 11.661 23.3333H12.7627V32.4444C12.7627 32.857 12.9252 33.2527 13.2145 33.5444C13.5037 33.8361 13.896 34 14.3051 34H16.9492C17.3582 34 17.7505 33.8361 18.0398 33.5444C18.329 33.2527 18.4915 32.857 18.4915 32.4444V30.4444H29.5085V32.4444C29.5085 32.857 29.671 33.2527 29.9602 33.5444C30.2495 33.8361 30.6418 34 31.0508 34H33.6949C34.104 34 34.4963 33.8361 34.7855 33.5444C35.0748 33.2527 35.2373 32.857 35.2373 32.4444V23.3333H36.339C36.5143 23.3333 36.6824 23.2631 36.8064 23.1381C36.9304 23.013 37 22.8435 37 22.6667C37 22.4899 36.9304 22.3203 36.8064 22.1953C36.6824 22.0702 36.5143 22 36.339 22ZM17.3204 15.4656C17.3377 15.4262 17.366 15.3927 17.4018 15.3693C17.4376 15.3458 17.4793 15.3333 17.522 15.3333H30.478C30.5207 15.3333 30.5624 15.3458 30.5982 15.3693C30.634 15.3927 30.6623 15.4262 30.6796 15.4656L33.5594 22H14.4406L17.3204 15.4656ZM17.1695 32.4444C17.1695 32.5034 17.1463 32.5599 17.105 32.6016C17.0636 32.6433 17.0076 32.6667 16.9492 32.6667H14.3051C14.2466 32.6667 14.1906 32.6433 14.1493 32.6016C14.108 32.5599 14.0847 32.5034 14.0847 32.4444V30.4444H17.1695V32.4444ZM33.6949 32.6667H31.0508C30.9924 32.6667 30.9364 32.6433 30.895 32.6016C30.8537 32.5599 30.8305 32.5034 30.8305 32.4444V30.4444H33.9153V32.4444C33.9153 32.5034 33.892 32.5599 33.8507 32.6016C33.8094 32.6433 33.7534 32.6667 33.6949 32.6667ZM33.9153 29.1111H14.0847V23.3333H33.9153V29.1111ZM16.2881 26.2222C16.2881 26.0454 16.3578 25.8758 16.4817 25.7508C16.6057 25.6258 16.7738 25.5556 16.9492 25.5556H18.7119C18.8872 25.5556 19.0553 25.6258 19.1793 25.7508C19.3032 25.8758 19.3729 26.0454 19.3729 26.2222C19.3729 26.399 19.3032 26.5686 19.1793 26.6936C19.0553 26.8187 18.8872 26.8889 18.7119 26.8889H16.9492C16.7738 26.8889 16.6057 26.8187 16.4817 26.6936C16.3578 26.5686 16.2881 26.399 16.2881 26.2222ZM28.6271 26.2222C28.6271 26.0454 28.6968 25.8758 28.8207 25.7508C28.9447 25.6258 29.1128 25.5556 29.2881 25.5556H31.0508C31.2262 25.5556 31.3943 25.6258 31.5183 25.7508C31.6422 25.8758 31.7119 26.0454 31.7119 26.2222C31.7119 26.399 31.6422 26.5686 31.5183 26.6936C31.3943 26.8187 31.2262 26.8889 31.0508 26.8889H29.2881C29.1128 26.8889 28.9447 26.8187 28.8207 26.6936C28.6968 26.5686 28.6271 26.399 28.6271 26.2222Z" fill="white"/>
</svg>
