<svg width="49" height="49" viewBox="0 0 49 49" fill="none" xmlns="http://www.w3.org/2000/svg">
<mask id="path-1-outside-1_2819_3050" maskUnits="userSpaceOnUse" x="-0.705733" y="-0.705718" width="49.4037" height="50.4119" fill="black">
<rect fill="white" x="-0.705733" y="-0.705718" width="49.4037" height="50.4119"/>
<path fill-rule="evenodd" clip-rule="evenodd" d="M13.7373 7.06233C14.3893 2.73493 18.44 -0.256908 22.7672 0.390624C26.7317 0.983136 29.5909 4.41419 29.5255 8.35118L30.0651 8.42109C30.7507 8.51177 31.3843 8.88482 31.7999 9.44606L47.3115 30.4409L47.3006 30.4389C48.7711 32.4265 48.3495 35.2364 46.3623 36.7049L33.7111 46.0498C32.9327 46.6278 32.0109 46.93 31.0595 46.9301C30.838 46.9301 30.6119 46.9125 30.3841 46.8809C29.2005 46.7079 28.1581 46.0774 27.445 45.1155L25.1873 42.0642L24.7659 44.8831C24.5887 46.0667 23.9616 47.109 22.9995 47.8221C22.2211 48.3959 21.2993 48.6974 20.348 48.6975C20.1265 48.6975 19.9004 48.6809 19.6725 48.6492L4.11671 46.3118C1.67571 45.9447 -0.0143333 43.6534 0.352554 41.2125L4.22994 15.4C4.33127 14.7144 4.71598 14.0879 5.28347 13.6828L13.6713 7.68263C13.6882 7.47378 13.7057 7.26698 13.7373 7.06233ZM18.7864 7.14405C18.3918 6.62532 17.6686 6.51835 17.1391 6.89593L15.0331 8.40238C15.0648 9.62798 15.4427 10.8282 16.124 11.8534C16.4806 11.7058 16.8711 11.6536 17.2593 11.7126C18.4301 11.89 19.2403 12.9805 19.0631 14.1535C18.9005 15.2104 17.9825 15.978 16.9402 15.978C16.837 15.9779 16.7296 15.9741 16.6222 15.9573C16.0591 15.8708 15.5569 15.5692 15.2172 15.1095C14.8775 14.6518 14.7359 14.0839 14.8224 13.5164C14.8603 13.2507 14.9468 13.0038 15.0754 12.776C14.3581 11.7444 13.8986 10.5668 13.7255 9.3348L6.0938 14.8013C5.83655 14.9849 5.65699 15.2755 5.60839 15.594L1.731 41.4064C1.48224 43.0857 2.64194 44.6632 4.32742 44.9166L19.8842 47.255C20.7005 47.3751 21.5149 47.1744 22.1793 46.683C22.8439 46.1914 23.2767 45.474 23.4012 44.6576L24.7826 35.4437C24.8417 35.066 25.1986 34.8017 25.5762 34.8608C25.9538 34.9199 26.2172 35.2767 26.1581 35.6544L25.4896 40.1107C25.5128 40.1339 25.5447 40.1757 25.5447 40.1757L28.5744 44.2815C29.066 44.9461 29.7832 45.3789 30.5997 45.5034C31.4161 45.6236 32.2303 45.4228 32.8948 44.9313L45.5461 35.5864L45.5313 35.5894C46.8961 34.5746 47.1895 32.6402 46.1792 31.2689L30.6676 10.2741C30.4735 10.0146 30.1818 9.84075 29.8632 9.79855L21.7235 8.7017L28.1352 17.1112C28.5572 17.6683 28.7408 18.382 28.6374 19.0677L27.0591 29.5724C26.9998 29.9498 26.6439 30.209 26.2665 30.1543C25.8888 30.0952 25.6245 29.7384 25.6836 29.3607L27.2619 18.856C27.3103 18.5353 27.2236 18.2062 27.0295 17.9531L18.7864 7.14405ZM12.7429 39.6273C12.7984 39.6236 12.8676 39.628 12.9496 39.641C13.0001 39.6491 13.0551 39.6609 13.1141 39.6765C13.1701 39.6896 13.2239 39.707 13.2755 39.7277C13.3271 39.7484 13.3735 39.7722 13.4144 39.7996C13.452 39.8264 13.4777 39.8558 13.4921 39.8872C13.5209 39.9502 13.5627 40.0346 13.6172 40.1392C13.6716 40.2438 13.733 40.3585 13.8003 40.4839C13.8676 40.6093 13.9377 40.7392 14.0101 40.8738C14.0827 41.0062 14.1528 41.1335 14.2208 41.2548C14.2891 41.3742 14.3514 41.4841 14.4068 41.5827C14.4594 41.6785 14.5012 41.7515 14.5319 41.8023C14.5607 41.8443 14.5866 41.8914 14.6107 41.943C14.6351 41.9928 14.6427 42.0475 14.6333 42.1065C14.6249 42.1593 14.6004 42.2033 14.5595 42.2384C14.5187 42.2715 14.4694 42.2973 14.4118 42.3152C14.3512 42.3306 14.2862 42.3401 14.2178 42.3438C14.1465 42.345 14.079 42.341 14.016 42.331C13.9245 42.3165 13.8508 42.293 13.7944 42.2611C13.7353 42.2266 13.6892 42.1903 13.6566 42.1518C13.6211 42.1107 13.5962 42.0712 13.5827 42.0336C13.5697 41.994 13.5618 41.9625 13.5591 41.9391L12.9063 40.6768L11.8616 41.7255L11.8666 41.7264C11.8393 41.7555 11.8118 41.7831 11.7848 41.8101C11.7548 41.8367 11.7207 41.8592 11.6824 41.8761C11.6443 41.8929 11.599 41.9043 11.5466 41.9106C11.4942 41.9148 11.4267 41.9098 11.3447 41.8968C11.2786 41.8863 11.2122 41.867 11.1458 41.8377C11.0762 41.8079 11.0149 41.7738 10.9627 41.7363C10.9107 41.6989 10.8704 41.6591 10.8416 41.6171C10.8097 41.5746 10.7962 41.5336 10.8022 41.4951C10.8061 41.4706 10.8184 41.4452 10.8386 41.4192C10.8557 41.3928 10.8757 41.3678 10.8987 41.3444C10.9218 41.321 10.9469 41.2993 10.9725 41.2804C10.9983 41.2597 11.0214 41.2433 11.0424 41.2322C11.2798 40.9798 11.5156 40.7422 11.7484 40.5183C11.9812 40.2944 12.1994 40.0664 12.4042 39.836C12.4305 39.7923 12.4592 39.7553 12.4898 39.7247C12.5205 39.6942 12.5568 39.6712 12.5981 39.6548C12.6363 39.638 12.6846 39.6284 12.7429 39.6273ZM39.8678 31.6706C40.1758 31.4428 40.6127 31.5085 40.8406 31.8164C41.0685 32.1244 41.0029 32.5613 40.6949 32.7891L31.6907 39.4372C31.5662 39.53 31.4204 39.5721 31.2791 39.5721C31.0683 39.5721 30.8571 39.4758 30.7179 39.2925C30.49 38.9844 30.5555 38.5476 30.8636 38.3197L39.8678 31.6706ZM11.6155 33.6221C11.8638 33.5631 12.1145 33.5535 12.3667 33.5936C12.7625 33.6565 13.1075 33.8132 13.4016 34.0632C13.693 34.3097 13.9155 34.5507 14.0681 34.7849C14.2176 35.0187 14.4504 35.4082 14.7662 35.9537C15.0825 36.4959 15.3348 36.8741 15.5234 37.0879C15.5974 37.1785 15.6895 37.2732 15.7981 37.3725L16.1959 34.8667C16.2355 34.6172 16.3171 34.4352 16.4401 34.3202C16.5631 34.2052 16.7124 34.1614 16.8881 34.1893C17.0445 34.2141 17.1685 34.288 17.2602 34.4108C17.3525 34.5304 17.3824 34.6959 17.3489 34.907L16.7866 38.4408C16.7485 38.6808 16.6534 38.8579 16.5011 38.9715C16.3457 39.0845 16.1786 39.1269 15.9999 39.0985C15.8851 39.0803 15.7403 39.0129 15.5657 38.8967C15.3879 38.7798 15.2524 38.6609 15.1601 38.5412C14.7872 38.0457 14.4713 37.6021 14.2129 37.21C13.9512 36.8173 13.7824 36.539 13.7068 36.3761C13.5633 36.0843 13.4126 35.8369 13.2549 35.6347C13.0946 35.4289 12.9242 35.2658 12.7438 35.1453C12.5607 35.0211 12.3749 34.9439 12.1866 34.9139C11.9822 34.8815 11.7919 34.9021 11.6165 34.976C11.4384 35.0461 11.2917 35.1593 11.1754 35.3147C11.0595 35.4669 10.9854 35.642 10.9538 35.8404C10.8873 36.2597 11.0186 36.6183 11.3477 36.9166C11.3905 36.9562 11.5125 37.0314 11.7139 37.1421C11.916 37.2496 12.0672 37.3607 12.1669 37.4749C12.2671 37.586 12.3032 37.7336 12.2742 37.916C12.2487 38.0758 12.1747 38.2004 12.0527 38.2892C11.9306 38.3779 11.7786 38.4076 11.5968 38.3788C11.3765 38.3438 11.1539 38.2581 10.9302 38.1208C10.7065 37.9836 10.513 37.8014 10.3493 37.5753C10.186 37.3459 10.0691 37.0708 9.99876 36.7512C9.92585 36.4281 9.92146 36.0635 9.98596 35.6573C10.0638 35.1676 10.207 34.7617 10.4152 34.4403C10.553 34.2326 10.7245 34.0577 10.9302 33.9165C11.1359 33.7753 11.3645 33.6774 11.6155 33.6221ZM37.9882 29.1333C38.2962 28.9055 38.7331 28.9702 38.961 29.278C39.1889 29.586 39.1232 30.0229 38.8153 30.2508L29.8101 36.8999C29.6858 36.9924 29.5405 37.0347 29.3995 37.0348C29.1886 37.0348 28.9775 36.9375 28.8382 36.7542C28.6105 36.4462 28.6752 36.0093 28.983 35.7814L37.9882 29.1333ZM26.0321 31.8715C26.4095 31.9307 26.675 32.2828 26.614 32.6602H26.6101C26.5552 33.0104 26.2593 33.2598 25.9238 33.2598C25.8922 33.2598 25.8541 33.2592 25.8204 33.2529C25.443 33.1937 25.1775 32.842 25.2385 32.4603C25.2976 32.0826 25.6502 31.8166 26.0321 31.8715ZM12.6257 27.9833C13.1912 27.8237 13.9565 27.8212 14.9208 27.9744C15.4443 28.0576 15.8894 28.1607 16.2559 28.2846C16.6225 28.4084 16.9457 28.5809 17.2248 28.8025C17.567 29.08 17.8128 29.408 17.9623 29.7861C18.1117 30.1642 18.1525 30.5648 18.0853 30.9873C18.008 31.4738 17.8012 31.8892 17.465 32.2328C17.1295 32.5731 16.7032 32.802 16.187 32.9201C15.9063 32.9772 15.6021 33.0046 15.2753 33.0018C14.9458 32.9954 14.5942 32.9627 14.2208 32.9034C13.7386 32.8267 13.3082 32.7314 12.9299 32.6188C12.5519 32.5062 12.2323 32.3739 11.9719 32.221C11.5422 31.9591 11.2358 31.63 11.0533 31.2335C10.8681 30.8332 10.8154 30.3829 10.8948 29.8836C10.9471 29.5542 11.0488 29.2636 11.2 29.0122C11.3481 28.7601 11.5423 28.5497 11.7819 28.3811C12.0188 28.2087 12.3 28.0759 12.6257 27.9833ZM13.1672 29.152C12.7824 29.1631 12.4821 29.237 12.2673 29.3735C12.0493 29.5095 11.9173 29.725 11.8705 30.0194C11.8034 30.4419 11.9686 30.7702 12.3667 31.0041C12.7655 31.2348 13.4072 31.4198 14.2916 31.5604C14.8917 31.6557 15.389 31.6988 15.7833 31.6893C16.1777 31.6798 16.4874 31.6077 16.7118 31.4727C16.933 31.3373 17.0663 31.1273 17.1116 30.8426C17.1584 30.5481 17.0926 30.3011 16.9146 30.1022C16.7368 29.9034 16.4634 29.7403 16.0945 29.6128C15.7252 29.4852 15.2319 29.372 14.6156 29.2741C14.0315 29.1813 13.5487 29.1405 13.1672 29.152ZM12.9339 20.6046C13.1412 20.6377 13.3299 20.7775 13.5 21.0241L14.8627 23.0179L18.0351 21.474C18.2553 21.3648 18.446 21.2872 18.6072 21.2407C18.7652 21.1936 18.9147 21.181 19.0552 21.2033C19.2116 21.2281 19.3372 21.3123 19.4323 21.4553C19.5279 21.5952 19.5594 21.7708 19.5258 21.9821C19.4943 22.1805 19.4268 22.3352 19.324 22.4468C19.218 22.5579 19.0882 22.6456 18.9341 22.7097C18.7798 22.7738 18.6393 22.8301 18.5136 22.8791L15.6593 24.1532L16.5907 25.4971L18.042 25.7285C18.3356 25.7752 18.544 25.8766 18.6663 26.0338C18.7854 26.1905 18.8278 26.3749 18.7943 26.5861C18.7749 26.7076 18.7242 26.8191 18.6426 26.9209C18.5611 27.0226 18.4614 27.0959 18.3433 27.1395C18.2468 27.1701 18.1381 27.1811 18.0184 27.172C17.8987 27.1628 17.7269 27.1405 17.5034 27.105L12.283 26.275C11.9957 26.2293 11.7896 26.1322 11.6657 25.9845C11.5426 25.8338 11.4982 25.6496 11.5328 25.4322C11.5669 25.2177 11.6666 25.0561 11.8311 24.9477C11.993 24.8358 12.2191 24.8031 12.5095 24.8493L14.971 25.2402L12.5036 21.9782C12.3847 21.8216 12.2989 21.6916 12.2466 21.5882C12.1949 21.4817 12.1814 21.35 12.2062 21.1934C12.2388 20.9886 12.3261 20.8332 12.4672 20.7277C12.6057 20.6184 12.7614 20.5772 12.9339 20.6046ZM16.957 13.0911C16.7968 13.0911 16.6386 13.1399 16.51 13.2368C16.3475 13.355 16.2443 13.5287 16.2126 13.7291V13.735C16.1873 13.9333 16.2354 14.1338 16.3534 14.2962C16.4716 14.4587 16.6453 14.5619 16.8457 14.5936C17.257 14.6567 17.6452 14.3718 17.7043 13.9605C17.7674 13.5492 17.4825 13.161 17.0712 13.1019C17.0332 13.0914 16.995 13.0911 16.957 13.0911ZM22.5653 1.77498C19.2446 1.27075 16.1258 3.37158 15.2733 6.54246L16.3475 5.77446C17.4931 4.95186 19.0605 5.19098 19.9128 6.3091L20.5606 7.15685C20.6028 7.15052 20.6474 7.15052 20.6896 7.15685L28.1372 8.16115C28.1059 4.98355 25.7766 2.2403 22.5633 1.75923L22.5653 1.77498Z"/>
</mask>
<path fill-rule="evenodd" clip-rule="evenodd" d="M13.7373 7.06233C14.3893 2.73493 18.44 -0.256908 22.7672 0.390624C26.7317 0.983136 29.5909 4.41419 29.5255 8.35118L30.0651 8.42109C30.7507 8.51177 31.3843 8.88482 31.7999 9.44606L47.3115 30.4409L47.3006 30.4389C48.7711 32.4265 48.3495 35.2364 46.3623 36.7049L33.7111 46.0498C32.9327 46.6278 32.0109 46.93 31.0595 46.9301C30.838 46.9301 30.6119 46.9125 30.3841 46.8809C29.2005 46.7079 28.1581 46.0774 27.445 45.1155L25.1873 42.0642L24.7659 44.8831C24.5887 46.0667 23.9616 47.109 22.9995 47.8221C22.2211 48.3959 21.2993 48.6974 20.348 48.6975C20.1265 48.6975 19.9004 48.6809 19.6725 48.6492L4.11671 46.3118C1.67571 45.9447 -0.0143333 43.6534 0.352554 41.2125L4.22994 15.4C4.33127 14.7144 4.71598 14.0879 5.28347 13.6828L13.6713 7.68263C13.6882 7.47378 13.7057 7.26698 13.7373 7.06233ZM18.7864 7.14405C18.3918 6.62532 17.6686 6.51835 17.1391 6.89593L15.0331 8.40238C15.0648 9.62798 15.4427 10.8282 16.124 11.8534C16.4806 11.7058 16.8711 11.6536 17.2593 11.7126C18.4301 11.89 19.2403 12.9805 19.0631 14.1535C18.9005 15.2104 17.9825 15.978 16.9402 15.978C16.837 15.9779 16.7296 15.9741 16.6222 15.9573C16.0591 15.8708 15.5569 15.5692 15.2172 15.1095C14.8775 14.6518 14.7359 14.0839 14.8224 13.5164C14.8603 13.2507 14.9468 13.0038 15.0754 12.776C14.3581 11.7444 13.8986 10.5668 13.7255 9.3348L6.0938 14.8013C5.83655 14.9849 5.65699 15.2755 5.60839 15.594L1.731 41.4064C1.48224 43.0857 2.64194 44.6632 4.32742 44.9166L19.8842 47.255C20.7005 47.3751 21.5149 47.1744 22.1793 46.683C22.8439 46.1914 23.2767 45.474 23.4012 44.6576L24.7826 35.4437C24.8417 35.066 25.1986 34.8017 25.5762 34.8608C25.9538 34.9199 26.2172 35.2767 26.1581 35.6544L25.4896 40.1107C25.5128 40.1339 25.5447 40.1757 25.5447 40.1757L28.5744 44.2815C29.066 44.9461 29.7832 45.3789 30.5997 45.5034C31.4161 45.6236 32.2303 45.4228 32.8948 44.9313L45.5461 35.5864L45.5313 35.5894C46.8961 34.5746 47.1895 32.6402 46.1792 31.2689L30.6676 10.2741C30.4735 10.0146 30.1818 9.84075 29.8632 9.79855L21.7235 8.7017L28.1352 17.1112C28.5572 17.6683 28.7408 18.382 28.6374 19.0677L27.0591 29.5724C26.9998 29.9498 26.6439 30.209 26.2665 30.1543C25.8888 30.0952 25.6245 29.7384 25.6836 29.3607L27.2619 18.856C27.3103 18.5353 27.2236 18.2062 27.0295 17.9531L18.7864 7.14405ZM12.7429 39.6273C12.7984 39.6236 12.8676 39.628 12.9496 39.641C13.0001 39.6491 13.0551 39.6609 13.1141 39.6765C13.1701 39.6896 13.2239 39.707 13.2755 39.7277C13.3271 39.7484 13.3735 39.7722 13.4144 39.7996C13.452 39.8264 13.4777 39.8558 13.4921 39.8872C13.5209 39.9502 13.5627 40.0346 13.6172 40.1392C13.6716 40.2438 13.733 40.3585 13.8003 40.4839C13.8676 40.6093 13.9377 40.7392 14.0101 40.8738C14.0827 41.0062 14.1528 41.1335 14.2208 41.2548C14.2891 41.3742 14.3514 41.4841 14.4068 41.5827C14.4594 41.6785 14.5012 41.7515 14.5319 41.8023C14.5607 41.8443 14.5866 41.8914 14.6107 41.943C14.6351 41.9928 14.6427 42.0475 14.6333 42.1065C14.6249 42.1593 14.6004 42.2033 14.5595 42.2384C14.5187 42.2715 14.4694 42.2973 14.4118 42.3152C14.3512 42.3306 14.2862 42.3401 14.2178 42.3438C14.1465 42.345 14.079 42.341 14.016 42.331C13.9245 42.3165 13.8508 42.293 13.7944 42.2611C13.7353 42.2266 13.6892 42.1903 13.6566 42.1518C13.6211 42.1107 13.5962 42.0712 13.5827 42.0336C13.5697 41.994 13.5618 41.9625 13.5591 41.9391L12.9063 40.6768L11.8616 41.7255L11.8666 41.7264C11.8393 41.7555 11.8118 41.7831 11.7848 41.8101C11.7548 41.8367 11.7207 41.8592 11.6824 41.8761C11.6443 41.8929 11.599 41.9043 11.5466 41.9106C11.4942 41.9148 11.4267 41.9098 11.3447 41.8968C11.2786 41.8863 11.2122 41.867 11.1458 41.8377C11.0762 41.8079 11.0149 41.7738 10.9627 41.7363C10.9107 41.6989 10.8704 41.6591 10.8416 41.6171C10.8097 41.5746 10.7962 41.5336 10.8022 41.4951C10.8061 41.4706 10.8184 41.4452 10.8386 41.4192C10.8557 41.3928 10.8757 41.3678 10.8987 41.3444C10.9218 41.321 10.9469 41.2993 10.9725 41.2804C10.9983 41.2597 11.0214 41.2433 11.0424 41.2322C11.2798 40.9798 11.5156 40.7422 11.7484 40.5183C11.9812 40.2944 12.1994 40.0664 12.4042 39.836C12.4305 39.7923 12.4592 39.7553 12.4898 39.7247C12.5205 39.6942 12.5568 39.6712 12.5981 39.6548C12.6363 39.638 12.6846 39.6284 12.7429 39.6273ZM39.8678 31.6706C40.1758 31.4428 40.6127 31.5085 40.8406 31.8164C41.0685 32.1244 41.0029 32.5613 40.6949 32.7891L31.6907 39.4372C31.5662 39.53 31.4204 39.5721 31.2791 39.5721C31.0683 39.5721 30.8571 39.4758 30.7179 39.2925C30.49 38.9844 30.5555 38.5476 30.8636 38.3197L39.8678 31.6706ZM11.6155 33.6221C11.8638 33.5631 12.1145 33.5535 12.3667 33.5936C12.7625 33.6565 13.1075 33.8132 13.4016 34.0632C13.693 34.3097 13.9155 34.5507 14.0681 34.7849C14.2176 35.0187 14.4504 35.4082 14.7662 35.9537C15.0825 36.4959 15.3348 36.8741 15.5234 37.0879C15.5974 37.1785 15.6895 37.2732 15.7981 37.3725L16.1959 34.8667C16.2355 34.6172 16.3171 34.4352 16.4401 34.3202C16.5631 34.2052 16.7124 34.1614 16.8881 34.1893C17.0445 34.2141 17.1685 34.288 17.2602 34.4108C17.3525 34.5304 17.3824 34.6959 17.3489 34.907L16.7866 38.4408C16.7485 38.6808 16.6534 38.8579 16.5011 38.9715C16.3457 39.0845 16.1786 39.1269 15.9999 39.0985C15.8851 39.0803 15.7403 39.0129 15.5657 38.8967C15.3879 38.7798 15.2524 38.6609 15.1601 38.5412C14.7872 38.0457 14.4713 37.6021 14.2129 37.21C13.9512 36.8173 13.7824 36.539 13.7068 36.3761C13.5633 36.0843 13.4126 35.8369 13.2549 35.6347C13.0946 35.4289 12.9242 35.2658 12.7438 35.1453C12.5607 35.0211 12.3749 34.9439 12.1866 34.9139C11.9822 34.8815 11.7919 34.9021 11.6165 34.976C11.4384 35.0461 11.2917 35.1593 11.1754 35.3147C11.0595 35.4669 10.9854 35.642 10.9538 35.8404C10.8873 36.2597 11.0186 36.6183 11.3477 36.9166C11.3905 36.9562 11.5125 37.0314 11.7139 37.1421C11.916 37.2496 12.0672 37.3607 12.1669 37.4749C12.2671 37.586 12.3032 37.7336 12.2742 37.916C12.2487 38.0758 12.1747 38.2004 12.0527 38.2892C11.9306 38.3779 11.7786 38.4076 11.5968 38.3788C11.3765 38.3438 11.1539 38.2581 10.9302 38.1208C10.7065 37.9836 10.513 37.8014 10.3493 37.5753C10.186 37.3459 10.0691 37.0708 9.99876 36.7512C9.92585 36.4281 9.92146 36.0635 9.98596 35.6573C10.0638 35.1676 10.207 34.7617 10.4152 34.4403C10.553 34.2326 10.7245 34.0577 10.9302 33.9165C11.1359 33.7753 11.3645 33.6774 11.6155 33.6221ZM37.9882 29.1333C38.2962 28.9055 38.7331 28.9702 38.961 29.278C39.1889 29.586 39.1232 30.0229 38.8153 30.2508L29.8101 36.8999C29.6858 36.9924 29.5405 37.0347 29.3995 37.0348C29.1886 37.0348 28.9775 36.9375 28.8382 36.7542C28.6105 36.4462 28.6752 36.0093 28.983 35.7814L37.9882 29.1333ZM26.0321 31.8715C26.4095 31.9307 26.675 32.2828 26.614 32.6602H26.6101C26.5552 33.0104 26.2593 33.2598 25.9238 33.2598C25.8922 33.2598 25.8541 33.2592 25.8204 33.2529C25.443 33.1937 25.1775 32.842 25.2385 32.4603C25.2976 32.0826 25.6502 31.8166 26.0321 31.8715ZM12.6257 27.9833C13.1912 27.8237 13.9565 27.8212 14.9208 27.9744C15.4443 28.0576 15.8894 28.1607 16.2559 28.2846C16.6225 28.4084 16.9457 28.5809 17.2248 28.8025C17.567 29.08 17.8128 29.408 17.9623 29.7861C18.1117 30.1642 18.1525 30.5648 18.0853 30.9873C18.008 31.4738 17.8012 31.8892 17.465 32.2328C17.1295 32.5731 16.7032 32.802 16.187 32.9201C15.9063 32.9772 15.6021 33.0046 15.2753 33.0018C14.9458 32.9954 14.5942 32.9627 14.2208 32.9034C13.7386 32.8267 13.3082 32.7314 12.9299 32.6188C12.5519 32.5062 12.2323 32.3739 11.9719 32.221C11.5422 31.9591 11.2358 31.63 11.0533 31.2335C10.8681 30.8332 10.8154 30.3829 10.8948 29.8836C10.9471 29.5542 11.0488 29.2636 11.2 29.0122C11.3481 28.7601 11.5423 28.5497 11.7819 28.3811C12.0188 28.2087 12.3 28.0759 12.6257 27.9833ZM13.1672 29.152C12.7824 29.1631 12.4821 29.237 12.2673 29.3735C12.0493 29.5095 11.9173 29.725 11.8705 30.0194C11.8034 30.4419 11.9686 30.7702 12.3667 31.0041C12.7655 31.2348 13.4072 31.4198 14.2916 31.5604C14.8917 31.6557 15.389 31.6988 15.7833 31.6893C16.1777 31.6798 16.4874 31.6077 16.7118 31.4727C16.933 31.3373 17.0663 31.1273 17.1116 30.8426C17.1584 30.5481 17.0926 30.3011 16.9146 30.1022C16.7368 29.9034 16.4634 29.7403 16.0945 29.6128C15.7252 29.4852 15.2319 29.372 14.6156 29.2741C14.0315 29.1813 13.5487 29.1405 13.1672 29.152ZM12.9339 20.6046C13.1412 20.6377 13.3299 20.7775 13.5 21.0241L14.8627 23.0179L18.0351 21.474C18.2553 21.3648 18.446 21.2872 18.6072 21.2407C18.7652 21.1936 18.9147 21.181 19.0552 21.2033C19.2116 21.2281 19.3372 21.3123 19.4323 21.4553C19.5279 21.5952 19.5594 21.7708 19.5258 21.9821C19.4943 22.1805 19.4268 22.3352 19.324 22.4468C19.218 22.5579 19.0882 22.6456 18.9341 22.7097C18.7798 22.7738 18.6393 22.8301 18.5136 22.8791L15.6593 24.1532L16.5907 25.4971L18.042 25.7285C18.3356 25.7752 18.544 25.8766 18.6663 26.0338C18.7854 26.1905 18.8278 26.3749 18.7943 26.5861C18.7749 26.7076 18.7242 26.8191 18.6426 26.9209C18.5611 27.0226 18.4614 27.0959 18.3433 27.1395C18.2468 27.1701 18.1381 27.1811 18.0184 27.172C17.8987 27.1628 17.7269 27.1405 17.5034 27.105L12.283 26.275C11.9957 26.2293 11.7896 26.1322 11.6657 25.9845C11.5426 25.8338 11.4982 25.6496 11.5328 25.4322C11.5669 25.2177 11.6666 25.0561 11.8311 24.9477C11.993 24.8358 12.2191 24.8031 12.5095 24.8493L14.971 25.2402L12.5036 21.9782C12.3847 21.8216 12.2989 21.6916 12.2466 21.5882C12.1949 21.4817 12.1814 21.35 12.2062 21.1934C12.2388 20.9886 12.3261 20.8332 12.4672 20.7277C12.6057 20.6184 12.7614 20.5772 12.9339 20.6046ZM16.957 13.0911C16.7968 13.0911 16.6386 13.1399 16.51 13.2368C16.3475 13.355 16.2443 13.5287 16.2126 13.7291V13.735C16.1873 13.9333 16.2354 14.1338 16.3534 14.2962C16.4716 14.4587 16.6453 14.5619 16.8457 14.5936C17.257 14.6567 17.6452 14.3718 17.7043 13.9605C17.7674 13.5492 17.4825 13.161 17.0712 13.1019C17.0332 13.0914 16.995 13.0911 16.957 13.0911ZM22.5653 1.77498C19.2446 1.27075 16.1258 3.37158 15.2733 6.54246L16.3475 5.77446C17.4931 4.95186 19.0605 5.19098 19.9128 6.3091L20.5606 7.15685C20.6028 7.15052 20.6474 7.15052 20.6896 7.15685L28.1372 8.16115C28.1059 4.98355 25.7766 2.2403 22.5633 1.75923L22.5653 1.77498Z" fill="#EB0A1E"/>
<path d="M13.7373 7.06233L14.0362 7.10855L14.0364 7.10739L13.7373 7.06233ZM22.7672 0.390624L22.7224 0.689765L22.7224 0.689773L22.7672 0.390624ZM29.5255 8.35118L29.2231 8.34616L29.2186 8.61641L29.4866 8.65114L29.5255 8.35118ZM30.0651 8.42109L30.1047 8.12123L30.1039 8.12112L30.0651 8.42109ZM31.7999 9.44606L32.0432 9.26633L32.043 9.26605L31.7999 9.44606ZM47.3115 30.4409L47.2574 30.7385L48.0083 30.875L47.5547 30.2611L47.3115 30.4409ZM47.3006 30.4389L47.3547 30.1413L46.6031 30.0046L47.0575 30.6188L47.3006 30.4389ZM46.3623 36.7049L46.542 36.9482L46.5421 36.9482L46.3623 36.7049ZM33.7111 46.0498L33.5314 45.8066L33.5308 45.807L33.7111 46.0498ZM31.0595 46.9301V47.2326H31.0595L31.0595 46.9301ZM30.3841 46.8809L30.3403 47.1802L30.3425 47.1805L30.3841 46.8809ZM27.445 45.1155L27.2019 45.2954L27.202 45.2956L27.445 45.1155ZM25.1873 42.0642L25.4305 41.8842L24.9961 41.2972L24.8882 42.0194L25.1873 42.0642ZM24.7659 44.8831L25.065 44.9279L25.0651 44.9278L24.7659 44.8831ZM22.9995 47.8221L23.179 48.0656L23.1796 48.0651L22.9995 47.8221ZM20.348 48.6975V48.9999H20.348L20.348 48.6975ZM19.6725 48.6492L19.6276 48.9483L19.6309 48.9488L19.6725 48.6492ZM4.11671 46.3118L4.07173 46.6109L4.07176 46.6109L4.11671 46.3118ZM0.352554 41.2125L0.651665 41.2574L0.65167 41.2574L0.352554 41.2125ZM4.22994 15.4L4.52906 15.4449L4.52916 15.4442L4.22994 15.4ZM5.28347 13.6828L5.45919 13.929L5.45945 13.9288L5.28347 13.6828ZM13.6713 7.68263L13.8473 7.92864L13.9615 7.84695L13.9728 7.70699L13.6713 7.68263ZM18.7864 7.14405L18.5457 7.32718L18.5459 7.32747L18.7864 7.14405ZM17.1391 6.89593L16.9635 6.64966L16.9632 6.64991L17.1391 6.89593ZM15.0331 8.40238L14.8571 8.15636L14.7265 8.24975L14.7307 8.41021L15.0331 8.40238ZM16.124 11.8534L15.8721 12.0208L16.0098 12.2281L16.2397 12.1329L16.124 11.8534ZM17.2593 11.7126L17.2138 12.0117L17.214 12.0117L17.2593 11.7126ZM19.0631 14.1535L19.362 14.1994L19.3621 14.1987L19.0631 14.1535ZM16.9402 15.978L16.9402 16.2804H16.9402V15.978ZM16.6222 15.9573L16.669 15.6584L16.6681 15.6583L16.6222 15.9573ZM15.2172 15.1095L15.4604 14.9298L15.4601 14.9293L15.2172 15.1095ZM14.8224 13.5164L15.1214 13.562L15.1218 13.5592L14.8224 13.5164ZM15.0754 12.776L15.3388 12.9247L15.4322 12.7593L15.3237 12.6033L15.0754 12.776ZM13.7255 9.3348L14.025 9.29273L13.9555 8.79797L13.5494 9.08891L13.7255 9.3348ZM6.0938 14.8013L6.26947 15.0476L6.26994 15.0472L6.0938 14.8013ZM5.60839 15.594L5.30938 15.5483L5.30928 15.549L5.60839 15.594ZM1.731 41.4064L1.43189 41.3615L1.4318 41.3621L1.731 41.4064ZM4.32742 44.9166L4.37238 44.6175L4.37238 44.6175L4.32742 44.9166ZM19.8842 47.255L19.8393 47.5541L19.8402 47.5543L19.8842 47.255ZM22.1793 46.683L22.3592 46.9261L22.3592 46.9261L22.1793 46.683ZM23.4012 44.6576L23.7003 44.7032L23.7004 44.7025L23.4012 44.6576ZM24.7826 35.4437L24.4838 35.3969L24.4835 35.3988L24.7826 35.4437ZM25.5762 34.8608L25.623 34.5619L25.623 34.5619L25.5762 34.8608ZM26.1581 35.6544L25.8593 35.6076L25.859 35.6095L26.1581 35.6544ZM25.4896 40.1107L25.1905 40.0658L25.1679 40.2165L25.2755 40.3244L25.4896 40.1107ZM25.5447 40.1757L25.7882 39.9961L25.785 39.9919L25.5447 40.1757ZM28.5744 44.2815L28.331 44.4611L28.3312 44.4614L28.5744 44.2815ZM30.5997 45.5034L30.5541 45.8024L30.5557 45.8026L30.5997 45.5034ZM32.8948 44.9313L32.7151 44.688L32.715 44.6881L32.8948 44.9313ZM45.5461 35.5864L45.7258 35.8297L45.4867 35.2898L45.5461 35.5864ZM45.5313 35.5894L45.3508 35.3466L45.5906 35.886L45.5313 35.5894ZM46.1792 31.2689L46.4227 31.0895L46.4224 31.0892L46.1792 31.2689ZM30.6676 10.2741L30.9109 10.0944L30.9099 10.0929L30.6676 10.2741ZM29.8632 9.79855L29.8228 10.0983L29.8235 10.0984L29.8632 9.79855ZM21.7235 8.7017L21.7639 8.40194L21.0402 8.30442L21.4829 8.88509L21.7235 8.7017ZM28.1352 17.1112L28.3763 16.9286L28.3758 16.9278L28.1352 17.1112ZM28.6374 19.0677L28.3383 19.0226L28.3383 19.0227L28.6374 19.0677ZM27.0591 29.5724L27.3579 29.6193L27.3582 29.6174L27.0591 29.5724ZM26.2665 30.1543L26.2197 30.4532L26.2231 30.4537L26.2665 30.1543ZM25.6836 29.3607L25.9824 29.4075L25.9827 29.4057L25.6836 29.3607ZM27.2619 18.856L26.9628 18.8108L26.9628 18.811L27.2619 18.856ZM27.0295 17.9531L26.789 18.1365L26.7895 18.1371L27.0295 17.9531ZM12.7429 39.6273L12.749 39.93L12.7629 39.9291L12.7429 39.6273ZM12.9496 39.641L12.9971 39.3423L12.9971 39.3423L12.9496 39.641ZM13.1141 39.6765L13.0365 39.969L13.0453 39.971L13.1141 39.6765ZM13.2755 39.7277L13.3882 39.447L13.3882 39.447L13.2755 39.7277ZM13.4144 39.7996L13.5898 39.553L13.5825 39.5482L13.4144 39.7996ZM13.4921 39.8872L13.7673 39.7615L13.7671 39.7611L13.4921 39.8872ZM13.6172 40.1392L13.3489 40.2789L13.3489 40.279L13.6172 40.1392ZM13.8003 40.4839L13.5338 40.6269V40.6269L13.8003 40.4839ZM14.0101 40.8738L13.7436 41.017L13.7448 41.0192L14.0101 40.8738ZM14.2208 41.2548L13.9568 41.4026L13.9582 41.4051L14.2208 41.2548ZM14.4068 41.5827L14.6721 41.4373L14.6704 41.4343L14.4068 41.5827ZM14.5319 41.8023L14.2731 41.9588L14.2775 41.9661L14.2823 41.9732L14.5319 41.8023ZM14.6107 41.943L14.3364 42.0707L14.3391 42.0762L14.6107 41.943ZM14.6333 42.1065L14.932 42.154L14.932 42.1539L14.6333 42.1065ZM14.5595 42.2384L14.7502 42.4733L14.7564 42.468L14.5595 42.2384ZM14.4118 42.3152L14.4862 42.6084L14.494 42.6064L14.5017 42.604L14.4118 42.3152ZM14.2178 42.3438L14.2228 42.6464L14.2343 42.6458L14.2178 42.3438ZM14.016 42.331L13.9685 42.6297L13.9685 42.6297L14.016 42.331ZM13.7944 42.2611L13.6423 42.5225L13.6454 42.5243L13.7944 42.2611ZM13.6566 42.1518L13.8874 41.9563L13.8855 41.9541L13.6566 42.1518ZM13.5827 42.0336L13.2954 42.1285L13.2979 42.1353L13.5827 42.0336ZM13.5591 41.9391L13.8595 41.9038L13.8531 41.8491L13.8278 41.8002L13.5591 41.9391ZM12.9063 40.6768L13.175 40.5379L12.9846 40.1697L12.692 40.4634L12.9063 40.6768ZM11.8616 41.7255L11.6474 41.512L11.2494 41.9115L11.8023 42.022L11.8616 41.7255ZM11.8666 41.7264L12.0872 41.9333L12.4593 41.5365L11.9259 41.4298L11.8666 41.7264ZM11.7848 41.8101L11.9849 42.037L11.9922 42.0305L11.9991 42.0236L11.7848 41.8101ZM11.6824 41.8761L11.8042 42.153L11.8046 42.1528L11.6824 41.8761ZM11.5466 41.9106L11.5707 42.2123L11.5822 42.2109L11.5466 41.9106ZM11.3447 41.8968L11.2972 42.1955H11.2973L11.3447 41.8968ZM11.1458 41.8377L11.2679 41.5609L11.265 41.5597L11.1458 41.8377ZM10.9627 41.7363L10.7862 41.9819L10.7862 41.982L10.9627 41.7363ZM10.8416 41.6171L11.0911 41.4457L11.0835 41.4356L10.8416 41.6171ZM10.8022 41.4951L10.5035 41.4476L10.5033 41.4484L10.8022 41.4951ZM10.8386 41.4192L11.0771 41.6053L11.0853 41.5948L11.0926 41.5836L10.8386 41.4192ZM10.8987 41.3444L10.6833 41.132L10.6831 41.1322L10.8987 41.3444ZM10.9725 41.2804L11.1521 41.5242L11.1622 41.516L10.9725 41.2804ZM11.0424 41.2322L11.1845 41.4992L11.2286 41.4758L11.2628 41.4394L11.0424 41.2322ZM11.7484 40.5183L11.5387 40.3003V40.3003L11.7484 40.5183ZM12.4042 39.836L12.6303 40.0369L12.6488 40.016L12.6633 39.992L12.4042 39.836ZM12.4898 39.7247L12.2764 39.5104L12.2763 39.5104L12.4898 39.7247ZM12.5981 39.6548L12.7097 39.9362L12.7202 39.9315L12.5981 39.6548ZM39.8678 31.6706L40.0475 31.914L40.0477 31.9138L39.8678 31.6706ZM40.8406 31.8164L41.0838 31.6365L41.0837 31.6364L40.8406 31.8164ZM40.6949 32.7891L40.8746 33.0325L40.8748 33.0323L40.6949 32.7891ZM31.6907 39.4372L31.511 39.1939L31.5098 39.1948L31.6907 39.4372ZM31.2791 39.5721V39.8746H31.2792L31.2791 39.5721ZM30.7179 39.2925L30.4747 39.4724L30.477 39.4755L30.7179 39.2925ZM30.8636 38.3197L30.6839 38.0764L30.6837 38.0765L30.8636 38.3197ZM11.6155 33.6221L11.6806 33.9176L11.6854 33.9164L11.6155 33.6221ZM12.3667 33.5936L12.4142 33.2949L12.4142 33.2948L12.3667 33.5936ZM13.4016 34.0632L13.2056 34.2937L13.2063 34.2942L13.4016 34.0632ZM14.0681 34.7849L14.323 34.622L14.3216 34.6198L14.0681 34.7849ZM14.7662 35.9537L14.5045 36.1052L14.505 36.1061L14.7662 35.9537ZM15.5234 37.0879L15.7577 36.8964L15.7502 36.8878L15.5234 37.0879ZM15.7981 37.3725L15.594 37.5957L16.0087 37.9749L16.0968 37.4199L15.7981 37.3725ZM16.1959 34.8667L15.8972 34.8192L15.8971 34.8192L16.1959 34.8667ZM16.4401 34.3202L16.2335 34.0992L16.2334 34.0993L16.4401 34.3202ZM16.8881 34.1893L16.9356 33.8905L16.9355 33.8905L16.8881 34.1893ZM17.2602 34.4108L17.0179 34.5919L17.0207 34.5955L17.2602 34.4108ZM17.3489 34.907L17.6476 34.9546L17.6476 34.9545L17.3489 34.907ZM16.7866 38.4408L16.4879 38.3933L16.4879 38.3933L16.7866 38.4408ZM16.5011 38.9715L16.679 39.2162L16.682 39.2139L16.5011 38.9715ZM15.9999 39.0985L15.9525 39.3972L15.9525 39.3972L15.9999 39.0985ZM15.5657 38.8967L15.7334 38.6449L15.7318 38.6439L15.5657 38.8967ZM15.1601 38.5412L14.9184 38.7231L14.9206 38.7259L15.1601 38.5412ZM14.2129 37.21L14.4654 37.0436L14.4646 37.0423L14.2129 37.21ZM13.7068 36.3761L13.9812 36.2488L13.9782 36.2426L13.7068 36.3761ZM13.2549 35.6347L13.0163 35.8206L13.0163 35.8207L13.2549 35.6347ZM12.7438 35.1453L12.5741 35.3956L12.5758 35.3968L12.7438 35.1453ZM12.1866 34.9139L12.2341 34.6152L12.234 34.6152L12.1866 34.9139ZM11.6165 34.976L11.7274 35.2575L11.7338 35.2547L11.6165 34.976ZM11.1754 35.3147L11.4161 35.4979L11.4175 35.4959L11.1754 35.3147ZM10.9538 35.8404L10.6551 35.793L10.6551 35.793L10.9538 35.8404ZM11.3477 36.9166L11.5531 36.6946L11.5509 36.6926L11.3477 36.9166ZM11.7139 37.1421L11.5683 37.4072L11.5719 37.4091L11.7139 37.1421ZM12.1669 37.4749L11.939 37.6739L11.9423 37.6775L12.1669 37.4749ZM12.2742 37.916L12.5729 37.9636L12.5729 37.9635L12.2742 37.916ZM12.0527 38.2892L12.2305 38.5338L12.2306 38.5338L12.0527 38.2892ZM11.5968 38.3788L11.5493 38.6775L11.5494 38.6775L11.5968 38.3788ZM10.9302 38.1208L10.772 38.3786L10.772 38.3786L10.9302 38.1208ZM10.3493 37.5753L10.1028 37.7507L10.1043 37.7527L10.3493 37.5753ZM9.99876 36.7512L10.2942 36.6862L10.2938 36.6846L9.99876 36.7512ZM9.98596 35.6573L9.68723 35.6098L9.68723 35.6099L9.98596 35.6573ZM10.4152 34.4403L10.1632 34.2732L10.1614 34.2759L10.4152 34.4403ZM10.9302 33.9165L10.759 33.6671H10.759L10.9302 33.9165ZM37.9882 29.1333L38.1679 29.3766L38.1681 29.3765L37.9882 29.1333ZM38.961 29.278L39.2042 29.0981L39.2041 29.098L38.961 29.278ZM38.8153 30.2508L38.9949 30.4942L38.9952 30.494L38.8153 30.2508ZM29.8101 36.8999L29.6304 36.6566L29.6294 36.6573L29.8101 36.8999ZM29.3995 37.0348V37.3372H29.3997L29.3995 37.0348ZM28.8382 36.7542L28.5951 36.9341L28.5974 36.9372L28.8382 36.7542ZM28.983 35.7814L28.8033 35.538L28.803 35.5383L28.983 35.7814ZM26.0321 31.8715L26.079 31.5727L26.0751 31.5721L26.0321 31.8715ZM26.614 32.6602V32.9626H26.8715L26.9126 32.7084L26.614 32.6602ZM26.6101 32.6602V32.3577H26.3513L26.3112 32.6134L26.6101 32.6602ZM25.9238 33.2598V33.5623V33.5623V33.2598ZM25.8204 33.2529L25.8762 32.9555L25.8673 32.9541L25.8204 33.2529ZM25.2385 32.4603L25.5372 32.508L25.5374 32.507L25.2385 32.4603ZM12.6257 27.9833L12.5436 27.6922L12.5429 27.6923L12.6257 27.9833ZM14.9208 27.9744L14.9683 27.6757H14.9683L14.9208 27.9744ZM16.2559 28.2846L16.3528 27.998L16.3528 27.998L16.2559 28.2846ZM17.2248 28.8025L17.4153 28.5675L17.4129 28.5656L17.2248 28.8025ZM17.9623 29.7861L18.2436 29.6749L18.2436 29.6749L17.9623 29.7861ZM18.0853 30.9873L18.3841 31.0348L18.3841 31.0348L18.0853 30.9873ZM17.465 32.2328L17.6804 32.4453L17.6813 32.4444L17.465 32.2328ZM16.187 32.9201L16.2473 33.2166L16.2545 33.215L16.187 32.9201ZM15.2753 33.0018L15.2693 33.3043L15.2727 33.3043L15.2753 33.0018ZM14.2208 32.9034L14.1733 33.2021H14.1733L14.2208 32.9034ZM12.9299 32.6188L12.8436 32.9087L12.8436 32.9087L12.9299 32.6188ZM11.9719 32.221L11.8145 32.4794L11.8188 32.4819L11.9719 32.221ZM11.0533 31.2335L11.328 31.107L11.3278 31.1064L11.0533 31.2335ZM10.8948 29.8836L10.596 29.8361L10.596 29.8361L10.8948 29.8836ZM11.2 29.0122L11.4592 29.168L11.4608 29.1654L11.2 29.0122ZM11.7819 28.3811L11.956 28.6284L11.9598 28.6256L11.7819 28.3811ZM13.1672 29.152L13.1759 29.4544L13.1764 29.4543L13.1672 29.152ZM12.2673 29.3735L12.4274 29.6302L12.4295 29.6288L12.2673 29.3735ZM11.8705 30.0194L11.5718 29.972L11.5718 29.972L11.8705 30.0194ZM12.3667 31.0041L12.2135 31.2649L12.2153 31.2659L12.3667 31.0041ZM14.2916 31.5604L14.2442 31.8591L14.2442 31.8591L14.2916 31.5604ZM15.7833 31.6893L15.7906 31.9917H15.7906L15.7833 31.6893ZM16.7118 31.4727L16.8677 31.732L16.8698 31.7307L16.7118 31.4727ZM17.1116 30.8426L17.4103 30.8901L17.4103 30.89L17.1116 30.8426ZM16.9146 30.1022L17.1401 29.9005L17.14 29.9004L16.9146 30.1022ZM16.0945 29.6128L16.1933 29.3269L16.1932 29.3269L16.0945 29.6128ZM14.6156 29.2741L14.6631 28.9754L14.663 28.9754L14.6156 29.2741ZM12.9339 20.6046L12.9815 20.3059L12.9813 20.3059L12.9339 20.6046ZM13.5 21.0241L13.7497 20.8534L13.749 20.8523L13.5 21.0241ZM14.8627 23.0179L14.613 23.1886L14.7603 23.4041L14.9951 23.2899L14.8627 23.0179ZM18.0351 21.474L18.1675 21.746L18.1696 21.745L18.0351 21.474ZM18.6072 21.2407L18.6912 21.5313L18.6935 21.5306L18.6072 21.2407ZM19.0552 21.2033L19.1027 20.9045L19.1026 20.9045L19.0552 21.2033ZM19.4323 21.4553L19.1804 21.6228L19.1826 21.626L19.4323 21.4553ZM19.5258 21.9821L19.8245 22.0296L19.8245 22.0296L19.5258 21.9821ZM19.324 22.4468L19.5428 22.6557L19.5464 22.6518L19.324 22.4468ZM18.9341 22.7097L19.0501 22.989L19.0502 22.989L18.9341 22.7097ZM18.5136 22.8791L18.4038 22.5972L18.397 22.5999L18.3904 22.6029L18.5136 22.8791ZM15.6593 24.1532L15.536 23.8769L15.2029 24.0256L15.4107 24.3254L15.6593 24.1532ZM16.5907 25.4971L16.3421 25.6694L16.4156 25.7755L16.5431 25.7958L16.5907 25.4971ZM18.042 25.7285L17.9944 26.0272L17.9945 26.0272L18.042 25.7285ZM18.6663 26.0338L18.9071 25.8507L18.905 25.848L18.6663 26.0338ZM18.7943 26.5861L19.093 26.6336V26.6336L18.7943 26.5861ZM18.6426 26.9209L18.8786 27.1101L18.8787 27.11L18.6426 26.9209ZM18.3433 27.1395L18.4348 27.4281L18.4481 27.4232L18.3433 27.1395ZM18.0184 27.172L17.9953 27.4735L17.9953 27.4735L18.0184 27.172ZM17.5034 27.105L17.4559 27.4037L17.456 27.4037L17.5034 27.105ZM12.283 26.275L12.3305 25.9763L12.3305 25.9763L12.283 26.275ZM11.6657 25.9845L11.4313 26.1758L11.434 26.1789L11.6657 25.9845ZM11.5328 25.4322L11.2341 25.3847L11.2341 25.3847L11.5328 25.4322ZM11.8311 24.9477L11.9975 25.2004L12.0032 25.1965L11.8311 24.9477ZM12.5095 24.8493L12.462 25.148L12.4621 25.148L12.5095 24.8493ZM14.971 25.2402L14.9236 25.5389L15.6653 25.6567L15.2123 25.0577L14.971 25.2402ZM12.5036 21.9782L12.7448 21.7957L12.7444 21.7952L12.5036 21.9782ZM12.2466 21.5882L11.9745 21.7203L11.9767 21.7247L12.2466 21.5882ZM12.2062 21.1934L11.9075 21.146L11.9075 21.1461L12.2062 21.1934ZM12.4672 20.7277L12.6484 20.97L12.6545 20.9652L12.4672 20.7277ZM16.957 13.0911V12.7886H16.9569L16.957 13.0911ZM16.51 13.2368L16.6879 13.4815L16.692 13.4784L16.51 13.2368ZM16.2126 13.7291L15.9138 13.6819L15.9101 13.7054V13.7291H16.2126ZM16.2126 13.735L16.5127 13.7733L16.5151 13.7542V13.735H16.2126ZM16.3534 14.2962L16.1087 14.4741L16.1088 14.4741L16.3534 14.2962ZM16.8457 14.5936L16.7985 14.8924L16.7998 14.8926L16.8457 14.5936ZM17.7043 13.9605L17.4053 13.9146L17.4049 13.9175L17.7043 13.9605ZM17.0712 13.1019L16.9903 13.3934L17.009 13.3986L17.0282 13.4013L17.0712 13.1019ZM22.5653 1.77498L22.5199 2.07403L22.915 2.13402L22.8654 1.73747L22.5653 1.77498ZM15.2733 6.54246L14.9812 6.46392L14.7618 7.27997L15.4492 6.78851L15.2733 6.54246ZM16.3475 5.77446L16.5234 6.02052L16.5239 6.02016L16.3475 5.77446ZM19.9128 6.3091L19.6722 6.49247L19.6724 6.49277L19.9128 6.3091ZM20.5606 7.15685L20.3203 7.34051L20.4288 7.48248L20.6055 7.45598L20.5606 7.15685ZM20.6896 7.15685L20.6448 7.45601L20.6492 7.45661L20.6896 7.15685ZM28.1372 8.16115L28.0968 8.46091L28.4431 8.50761L28.4397 8.15817L28.1372 8.16115ZM22.5633 1.75923L22.6081 1.46009L22.2137 1.40105L22.2632 1.79675L22.5633 1.75923ZM13.7373 7.06233L14.0364 7.10739C14.6635 2.94511 18.5603 0.0669309 22.7224 0.689765L22.7672 0.390624L22.8119 0.0914836C18.3197 -0.580747 14.1151 2.52475 13.4382 7.01727L13.7373 7.06233ZM22.7672 0.390624L22.7224 0.689773C26.536 1.25972 29.286 4.5599 29.2231 8.34616L29.5255 8.35118L29.8279 8.3562C29.8958 4.26849 26.9274 0.706548 22.8119 0.0914753L22.7672 0.390624ZM29.5255 8.35118L29.4866 8.65114L30.0262 8.72105L30.0651 8.42109L30.1039 8.12112L29.5644 8.05122L29.5255 8.35118ZM30.0651 8.42109L30.0254 8.72095C30.6295 8.80084 31.1898 9.13041 31.5569 9.62608L31.7999 9.44606L32.043 9.26605C31.5788 8.63924 30.872 8.2227 30.1047 8.12123L30.0651 8.42109ZM31.7999 9.44606L31.5567 9.6258L47.0682 30.6206L47.3115 30.4409L47.5547 30.2611L32.0432 9.26633L31.7999 9.44606ZM47.3115 30.4409L47.3656 30.1433L47.3547 30.1413L47.3006 30.4389L47.2465 30.7365L47.2574 30.7385L47.3115 30.4409ZM47.3006 30.4389L47.0575 30.6188C48.4285 32.472 48.0353 35.0924 46.1825 36.4617L46.3623 36.7049L46.5421 36.9482C48.6637 35.3803 49.1136 32.3809 47.5438 30.259L47.3006 30.4389ZM46.3623 36.7049L46.1826 36.4616L33.5314 45.8066L33.7111 46.0498L33.8908 46.2931L46.542 36.9482L46.3623 36.7049ZM33.7111 46.0498L33.5308 45.807C32.8044 46.3463 31.9458 46.6276 31.0595 46.6276L31.0595 46.9301L31.0595 47.2326C32.0759 47.2325 33.0609 46.9093 33.8914 46.2927L33.7111 46.0498ZM31.0595 46.9301V46.6276C30.8538 46.6276 30.6418 46.6113 30.4257 46.5813L30.3841 46.8809L30.3425 47.1805C30.5821 47.2137 30.8221 47.2326 31.0595 47.2326V46.9301ZM30.3841 46.8809L30.4278 46.5816C29.3251 46.4204 28.3539 45.8336 27.688 44.9353L27.445 45.1155L27.202 45.2956C27.9624 46.3213 29.076 46.9953 30.3403 47.1801L30.3841 46.8809ZM27.445 45.1155L27.6882 44.9355L25.4305 41.8842L25.1873 42.0642L24.9442 42.2441L27.2019 45.2954L27.445 45.1155ZM25.1873 42.0642L24.8882 42.0194L24.4668 44.8384L24.7659 44.8831L25.0651 44.9278L25.4865 42.1089L25.1873 42.0642ZM24.7659 44.8831L24.4668 44.8383C24.3015 45.9425 23.7173 46.9136 22.8194 47.5791L22.9995 47.8221L23.1796 48.0651C24.2059 47.3045 24.8759 46.1909 25.065 44.9279L24.7659 44.8831ZM22.9995 47.8221L22.8201 47.5787C22.0935 48.1142 21.2345 48.3949 20.3479 48.395L20.348 48.6975L20.348 48.9999C21.3641 48.9998 22.3488 48.6776 23.179 48.0656L22.9995 47.8221ZM20.348 48.6975V48.395C20.1415 48.395 19.9293 48.3795 19.7141 48.3496L19.6725 48.6492L19.6309 48.9488C19.8714 48.9822 20.1114 48.9999 20.348 48.9999V48.6975ZM19.6725 48.6492L19.7175 48.3501L4.16166 46.0126L4.11671 46.3118L4.07176 46.6109L19.6276 48.9483L19.6725 48.6492ZM4.11671 46.3118L4.16169 46.0126C1.8861 45.6704 0.309573 43.5334 0.651665 41.2574L0.352554 41.2125L0.0534421 41.1675C-0.33824 43.7734 1.46532 46.2189 4.07173 46.6109L4.11671 46.3118ZM0.352554 41.2125L0.65167 41.2574L4.52906 15.4449L4.22994 15.4L3.93082 15.3551L0.053438 41.1675L0.352554 41.2125ZM4.22994 15.4L4.52916 15.4442C4.61837 14.8406 4.95803 14.2867 5.45919 13.929L5.28347 13.6828L5.10775 13.4366C4.47393 13.889 4.04416 14.5882 3.93072 15.3558L4.22994 15.4ZM5.28347 13.6828L5.45945 13.9288L13.8473 7.92864L13.6713 7.68263L13.4954 7.43662L5.10749 13.4368L5.28347 13.6828ZM13.6713 7.68263L13.9728 7.70699C13.9898 7.49731 14.0065 7.30086 14.0362 7.10855L13.7373 7.06233L13.4384 7.0161C13.4048 7.2331 13.3867 7.45025 13.3699 7.65827L13.6713 7.68263ZM18.7864 7.14405L19.0271 6.96092C18.533 6.31132 17.6252 6.17779 16.9635 6.64966L17.1391 6.89593L17.3148 7.14219C17.712 6.85891 18.2506 6.93931 18.5457 7.32718L18.7864 7.14405ZM17.1391 6.89593L16.9632 6.64991L14.8571 8.15636L15.0331 8.40238L15.209 8.64839L17.3151 7.14194L17.1391 6.89593ZM15.0331 8.40238L14.7307 8.41021C14.7639 9.69255 15.1592 10.9481 15.8721 12.0208L16.124 11.8534L16.3759 11.686C15.7262 10.7083 15.3657 9.56341 15.3354 8.39455L15.0331 8.40238ZM16.124 11.8534L16.2397 12.1329C16.5473 12.0055 16.8822 11.9612 17.2138 12.0117L17.2593 11.7126L17.3048 11.4136C16.86 11.3459 16.4138 11.406 16.0083 11.574L16.124 11.8534ZM17.2593 11.7126L17.214 12.0117C18.2207 12.1642 18.9161 13.1015 18.764 14.1083L19.0631 14.1535L19.3621 14.1987C19.5645 12.8594 18.6394 11.6157 17.3046 11.4136L17.2593 11.7126ZM19.0631 14.1535L18.7641 14.1075C18.6245 15.0152 17.8349 15.6755 16.9402 15.6755V15.978V16.2804C18.13 16.2804 19.1765 15.4056 19.362 14.1994L19.0631 14.1535ZM16.9402 15.978L16.9403 15.6755C16.8435 15.6755 16.754 15.6717 16.669 15.6584L16.6222 15.9573L16.5754 16.2561C16.7053 16.2764 16.8306 16.2804 16.9402 16.2804L16.9402 15.978ZM16.6222 15.9573L16.6681 15.6583C16.1835 15.5839 15.7524 15.3248 15.4604 14.9298L15.2172 15.1095L14.9739 15.2893C15.3613 15.8135 15.9347 16.1578 16.5763 16.2562L16.6222 15.9573ZM15.2172 15.1095L15.4601 14.9293C15.1686 14.5364 15.0471 14.0498 15.1214 13.562L14.8224 13.5164L14.5233 13.4709C14.4248 14.118 14.5865 14.7672 14.9743 15.2898L15.2172 15.1095ZM14.8224 13.5164L15.1218 13.5592C15.1542 13.332 15.228 13.1209 15.3388 12.9247L15.0754 12.776L14.812 12.6273C14.6656 12.8867 14.5664 13.1694 14.5229 13.4737L14.8224 13.5164ZM15.0754 12.776L15.3237 12.6033C14.6336 11.6107 14.1915 10.4778 14.025 9.29273L13.7255 9.3348L13.426 9.37688C13.6056 10.6557 14.0827 11.8781 14.8271 12.9487L15.0754 12.776ZM13.7255 9.3348L13.5494 9.08891L5.91767 14.5554L6.0938 14.8013L6.26994 15.0472L13.9016 9.5807L13.7255 9.3348ZM6.0938 14.8013L5.91814 14.5551C5.59409 14.7863 5.37026 15.1495 5.30938 15.5483L5.60839 15.594L5.9074 15.6396C5.94372 15.4016 6.079 15.1835 6.26947 15.0476L6.0938 14.8013ZM5.60839 15.594L5.30928 15.549L1.43189 41.3615L1.731 41.4064L2.03012 41.4514L5.90751 15.6389L5.60839 15.594ZM1.731 41.4064L1.4318 41.3621C1.1587 43.2056 2.43129 44.9374 4.28246 45.2157L4.32742 44.9166L4.37238 44.6175C2.85258 44.389 1.80578 42.9657 2.03021 41.4508L1.731 41.4064ZM4.32742 44.9166L4.28245 45.2157L19.8393 47.5541L19.8842 47.255L19.9292 46.9559L4.37238 44.6175L4.32742 44.9166ZM19.8842 47.255L19.8402 47.5543C20.7348 47.6858 21.6298 47.4656 22.3592 46.9261L22.1793 46.683L21.9995 46.4398C21.3999 46.8832 20.6662 47.0643 19.9282 46.9558L19.8842 47.255ZM22.1793 46.683L22.3592 46.9261C23.088 46.3871 23.5637 45.5987 23.7003 44.7032L23.4012 44.6576L23.1022 44.612C22.9898 45.3493 22.5999 45.9957 21.9995 46.4398L22.1793 46.683ZM23.4012 44.6576L23.7004 44.7025L25.0818 35.4885L24.7826 35.4437L24.4835 35.3988L23.1021 44.6128L23.4012 44.6576ZM24.7826 35.4437L25.0815 35.4904C25.1151 35.2752 25.3194 35.1267 25.5295 35.1596L25.5762 34.8608L25.623 34.5619C25.0777 34.4766 24.5683 34.8568 24.4838 35.3969L24.7826 35.4437ZM25.5762 34.8608L25.5295 35.1596C25.744 35.1932 25.8922 35.397 25.8593 35.6076L26.1581 35.6544L26.457 35.7011C26.5421 35.1565 26.1637 34.6466 25.623 34.5619L25.5762 34.8608ZM26.1581 35.6544L25.859 35.6095L25.1905 40.0658L25.4896 40.1107L25.7887 40.1556L26.4573 35.6992L26.1581 35.6544ZM25.4896 40.1107L25.2755 40.3244C25.2746 40.3235 25.276 40.3249 25.2799 40.3293C25.2835 40.3334 25.2874 40.3381 25.2915 40.3431C25.2955 40.348 25.299 40.3524 25.3014 40.3555C25.3027 40.3571 25.3036 40.3583 25.3041 40.359C25.3044 40.3593 25.3046 40.3595 25.3046 40.3596C25.3047 40.3597 25.3047 40.3597 25.3047 40.3597C25.3046 40.3596 25.3046 40.3596 25.3046 40.3596C25.3046 40.3596 25.3046 40.3596 25.3046 40.3595C25.3045 40.3595 25.3045 40.3595 25.3045 40.3595C25.3045 40.3595 25.3045 40.3595 25.3045 40.3595C25.3045 40.3595 25.3045 40.3595 25.5447 40.1757C25.785 39.9919 25.785 39.9919 25.7849 39.9919C25.7849 39.9919 25.7849 39.9919 25.7849 39.9918C25.7849 39.9918 25.7849 39.9918 25.7849 39.9918C25.7849 39.9918 25.7848 39.9917 25.7848 39.9917C25.7848 39.9916 25.7847 39.9915 25.7846 39.9915C25.7845 39.9913 25.7843 39.991 25.7841 39.9908C25.7837 39.9902 25.7832 39.9895 25.7825 39.9887C25.7812 39.987 25.7795 39.9848 25.7773 39.982C25.7731 39.9766 25.7671 39.9692 25.7602 39.9607C25.7483 39.9461 25.7266 39.9199 25.7036 39.897L25.4896 40.1107ZM25.5447 40.1757L25.3013 40.3553L28.331 44.4611L28.5744 44.2815L28.8178 44.1019L25.7881 39.9961L25.5447 40.1757ZM28.5744 44.2815L28.3312 44.4614C28.8703 45.1902 29.6585 45.6659 30.5541 45.8024L30.5997 45.5034L30.6453 45.2044C29.9079 45.092 29.2617 44.7021 28.8175 44.1016L28.5744 44.2815ZM30.5997 45.5034L30.5557 45.8026C31.4504 45.9344 32.3452 45.714 33.0747 45.1745L32.8948 44.9313L32.715 44.6881C32.1153 45.1317 31.3818 45.3128 30.6438 45.2041L30.5997 45.5034ZM32.8948 44.9313L33.0745 45.1746L45.7258 35.8297L45.5461 35.5864L45.3663 35.3431L32.7151 44.688L32.8948 44.9313ZM45.5461 35.5864L45.4867 35.2898L45.472 35.2928L45.5313 35.5894L45.5906 35.886L45.6054 35.883L45.5461 35.5864ZM45.5313 35.5894L45.7118 35.8321C47.2097 34.7183 47.5321 32.5954 46.4227 31.0895L46.1792 31.2689L45.9356 31.4483C46.8468 32.6851 46.5825 34.4308 45.3508 35.3466L45.5313 35.5894ZM46.1792 31.2689L46.4224 31.0892L30.9109 10.0944L30.6676 10.2741L30.4244 10.4539L45.9359 31.4487L46.1792 31.2689ZM30.6676 10.2741L30.9099 10.0929C30.6682 9.7699 30.3043 9.55186 29.9029 9.4987L29.8632 9.79855L29.8235 10.0984C30.0593 10.1296 30.2788 10.2593 30.4254 10.4553L30.6676 10.2741ZM29.8632 9.79855L29.9036 9.49879L21.7639 8.40194L21.7235 8.7017L21.6831 9.00146L29.8228 10.0983L29.8632 9.79855ZM21.7235 8.7017L21.4829 8.88509L27.8947 17.2946L28.1352 17.1112L28.3758 16.9278L21.964 8.51831L21.7235 8.7017ZM28.1352 17.1112L27.8941 17.2939C28.2674 17.7866 28.4294 18.4184 28.3383 19.0226L28.6374 19.0677L28.9365 19.1127C29.0522 18.3456 28.847 17.5499 28.3763 16.9286L28.1352 17.1112ZM28.6374 19.0677L28.3383 19.0227L26.7599 29.5275L27.0591 29.5724L27.3582 29.6174L28.9365 19.1126L28.6374 19.0677ZM27.0591 29.5724L26.7602 29.5255C26.727 29.7372 26.5253 29.8862 26.3098 29.855L26.2665 30.1543L26.2231 30.4537C26.7625 30.5318 27.2726 30.1623 27.3579 29.6193L27.0591 29.5724ZM26.2665 30.1543L26.3132 29.8555C26.098 29.8218 25.9495 29.6176 25.9824 29.4075L25.6836 29.3607L25.3847 29.314C25.2994 29.8593 25.6796 30.3687 26.2197 30.4532L26.2665 30.1543ZM25.6836 29.3607L25.9827 29.4057L27.561 18.9009L27.2619 18.856L26.9628 18.811L25.3844 29.3158L25.6836 29.3607ZM27.2619 18.856L27.561 18.9011C27.6217 18.4987 27.5132 18.0869 27.2696 17.769L27.0295 17.9531L26.7895 18.1371C26.9339 18.3255 26.9989 18.572 26.9628 18.8108L27.2619 18.856ZM27.0295 17.9531L27.27 17.7697L19.0269 6.96063L18.7864 7.14405L18.5459 7.32747L26.789 18.1365L27.0295 17.9531ZM12.7429 39.6273L12.7629 39.9291C12.7884 39.9274 12.8336 39.9289 12.9022 39.9398L12.9496 39.641L12.9971 39.3423C12.9017 39.3271 12.8084 39.3198 12.7228 39.3254L12.7429 39.6273ZM12.9496 39.641L12.9022 39.9398C12.9411 39.9459 12.986 39.9555 13.0365 39.9689L13.1141 39.6765L13.1916 39.3841C13.1242 39.3663 13.0591 39.3522 12.9971 39.3423L12.9496 39.641ZM13.1141 39.6765L13.0453 39.971C13.0852 39.9804 13.1244 39.993 13.1629 40.0084L13.2755 39.7277L13.3882 39.447C13.3235 39.421 13.255 39.3988 13.1828 39.3819L13.1141 39.6765ZM13.2755 39.7277L13.1628 40.0084C13.1984 40.0227 13.2256 40.0372 13.2462 40.051L13.4144 39.7996L13.5825 39.5482C13.5214 39.5073 13.4559 39.4741 13.3882 39.447L13.2755 39.7277ZM13.4144 39.7996L13.239 40.046C13.2454 40.0506 13.2302 40.0417 13.2172 40.0133L13.4921 39.8872L13.7671 39.7611C13.7252 39.6698 13.6587 39.6022 13.5897 39.5531L13.4144 39.7996ZM13.4921 39.8872L13.217 40.0129C13.2489 40.0826 13.2932 40.172 13.3489 40.2789L13.6172 40.1392L13.8855 39.9995C13.8321 39.8971 13.793 39.8178 13.7673 39.7615L13.4921 39.8872ZM13.6172 40.1392L13.3489 40.279C13.4044 40.3854 13.4666 40.5017 13.5338 40.6269L13.8003 40.4839L14.0668 40.3408C13.9995 40.2153 13.9389 40.1022 13.8855 39.9995L13.6172 40.1392ZM13.8003 40.4839L13.5338 40.6269C13.6011 40.7522 13.6717 40.8831 13.7436 41.017L14.0101 40.8738L14.2765 40.7306C14.2038 40.5953 14.1342 40.4663 14.0668 40.3408L13.8003 40.4839ZM14.0101 40.8738L13.7448 41.0192C13.8176 41.1519 13.8883 41.2801 13.9569 41.4026L14.2208 41.2548L14.4847 41.107C14.4174 40.9869 14.3477 40.8605 14.2753 40.7284L14.0101 40.8738ZM14.2208 41.2548L13.9582 41.4051C14.0262 41.5238 14.0881 41.633 14.1433 41.731L14.4068 41.5827L14.6704 41.4343C14.6146 41.3352 14.552 41.2246 14.4833 41.1046L14.2208 41.2548ZM14.4068 41.5827L14.1416 41.7281C14.1952 41.8259 14.2394 41.903 14.2731 41.9588L14.5319 41.8023L14.7907 41.6457C14.7631 41.6 14.7235 41.531 14.6721 41.4373L14.4068 41.5827ZM14.5319 41.8023L14.2823 41.9732C14.2996 41.9984 14.3177 42.0304 14.3364 42.0707L14.6107 41.943L14.8849 41.8154C14.8556 41.7524 14.8217 41.6901 14.7815 41.6313L14.5319 41.8023ZM14.6107 41.943L14.3391 42.0762C14.3372 42.0724 14.3357 42.0676 14.335 42.0628C14.3344 42.0583 14.335 42.0566 14.3346 42.0591L14.6333 42.1065L14.932 42.1539C14.9504 42.0383 14.9362 41.9199 14.8822 41.8099L14.6107 41.943ZM14.6333 42.1065L14.3346 42.059C14.3356 42.0526 14.3384 42.0426 14.3446 42.0315C14.3508 42.0204 14.3578 42.0129 14.3625 42.0089L14.5595 42.2384L14.7564 42.468C14.8518 42.3861 14.9124 42.2776 14.932 42.154L14.6333 42.1065ZM14.5595 42.2384L14.3688 42.0036C14.3616 42.0095 14.3476 42.0184 14.3218 42.0264L14.4118 42.3152L14.5017 42.604C14.5912 42.5762 14.6759 42.5335 14.7501 42.4732L14.5595 42.2384ZM14.4118 42.3152L14.3373 42.0221C14.298 42.0321 14.2527 42.039 14.2013 42.0418L14.2178 42.3438L14.2343 42.6458C14.3198 42.6411 14.4044 42.6292 14.4862 42.6084L14.4118 42.3152ZM14.2178 42.3438L14.2128 42.0414C14.1555 42.0423 14.106 42.039 14.0634 42.0323L14.016 42.331L13.9685 42.6297C14.0521 42.643 14.1375 42.6476 14.2228 42.6462L14.2178 42.3438ZM14.016 42.331L14.0634 42.0323C13.9945 42.0213 13.9585 42.0064 13.9434 41.9979L13.7944 42.2611L13.6454 42.5243C13.7431 42.5796 13.8546 42.6116 13.9685 42.6297L14.016 42.331ZM13.7944 42.2611L13.9466 41.9997C13.9066 41.9764 13.891 41.9606 13.8874 41.9563L13.6566 42.1518L13.4258 42.3473C13.4875 42.4201 13.564 42.4769 13.6423 42.5225L13.7944 42.2611ZM13.6566 42.1518L13.8855 41.9541C13.876 41.943 13.8705 41.9352 13.8677 41.9307C13.8648 41.9262 13.8657 41.9267 13.8676 41.932L13.5827 42.0336L13.2979 42.1353C13.3279 42.2195 13.3772 42.291 13.4276 42.3494L13.6566 42.1518ZM13.5827 42.0336L13.8699 41.9388C13.8652 41.9244 13.8622 41.914 13.8605 41.9071C13.8587 41.8997 13.859 41.8991 13.8595 41.9038L13.5591 41.9391L13.2587 41.9744C13.2649 42.0273 13.2798 42.081 13.2955 42.1285L13.5827 42.0336ZM13.5591 41.9391L13.8278 41.8002L13.175 40.5379L12.9063 40.6768L12.6376 40.8158L13.2904 42.0781L13.5591 41.9391ZM12.9063 40.6768L12.692 40.4634L11.6474 41.512L11.8616 41.7255L12.0759 41.9389L13.1206 40.8903L12.9063 40.6768ZM11.8616 41.7255L11.8023 42.022L11.8072 42.023L11.8666 41.7264L11.9259 41.4298L11.921 41.4289L11.8616 41.7255ZM11.8666 41.7264L11.6459 41.5195C11.6224 41.5447 11.5981 41.569 11.5706 41.5966L11.7848 41.8101L11.9991 42.0236C12.0254 41.9972 12.0563 41.9663 12.0872 41.9333L11.8666 41.7264ZM11.7848 41.8101L11.5848 41.5833C11.576 41.591 11.5679 41.596 11.5603 41.5994L11.6824 41.8761L11.8046 42.1528C11.8735 42.1224 11.9335 42.0823 11.9849 42.037L11.7848 41.8101ZM11.6824 41.8761L11.5607 41.5992C11.5562 41.6012 11.5413 41.6066 11.5109 41.6102L11.5466 41.9106L11.5822 42.2109C11.6566 42.2021 11.7324 42.1845 11.8042 42.153L11.6824 41.8761ZM11.5466 41.9106L11.5224 41.6091C11.5047 41.6105 11.4644 41.6095 11.3922 41.598L11.3447 41.8968L11.2973 42.1955C11.3891 42.2101 11.4836 42.219 11.5707 42.2121L11.5466 41.9106ZM11.3447 41.8968L11.3922 41.598C11.3521 41.5917 11.3107 41.5798 11.2679 41.5609L11.1458 41.8377L11.0238 42.1144C11.1136 42.1541 11.2051 42.1809 11.2972 42.1955L11.3447 41.8968ZM11.1458 41.8377L11.265 41.5597C11.2126 41.5372 11.171 41.5135 11.1391 41.4906L10.9627 41.7363L10.7862 41.982C10.8588 42.0341 10.9398 42.0785 11.0266 42.1157L11.1458 41.8377ZM10.9627 41.7363L11.1392 41.4906C11.1093 41.4691 11.096 41.4532 11.0909 41.4458L10.8416 41.6171L10.5923 41.7885C10.6449 41.865 10.7121 41.9287 10.7862 41.9819L10.9627 41.7363ZM10.8416 41.6171L11.0835 41.4356C11.081 41.4322 11.1119 41.4723 11.1011 41.5417L10.8022 41.4951L10.5033 41.4484C10.4805 41.595 10.5383 41.717 10.5997 41.7987L10.8416 41.6171ZM10.8022 41.4951L11.1009 41.5425C11.0944 41.5833 11.0778 41.6045 11.0771 41.6053L10.8386 41.4192L10.6002 41.2332C10.559 41.286 10.5177 41.358 10.5035 41.4476L10.8022 41.4951ZM10.8386 41.4192L11.0926 41.5836C11.0986 41.5742 11.1057 41.5652 11.1142 41.5566L10.8987 41.3444L10.6831 41.1322C10.6456 41.1703 10.6128 41.2115 10.5847 41.2549L10.8386 41.4192ZM10.8987 41.3444L11.1141 41.5568C11.126 41.5447 11.1391 41.5334 11.1519 41.5239L10.9725 41.2804L10.7931 41.0369C10.7547 41.0652 10.7176 41.0972 10.6833 41.132L10.8987 41.3444ZM10.9725 41.2804L11.1622 41.516C11.171 41.5089 11.1774 41.5042 11.1817 41.5012C11.1862 41.4981 11.1869 41.4979 11.1845 41.4992L11.0424 41.2322L10.9004 40.9651C10.8552 40.9892 10.8151 41.0188 10.7829 41.0448L10.9725 41.2804ZM11.0424 41.2322L11.2628 41.4394C11.4965 41.1908 11.7288 40.9569 11.9581 40.7363L11.7484 40.5183L11.5387 40.3003C11.3024 40.5276 11.063 40.7687 10.8221 41.025L11.0424 41.2322ZM11.7484 40.5183L11.9581 40.7363C12.1968 40.5068 12.4204 40.273 12.6303 40.0369L12.4042 39.836L12.178 39.6351C11.9784 39.8598 11.7657 40.0821 11.5387 40.3003L11.7484 40.5183ZM12.4042 39.836L12.6633 39.992C12.6785 39.9668 12.6923 39.9499 12.7033 39.939L12.4898 39.7247L12.2763 39.5104C12.226 39.5606 12.1824 39.6178 12.145 39.68L12.4042 39.836ZM12.4898 39.7247L12.7032 39.9391C12.703 39.9393 12.7029 39.9393 12.7034 39.939C12.704 39.9386 12.7059 39.9375 12.7096 39.936L12.5981 39.6548L12.4866 39.3737C12.4109 39.4037 12.3389 39.4482 12.2764 39.5104L12.4898 39.7247ZM12.5981 39.6548L12.7202 39.9315C12.7156 39.9336 12.715 39.9332 12.7201 39.9322C12.7251 39.9312 12.7345 39.93 12.749 39.9297L12.7429 39.6273L12.7367 39.3248C12.6509 39.3266 12.5606 39.3408 12.476 39.3781L12.5981 39.6548ZM39.8678 31.6706L40.0477 31.9138C40.2211 31.7855 40.4688 31.8225 40.5975 31.9963L40.8406 31.8164L41.0837 31.6364C40.7566 31.1946 40.1304 31.1002 39.6879 31.4275L39.8678 31.6706ZM40.8406 31.8164L40.5974 31.9962C40.7259 32.1698 40.6889 32.4174 40.515 32.546L40.6949 32.7891L40.8748 33.0323C41.317 32.7052 41.4111 32.0789 41.0838 31.6365L40.8406 31.8164ZM40.6949 32.7891L40.5152 32.5458L31.511 39.1939L31.6907 39.4372L31.8703 39.6806L40.8746 33.0325L40.6949 32.7891ZM31.6907 39.4372L31.5098 39.1948C31.442 39.2453 31.3609 39.2696 31.279 39.2696L31.2791 39.5721L31.2792 39.8746C31.4799 39.8745 31.6905 39.8147 31.8715 39.6797L31.6907 39.4372ZM31.2791 39.5721V39.2696C31.1594 39.2696 31.0387 39.2148 30.9587 39.1095L30.7179 39.2925L30.477 39.4755C30.6755 39.7367 30.9771 39.8746 31.2791 39.8746V39.5721ZM30.7179 39.2925L30.961 39.1126C30.8326 38.939 30.8696 38.6915 31.0435 38.5629L30.8636 38.3197L30.6837 38.0765C30.2415 38.4037 30.1474 39.0299 30.4747 39.4724L30.7179 39.2925ZM30.8636 38.3197L31.0433 38.563L40.0475 31.914L39.8678 31.6706L39.6881 31.4273L30.6839 38.0764L30.8636 38.3197ZM11.6155 33.6221L11.6854 33.9164C11.8954 33.8665 12.1062 33.8584 12.3193 33.8923L12.3667 33.5936L12.4142 33.2948C12.1228 33.2485 11.8323 33.2598 11.5456 33.3278L11.6155 33.6221ZM12.3667 33.5936L12.3193 33.8923C12.6623 33.9468 12.9554 34.0809 13.2056 34.2937L13.4016 34.0632L13.5975 33.8328C13.2595 33.5454 12.8627 33.3661 12.4142 33.2949L12.3667 33.5936ZM13.4016 34.0632L13.2063 34.2942C13.4828 34.528 13.6828 34.7475 13.8147 34.9501L14.0681 34.7849L14.3216 34.6198C14.1482 34.3538 13.9033 34.0914 13.5969 33.8323L13.4016 34.0632ZM14.0681 34.7849L13.8133 34.9479C13.9589 35.1756 14.1889 35.5602 14.5045 36.1052L14.7662 35.9537L15.028 35.8021C14.712 35.2563 14.4763 34.8618 14.323 34.622L14.0681 34.7849ZM14.7662 35.9537L14.505 36.1061C14.8222 36.6499 15.0869 37.0504 15.2966 37.2881L15.5234 37.0879L15.7502 36.8878C15.5826 36.6979 15.3429 36.3419 15.0275 35.8013L14.7662 35.9537ZM15.5234 37.0879L15.2892 37.2794C15.375 37.3844 15.4781 37.4898 15.594 37.5957L15.7981 37.3725L16.0022 37.1493C15.9009 37.0566 15.8198 36.9726 15.7576 36.8965L15.5234 37.0879ZM15.7981 37.3725L16.0968 37.4199L16.4946 34.9141L16.1959 34.8667L15.8971 34.8192L15.4994 37.3251L15.7981 37.3725ZM16.1959 34.8667L16.4946 34.9142C16.5287 34.6998 16.5919 34.5924 16.6467 34.5411L16.4401 34.3202L16.2334 34.0993C16.0424 34.278 15.9424 34.5345 15.8972 34.8192L16.1959 34.8667ZM16.4401 34.3202L16.6466 34.5412C16.6975 34.4936 16.7516 34.4738 16.8406 34.488L16.8881 34.1893L16.9355 33.8905C16.6733 33.8489 16.4287 33.9168 16.2335 34.0992L16.4401 34.3202ZM16.8881 34.1893L16.8406 34.488C16.922 34.5009 16.975 34.5343 17.0179 34.5919L17.2602 34.4108L17.5025 34.2297C17.362 34.0416 17.167 33.9273 16.9356 33.8905L16.8881 34.1893ZM17.2602 34.4108L17.0207 34.5955C17.0443 34.6261 17.076 34.6966 17.0501 34.8596L17.3489 34.907L17.6476 34.9545C17.6887 34.6952 17.6607 34.4347 17.4998 34.2261L17.2602 34.4108ZM17.3489 34.907L17.0501 34.8595L16.4879 38.3933L16.7866 38.4408L17.0854 38.4883L17.6476 34.9546L17.3489 34.907ZM16.7866 38.4408L16.4879 38.3933C16.4585 38.5784 16.3928 38.6749 16.3202 38.7291L16.5011 38.9715L16.682 39.2139C16.9139 39.0409 17.0385 38.7832 17.0854 38.4883L16.7866 38.4408ZM16.5011 38.9715L16.3233 38.7268C16.2282 38.7959 16.1413 38.8147 16.0474 38.7998L15.9999 39.0985L15.9525 39.3972C16.2159 39.4391 16.4632 39.373 16.679 39.2162L16.5011 38.9715ZM15.9999 39.0985L16.0474 38.7998C15.9974 38.7918 15.8963 38.7534 15.7334 38.6449L15.5657 38.8967L15.3981 39.1484C15.5842 39.2724 15.7728 39.3687 15.9525 39.3972L15.9999 39.0985ZM15.5657 38.8967L15.7318 38.6439C15.5717 38.5387 15.465 38.4413 15.3996 38.3565L15.1601 38.5412L14.9206 38.7259C15.0398 38.8805 15.204 39.0209 15.3996 39.1495L15.5657 38.8967ZM15.1601 38.5412L15.4018 38.3594C15.0315 37.8673 14.7195 37.429 14.4654 37.0436L14.2129 37.21L13.9603 37.3765C14.2232 37.7753 14.5429 38.2242 14.9184 38.7231L15.1601 38.5412ZM14.2129 37.21L14.4646 37.0423C14.2021 36.6484 14.0457 36.3879 13.9812 36.2488L13.7068 36.3761L13.4324 36.5034C13.519 36.6901 13.7003 36.9863 13.9612 37.3778L14.2129 37.21ZM13.7068 36.3761L13.9782 36.2426C13.8279 35.9369 13.6667 35.6709 13.4934 35.4487L13.2549 35.6347L13.0163 35.8207C13.1584 36.0029 13.2987 36.2316 13.4354 36.5095L13.7068 36.3761ZM13.2549 35.6347L13.4935 35.4488C13.3172 35.2225 13.1239 35.0355 12.9119 34.8938L12.7438 35.1453L12.5758 35.3968C12.7245 35.4962 12.8719 35.6353 13.0163 35.8206L13.2549 35.6347ZM12.7438 35.1453L12.9136 34.895C12.6997 34.7499 12.4727 34.6532 12.2341 34.6152L12.1866 34.9139L12.139 35.2126C12.277 35.2346 12.4217 35.2923 12.5741 35.3956L12.7438 35.1453ZM12.1866 34.9139L12.234 34.6152C11.9791 34.5747 11.7311 34.5995 11.4991 34.6972L11.6165 34.976L11.7338 35.2547C11.8527 35.2047 11.9853 35.1882 12.1391 35.2127L12.1866 34.9139ZM11.6165 34.976L11.5056 34.6945C11.2739 34.7858 11.0823 34.9343 10.9332 35.1334L11.1754 35.3147L11.4175 35.4959C11.5011 35.3842 11.6029 35.3064 11.7273 35.2574L11.6165 34.976ZM11.1754 35.3147L10.9347 35.1315C10.7874 35.325 10.6942 35.5472 10.6551 35.793L10.9538 35.8404L11.2526 35.8879C11.2766 35.7368 11.3317 35.6087 11.4161 35.4978L11.1754 35.3147ZM10.9538 35.8404L10.6551 35.793C10.5716 36.3187 10.7441 36.7777 11.1445 37.1407L11.3477 36.9166L11.5509 36.6926C11.2932 36.4589 11.2029 36.2007 11.2526 35.8879L10.9538 35.8404ZM11.3477 36.9166L11.1423 37.1387C11.1877 37.1807 11.2521 37.2229 11.3127 37.2603C11.3797 37.3015 11.4654 37.3507 11.5683 37.4072L11.7139 37.1421L11.8596 36.877C11.761 36.8228 11.685 36.7791 11.6299 36.7452C11.5685 36.7073 11.5504 36.6922 11.5531 36.6946L11.3477 36.9166ZM11.7139 37.1421L11.5719 37.4091C11.7562 37.5072 11.8726 37.5978 11.9391 37.6739L12.1669 37.4749L12.3947 37.2759C12.2618 37.1237 12.0757 36.992 11.856 36.8751L11.7139 37.1421ZM12.1669 37.4749L11.9423 37.6775C11.9673 37.7052 11.9937 37.7535 11.9755 37.8685L12.2742 37.916L12.5729 37.9635C12.6126 37.7136 12.5669 37.4667 12.3915 37.2723L12.1669 37.4749ZM12.2742 37.916L11.9755 37.8684C11.9616 37.9554 11.9271 38.0064 11.8747 38.0446L12.0527 38.2892L12.2306 38.5338C12.4223 38.3943 12.5358 38.1963 12.5729 37.9636L12.2742 37.916ZM12.0527 38.2892L11.8748 38.0445C11.8317 38.0758 11.7657 38.0993 11.6441 38.08L11.5968 38.3788L11.5494 38.6775C11.7915 38.7159 12.0295 38.68 12.2305 38.5338L12.0527 38.2892ZM11.5968 38.3788L11.6442 38.08C11.469 38.0522 11.2836 37.9828 11.0884 37.863L10.9302 38.1208L10.772 38.3786C11.0242 38.5333 11.284 38.6353 11.5493 38.6775L11.5968 38.3788ZM10.9302 38.1208L11.0884 37.863C10.9011 37.7481 10.7364 37.5942 10.5943 37.3979L10.3493 37.5753L10.1043 37.7527C10.2897 38.0087 10.512 38.2191 10.772 38.3786L10.9302 38.1208ZM10.3493 37.5753L10.5957 37.3999C10.4596 37.2087 10.3572 36.9726 10.2942 36.6862L9.99876 36.7512L9.70335 36.8162C9.78101 37.1691 9.91247 37.4832 10.1028 37.7507L10.3493 37.5753ZM9.99876 36.7512L10.2938 36.6846C10.2311 36.4067 10.2248 36.0817 10.2847 35.7048L9.98596 35.6573L9.68723 35.6099C9.6181 36.0452 9.62061 36.4495 9.7037 36.8178L9.99876 36.7512ZM9.98596 35.6573L10.2847 35.7048C10.3577 35.245 10.4895 34.8819 10.6691 34.6048L10.4152 34.4403L10.1614 34.2759C9.92455 34.6414 9.76981 35.0902 9.68723 35.6098L9.98596 35.6573ZM10.4152 34.4403L10.6673 34.6075C10.7839 34.4318 10.9279 34.2849 11.1014 34.1659L10.9302 33.9165L10.759 33.6671C10.521 33.8305 10.3222 34.0334 10.1632 34.2732L10.4152 34.4403ZM10.9302 33.9165L11.1014 34.1659C11.2738 34.0476 11.4661 33.9648 11.6805 33.9175L11.6155 33.6221L11.5504 33.3267C11.2629 33.3901 10.9981 33.5031 10.759 33.6671L10.9302 33.9165ZM37.9882 29.1333L38.1681 29.3765C38.3421 29.2477 38.5896 29.2848 38.7179 29.458L38.961 29.278L39.2041 29.098C38.8765 28.6556 38.2502 28.5633 37.8083 28.8901L37.9882 29.1333ZM38.961 29.278L38.7178 29.4579C38.8462 29.6315 38.8092 29.879 38.6354 30.0077L38.8153 30.2508L38.9952 30.494C39.4372 30.1669 39.5315 29.5406 39.2042 29.0981L38.961 29.278ZM38.8153 30.2508L38.6356 30.0075L29.6304 36.6566L29.8101 36.8999L29.9897 37.1432L38.9949 30.4942L38.8153 30.2508ZM29.8101 36.8999L29.6294 36.6573C29.5612 36.708 29.4804 36.7323 29.3993 36.7323L29.3995 37.0348L29.3997 37.3372C29.6007 37.3371 29.8104 37.2767 29.9907 37.1425L29.8101 36.8999ZM29.3995 37.0348V36.7323C29.2807 36.7323 29.1597 36.6773 29.0791 36.5712L28.8382 36.7542L28.5974 36.9372C28.7954 37.1977 29.0966 37.3372 29.3995 37.3372V37.0348ZM28.8382 36.7542L29.0814 36.5743C28.9527 36.4003 28.9897 36.1528 29.163 36.0244L28.983 35.7814L28.803 35.5383C28.3607 35.8659 28.2682 36.4922 28.5951 36.934L28.8382 36.7542ZM28.983 35.7814L29.1626 36.0247L38.1679 29.3766L37.9882 29.1333L37.8086 28.89L28.8033 35.538L28.983 35.7814ZM26.0321 31.8715L25.9852 32.1703C26.2036 32.2046 26.3486 32.4064 26.3154 32.6119L26.614 32.6602L26.9126 32.7084C27.0014 32.1591 26.6154 31.6569 26.079 31.5727L26.0321 31.8715ZM26.614 32.6602V32.3577H26.6101V32.6602V32.9626H26.614V32.6602ZM26.6101 32.6602L26.3112 32.6134C26.279 32.8191 26.1076 32.9573 25.9238 32.9573V33.2598V33.5623C26.4109 33.5623 26.8314 33.2017 26.9089 32.707L26.6101 32.6602ZM25.9238 33.2598L25.9238 32.9573C25.9094 32.9573 25.8984 32.9572 25.8888 32.9567C25.879 32.9561 25.8754 32.9555 25.8762 32.9556L25.8204 33.2529L25.7647 33.5502C25.8292 33.5623 25.8931 33.5623 25.9238 33.5623V33.2598ZM25.8204 33.2529L25.8673 32.9541C25.6501 32.92 25.5034 32.7193 25.5372 32.508L25.2385 32.4603L24.9398 32.4125C24.8516 32.9647 25.2359 33.4674 25.7735 33.5517L25.8204 33.2529ZM25.2385 32.4603L25.5374 32.507C25.5712 32.2905 25.7735 32.1399 25.9891 32.1709L26.0321 31.8715L26.0751 31.5721C25.5269 31.4933 25.024 31.8747 24.9397 32.4135L25.2385 32.4603ZM12.6257 27.9833L12.7078 28.2744C13.2121 28.1321 13.9271 28.1228 14.8733 28.2731L14.9208 27.9744L14.9683 27.6757C13.9859 27.5196 13.1703 27.5154 12.5436 27.6922L12.6257 27.9833ZM14.9208 27.9744L14.8733 28.2731C15.386 28.3546 15.8135 28.4543 16.1591 28.5711L16.2559 28.2846L16.3528 27.998C15.9653 27.8671 15.5027 27.7606 14.9683 27.6757L14.9208 27.9744ZM16.2559 28.2846L16.1591 28.5711C16.4957 28.6849 16.7874 28.8414 17.0367 29.0394L17.2248 28.8025L17.4129 28.5656C17.1041 28.3204 16.7494 28.132 16.3528 27.998L16.2559 28.2846ZM17.2248 28.8025L17.0343 29.0374C17.3395 29.2849 17.5522 29.5715 17.681 29.8973L17.9623 29.7861L18.2436 29.6749C18.0734 29.2445 17.7945 28.875 17.4153 28.5675L17.2248 28.8025ZM17.9623 29.7861L17.681 29.8973C17.8094 30.2222 17.8458 30.5677 17.7866 30.9398L18.0853 30.9873L18.3841 31.0348C18.4592 30.5619 18.414 30.1063 18.2436 29.6749L17.9623 29.7861ZM18.0853 30.9873L17.7866 30.9398C17.7189 31.366 17.5399 31.7237 17.2488 32.0213L17.465 32.2328L17.6813 32.4444C18.0624 32.0547 18.2972 31.5815 18.3841 31.0348L18.0853 30.9873ZM17.465 32.2328L17.2497 32.0204C16.9589 32.3152 16.5861 32.5185 16.1196 32.6252L16.187 32.9201L16.2545 33.215C16.8204 33.0855 17.3 32.8309 17.6804 32.4452L17.465 32.2328ZM16.187 32.9201L16.1268 32.6237C15.8692 32.676 15.5863 32.7019 15.2778 32.6994L15.2753 33.0018L15.2727 33.3043C15.6179 33.3072 15.9433 33.2783 16.2473 33.2165L16.187 32.9201ZM15.2753 33.0018L15.2812 32.6994C14.9673 32.6933 14.6297 32.6621 14.2682 32.6046L14.2208 32.9034L14.1733 33.2021C14.5587 33.2633 14.9242 33.2975 15.2693 33.3042L15.2753 33.0018ZM14.2208 32.9034L14.2682 32.6046C13.7966 32.5297 13.3794 32.437 13.0162 32.3289L12.9299 32.6188L12.8436 32.9087C13.2369 33.0258 13.6806 33.1238 14.1733 33.2021L14.2208 32.9034ZM12.9299 32.6188L13.0163 32.3289C12.6545 32.2212 12.359 32.0975 12.1251 31.9602L11.9719 32.221L11.8188 32.4819C12.1057 32.6504 12.4492 32.7913 12.8436 32.9087L12.9299 32.6188ZM11.9719 32.221L12.1293 31.9627C11.7428 31.7272 11.4817 31.4408 11.328 31.107L11.0533 31.2335L10.7785 31.3599C10.9899 31.8191 11.3416 32.1911 11.8145 32.4793L11.9719 32.221ZM11.0533 31.2335L11.3278 31.1064C11.1714 30.7685 11.1221 30.3802 11.1935 29.931L10.8948 29.8836L10.596 29.8361C10.5087 30.3856 10.5647 30.898 10.7788 31.3605L11.0533 31.2335ZM10.8948 29.8836L11.1935 29.9311C11.2406 29.6347 11.3306 29.3819 11.4592 29.168L11.2 29.0122L10.9407 28.8564C10.767 29.1453 10.6537 29.4736 10.596 29.8361L10.8948 29.8836ZM11.2 29.0122L11.4608 29.1654C11.5869 28.9508 11.7515 28.7724 11.956 28.6284L11.7819 28.3811L11.6078 28.1337C11.3332 28.327 11.1093 28.5694 10.9392 28.859L11.2 29.0122ZM11.7819 28.3811L11.9598 28.6256C12.164 28.4771 12.4119 28.3585 12.7084 28.2742L12.6257 27.9833L12.5429 27.6923C12.1881 27.7933 11.8735 27.9403 11.6039 28.1365L11.7819 28.3811ZM13.1672 29.152L13.1585 28.8497C12.745 28.8615 12.3837 28.9413 12.1051 29.1182L12.2673 29.3735L12.4295 29.6288C12.5806 29.5328 12.8198 29.4646 13.1759 29.4544L13.1672 29.152ZM12.2673 29.3735L12.1072 29.1169C11.8024 29.3071 11.6298 29.6068 11.5718 29.972L11.8705 30.0194L12.1692 30.0669C12.2048 29.8432 12.2963 29.712 12.4274 29.6302L12.2673 29.3735ZM11.8705 30.0194L11.5718 29.972C11.53 30.2352 11.5583 30.4888 11.674 30.7185C11.7888 30.9464 11.9771 31.126 12.2135 31.2649L12.3667 31.0041L12.5199 30.7432C12.3582 30.6483 12.2648 30.5467 12.2143 30.4464C12.1647 30.3479 12.1439 30.2261 12.1692 30.0669L11.8705 30.0194ZM12.3667 31.0041L12.2153 31.2659C12.6639 31.5255 13.3513 31.7172 14.2442 31.8591L14.2916 31.5604L14.3391 31.2616C13.4632 31.1224 12.867 30.9441 12.5182 30.7422L12.3667 31.0041ZM14.2916 31.5604L14.2442 31.8591C14.8537 31.9559 15.3709 32.0018 15.7906 31.9917L15.7833 31.6893L15.7761 31.387C15.4071 31.3958 14.9298 31.3555 14.3391 31.2616L14.2916 31.5604ZM15.7833 31.6893L15.7906 31.9917C16.2127 31.9815 16.5811 31.9043 16.8677 31.7319L16.7118 31.4727L16.5559 31.2135C16.3937 31.3111 16.1426 31.3781 15.776 31.387L15.7833 31.6893ZM16.7118 31.4727L16.8698 31.7307C17.1753 31.5436 17.3528 31.2513 17.4103 30.8901L17.1116 30.8426L16.8129 30.795C16.7797 31.0033 16.6907 31.131 16.5538 31.2148L16.7118 31.4727ZM17.1116 30.8426L17.4103 30.89C17.4695 30.5176 17.3862 30.1756 17.1401 29.9005L16.9146 30.1022L16.6892 30.3038C16.7989 30.4265 16.8472 30.5787 16.8128 30.7951L17.1116 30.8426ZM16.9146 30.1022L17.14 29.9004C16.9155 29.6496 16.5899 29.464 16.1933 29.3269L16.0945 29.6128L15.9957 29.8987C16.337 30.0167 16.558 30.1572 16.6893 30.3039L16.9146 30.1022ZM16.0945 29.6128L16.1932 29.3269C15.8005 29.1912 15.2879 29.0747 14.6631 28.9754L14.6156 29.2741L14.5681 29.5728C15.1758 29.6694 15.6498 29.7792 15.9957 29.8987L16.0945 29.6128ZM14.6156 29.2741L14.663 28.9754C14.0693 28.881 13.5659 28.8374 13.1581 28.8497L13.1672 29.152L13.1764 29.4543C13.5315 29.4436 13.9937 29.4816 14.5681 29.5728L14.6156 29.2741ZM12.9339 20.6046L12.8862 20.9033C12.9822 20.9186 13.1075 20.9878 13.2511 21.1959L13.5 21.0241L13.749 20.8523C13.5523 20.5672 13.3001 20.3567 12.9815 20.3059L12.9339 20.6046ZM13.5 21.0241L13.2503 21.1947L14.613 23.1886L14.8627 23.0179L15.1124 22.8472L13.7497 20.8534L13.5 21.0241ZM14.8627 23.0179L14.9951 23.2899L18.1675 21.746L18.0351 21.474L17.9028 21.2021L14.7304 22.7459L14.8627 23.0179ZM18.0351 21.474L18.1696 21.745C18.3798 21.6406 18.5531 21.5712 18.6911 21.5313L18.6072 21.2407L18.5232 20.9501C18.339 21.0033 18.1307 21.0889 17.9007 21.2031L18.0351 21.474ZM18.6072 21.2407L18.6935 21.5306C18.8154 21.4943 18.9189 21.4879 19.0078 21.502L19.0552 21.2033L19.1026 20.9045C18.9106 20.8741 18.715 20.893 18.5209 20.9508L18.6072 21.2407ZM19.0552 21.2033L19.0077 21.502C19.0727 21.5123 19.1274 21.5431 19.1804 21.6228L19.4323 21.4553L19.6841 21.2878C19.5469 21.0815 19.3505 20.9439 19.1027 20.9045L19.0552 21.2033ZM19.4323 21.4553L19.1826 21.626C19.2242 21.687 19.2518 21.7794 19.2271 21.9346L19.5258 21.9821L19.8245 22.0296C19.867 21.7623 19.8316 21.5035 19.682 21.2846L19.4323 21.4553ZM19.5258 21.9821L19.2271 21.9346C19.202 22.0923 19.1531 22.1859 19.1015 22.2419L19.324 22.4468L19.5464 22.6518C19.7005 22.4845 19.7865 22.2686 19.8245 22.0296L19.5258 21.9821ZM19.324 22.4468L19.1052 22.238C19.0304 22.3164 18.9364 22.3812 18.8179 22.4304L18.9341 22.7097L19.0502 22.989C19.24 22.9101 19.4056 22.7994 19.5428 22.6557L19.324 22.4468ZM18.9341 22.7097L18.818 22.4304C18.6659 22.4936 18.5275 22.5491 18.4038 22.5972L18.5136 22.8791L18.6235 23.1609C18.7511 23.1112 18.8938 23.054 19.0501 22.989L18.9341 22.7097ZM18.5136 22.8791L18.3904 22.6029L15.536 23.8769L15.6593 24.1532L15.7826 24.4294L18.6369 23.1553L18.5136 22.8791ZM15.6593 24.1532L15.4107 24.3254L16.3421 25.6694L16.5907 25.4971L16.8393 25.3248L15.9079 23.9809L15.6593 24.1532ZM16.5907 25.4971L16.5431 25.7958L17.9944 26.0272L18.042 25.7285L18.0896 25.4298L16.6383 25.1984L16.5907 25.4971ZM18.042 25.7285L17.9945 26.0272C18.2497 26.0679 18.3714 26.1473 18.4275 26.2195L18.6663 26.0338L18.905 25.848C18.7166 25.6059 18.4214 25.4826 18.0896 25.4298L18.042 25.7285ZM18.6663 26.0338L18.4254 26.2168C18.4898 26.3014 18.5175 26.4006 18.4955 26.5387L18.7943 26.5861L19.093 26.6336C19.1382 26.3492 19.081 26.0796 18.9071 25.8507L18.6663 26.0338ZM18.7943 26.5861L18.4955 26.5386C18.4851 26.6045 18.4578 26.6678 18.4066 26.7318L18.6426 26.9209L18.8787 27.11C18.9906 26.9703 19.0648 26.8108 19.093 26.6336L18.7943 26.5861ZM18.6426 26.9209L18.4066 26.7317C18.3575 26.793 18.3023 26.8322 18.2386 26.8557L18.3433 27.1395L18.4481 27.4232C18.6204 27.3596 18.7646 27.2523 18.8786 27.1101L18.6426 26.9209ZM18.3433 27.1395L18.2519 26.8511C18.198 26.8682 18.129 26.8771 18.0415 26.8704L18.0184 27.172L17.9953 27.4735C18.1472 27.4852 18.2955 27.4719 18.4347 27.4278L18.3433 27.1395ZM18.0184 27.172L18.0415 26.8704C17.9341 26.8621 17.7718 26.8414 17.5509 26.8063L17.5034 27.105L17.456 27.4037C17.6819 27.4396 17.8633 27.4634 17.9953 27.4735L18.0184 27.172ZM17.5034 27.105L17.5509 26.8063L12.3305 25.9763L12.283 26.275L12.2356 26.5737L17.4559 27.4037L17.5034 27.105ZM12.283 26.275L12.3305 25.9763C12.0799 25.9364 11.9557 25.8596 11.8974 25.7901L11.6657 25.9845L11.434 26.1789C11.6234 26.4047 11.9114 26.5222 12.2356 26.5737L12.283 26.275ZM11.6657 25.9845L11.9 25.7933C11.8388 25.7183 11.8085 25.6242 11.8315 25.4796L11.5328 25.4322L11.2341 25.3847C11.1879 25.675 11.2465 25.9492 11.4314 26.1758L11.6657 25.9845ZM11.5328 25.4322L11.8315 25.4796C11.8537 25.3399 11.9114 25.257 11.9975 25.2003L11.8311 24.9477L11.6647 24.6951C11.4218 24.8552 11.28 25.0956 11.2341 25.3847L11.5328 25.4322ZM11.8311 24.9477L12.0032 25.1965C12.0753 25.1466 12.2109 25.1081 12.462 25.148L12.5095 24.8493L12.557 24.5505C12.2273 24.4982 11.9106 24.525 11.6591 24.699L11.8311 24.9477ZM12.5095 24.8493L12.4621 25.148L14.9236 25.5389L14.971 25.2402L15.0185 24.9414L12.5569 24.5505L12.5095 24.8493ZM14.971 25.2402L15.2123 25.0577L12.7448 21.7957L12.5036 21.9782L12.2624 22.1606L14.7298 25.4226L14.971 25.2402ZM12.5036 21.9782L12.7444 21.7952C12.6299 21.6445 12.5567 21.5313 12.5166 21.4518L12.2466 21.5882L11.9767 21.7247C12.041 21.852 12.1394 21.9988 12.2628 22.1612L12.5036 21.9782ZM12.2466 21.5882L12.5187 21.4562C12.5018 21.4213 12.4866 21.3566 12.505 21.2408L12.2062 21.1934L11.9075 21.1461C11.8762 21.3434 11.888 21.5421 11.9745 21.7203L12.2466 21.5882ZM12.2062 21.1934L12.505 21.2409C12.5274 21.0995 12.581 21.0203 12.6483 20.9699L12.4672 20.7277L12.286 20.4855C12.0711 20.6462 11.9501 20.8778 11.9075 21.146L12.2062 21.1934ZM12.4672 20.7277L12.6545 20.9652C12.7277 20.9074 12.7986 20.8894 12.8864 20.9034L12.9339 20.6046L12.9813 20.3059C12.7243 20.2651 12.4836 20.3295 12.2798 20.4902L12.4672 20.7277ZM16.957 13.0911L16.9569 12.7886C16.7363 12.7887 16.513 12.8558 16.3279 12.9952L16.51 13.2368L16.692 13.4784C16.7641 13.424 16.8573 13.3936 16.9571 13.3936L16.957 13.0911ZM16.51 13.2368L16.3321 12.9922C16.102 13.1595 15.9575 13.4057 15.9138 13.6819L16.2126 13.7291L16.5114 13.7763C16.5311 13.6517 16.593 13.5504 16.6879 13.4814L16.51 13.2368ZM16.2126 13.7291H15.9101V13.735H16.2126H16.5151V13.7291H16.2126ZM16.2126 13.735L15.9126 13.6967C15.8779 13.9681 15.9434 14.2466 16.1087 14.4741L16.3534 14.2962L16.5981 14.1184C16.5273 14.021 16.4967 13.8985 16.5127 13.7733L16.2126 13.735ZM16.3534 14.2962L16.1088 14.4741C16.2761 14.7042 16.5223 14.8487 16.7985 14.8924L16.8457 14.5936L16.8929 14.2948C16.7683 14.2752 16.667 14.2132 16.598 14.1183L16.3534 14.2962ZM16.8457 14.5936L16.7998 14.8926C17.3755 14.981 17.9205 14.5831 18.0037 14.0035L17.7043 13.9605L17.4049 13.9175C17.37 14.1605 17.1385 14.3325 16.8916 14.2946L16.8457 14.5936ZM17.7043 13.9605L18.0033 14.0064C18.0916 13.4307 17.6939 12.8858 17.1142 12.8025L17.0712 13.1019L17.0282 13.4013C17.2712 13.4362 17.4432 13.6677 17.4053 13.9146L17.7043 13.9605ZM17.0712 13.1019L17.1521 12.8105C17.0689 12.7874 16.991 12.7886 16.957 12.7886V13.0911V13.3936C16.9664 13.3936 16.9732 13.3936 16.9794 13.3937C16.9854 13.3938 16.9894 13.394 16.9921 13.3942C16.9975 13.3946 16.9958 13.3949 16.9903 13.3934L17.0712 13.1019ZM22.5653 1.77498L22.6107 1.47594C19.1354 0.948228 15.8731 3.14668 14.9812 6.46392L15.2733 6.54246L15.5654 6.62099C16.3786 3.59647 19.3538 1.59327 22.5199 2.07403L22.5653 1.77498ZM15.2733 6.54246L15.4492 6.78851L16.5234 6.02052L16.3475 5.77446L16.1716 5.52841L15.0974 6.2964L15.2733 6.54246ZM16.3475 5.77446L16.5239 6.02016C17.536 5.29343 18.9187 5.50397 19.6722 6.49247L19.9128 6.3091L20.1533 6.12574C19.2022 4.87799 17.4502 4.61029 16.1711 5.52877L16.3475 5.77446ZM19.9128 6.3091L19.6724 6.49277L20.3203 7.34051L20.5606 7.15685L20.801 6.97319L20.1531 6.12544L19.9128 6.3091ZM20.5606 7.15685L20.6055 7.45598C20.618 7.45411 20.6323 7.45411 20.6448 7.45598L20.6896 7.15685L20.7345 6.85773C20.6626 6.84693 20.5877 6.84693 20.5158 6.85773L20.5606 7.15685ZM20.6896 7.15685L20.6492 7.45661L28.0968 8.46091L28.1372 8.16115L28.1776 7.86139L20.7301 6.85709L20.6896 7.15685ZM28.1372 8.16115L28.4397 8.15817C28.4069 4.83373 25.9701 1.96343 22.6081 1.46009L22.5633 1.75923L22.5186 2.05837C25.583 2.51717 27.8049 5.13337 27.8347 8.16413L28.1372 8.16115ZM22.5633 1.75923L22.2632 1.79675L22.2652 1.8125L22.5653 1.77498L22.8654 1.73747L22.8635 1.72171L22.5633 1.75923Z" fill="#EB0A1E" mask="url(#path-1-outside-1_2819_3050)"/>
</svg>
