<svg width="47" height="48" viewBox="0 0 47 48" fill="none" xmlns="http://www.w3.org/2000/svg">
<path d="M35.9225 3.26031C35.9225 2.39567 35.5866 1.56584 34.9879 0.954455C34.3894 0.343286 33.5775 9.07704e-05 32.7311 0H14.2701C13.4235 0 12.611 0.343103 12.0123 0.954455C11.4137 1.56584 11.0777 2.39567 11.0777 3.26031V22.6247H1.34626C1.08004 22.6245 0.819644 22.7051 0.598216 22.8561C0.376737 23.0071 0.204066 23.2221 0.102121 23.4734C0.000304357 23.7245 -0.0259613 24.0007 0.0259488 24.2673C0.0779425 24.5339 0.205845 24.7792 0.394114 24.9714L22.5475 47.5971L22.6461 47.6878C22.7482 47.7734 22.8625 47.8434 22.985 47.8953C23.1483 47.9644 23.3238 48 23.5006 48C23.6774 48 23.8529 47.9644 24.0162 47.8953C24.1795 47.8261 24.3279 47.7248 24.4528 47.5971L46.6061 24.9724C46.7943 24.7801 46.9225 24.5349 46.9743 24.2683C47.0261 24.0016 46.9992 23.7246 46.8971 23.4734C46.7953 23.2222 46.6224 23.0072 46.4011 22.8561C46.1798 22.705 45.9192 22.6247 45.653 22.6247H35.9225V3.26031ZM33.2311 23.999C33.2311 24.3635 33.3723 24.7136 33.6247 24.9714C33.8771 25.2292 34.2198 25.3743 34.5768 25.3743H40.0262C40.9121 25.3743 41.3605 26.441 40.7407 27.074L23.5006 44.6809L6.26049 27.074C5.64074 26.441 6.08916 25.3743 6.975 25.3743H12.4234C12.7804 25.3743 13.1231 25.2292 13.3756 24.9714C13.628 24.7136 13.7701 24.3636 13.7701 23.999V3.74967C13.7701 3.19738 14.2178 2.74967 14.7701 2.74967H32.2311C32.7834 2.74967 33.2311 3.19738 33.2311 3.74967V23.999Z" fill="#EB0A1E"/>
</svg>
