<svg width="49" height="49" viewBox="0 0 49 49" fill="none" xmlns="http://www.w3.org/2000/svg">
<path fill-rule="evenodd" clip-rule="evenodd" d="M24.5 0.20243C11.0807 0.20243 0.20243 11.0807 0.20243 24.5C0.20243 37.9193 11.0807 48.7976 24.5 48.7976C37.9193 48.7976 48.7976 37.9193 48.7976 24.5C48.7976 11.0807 37.9193 0.20243 24.5 0.20243ZM31.0428 36.696V38.7102H17.9577V36.696H31.0428ZM22.6887 26.4036C26.2008 24.2952 29.9134 28.9936 26.9897 31.9178C24.1907 34.7168 19.6112 31.4137 21.3302 27.8852L13.8468 20.447L15.2627 19.0229L22.6887 26.4036ZM23.4325 28.3584C24.8382 26.9528 26.9712 29.0879 25.5656 30.4915C24.162 31.8992 22.0269 29.7641 23.4325 28.3584ZM43.2409 24.5001H41.2267C41.2267 19.8815 39.3539 15.6995 36.3274 12.6728C28.6437 4.98908 15.8224 6.57273 10.1981 15.8202L8.48306 14.7731C10.1551 12.0233 12.5177 9.7365 15.327 8.15684C27.7176 1.18598 43.2409 10.1281 43.2409 24.5001ZM8.74277 8.74283C17.4452 0.0403946 31.5548 0.0403946 40.2551 8.74283C48.9576 17.4453 48.9576 31.5548 40.2551 40.2552C31.5527 48.9576 17.4452 48.9576 8.74277 40.2552C0.0403424 31.5548 0.0403424 17.4453 8.74277 8.74283Z" fill="#EB0A1E" stroke="#EB0A1E" stroke-width="0.4"/>
</svg>
