<svg width="48" height="48" viewBox="0 0 48 48" fill="none" xmlns="http://www.w3.org/2000/svg">
<path d="M27.2998 0.120117C27.5128 0.0860546 27.7277 0.100194 27.9316 0.166016C28.1362 0.232053 28.3223 0.345465 28.4746 0.49707L31.2266 3.24902L31.2832 3.30469L31.3496 3.26367C34.6876 1.19493 39.0188 1.35903 42.2207 3.72949L42.2891 3.78125L42.3506 3.71973L44.3955 1.67578L44.3945 1.6748C44.5983 1.4723 44.8617 1.34033 45.1455 1.2959V1.29492C45.3576 1.261 45.5749 1.27784 45.7793 1.34375C45.9836 1.40972 46.17 1.52341 46.3223 1.6748V1.67578C46.5778 1.93142 46.7217 2.27817 46.7217 2.63965C46.7216 3.00095 46.5777 3.34701 46.3223 3.60254L44.2783 5.64746L44.2168 5.70801L44.2686 5.77734C46.6415 8.97912 46.805 13.3095 44.7344 16.6475L44.6924 16.7148L47.501 19.5234C47.7564 19.7791 47.9004 20.1259 47.9004 20.4873C47.9003 20.8487 47.7564 21.1956 47.501 21.4512L28.876 40.0752L22.6738 46.2773C20.5108 48.4404 16.9648 48.4404 14.8018 46.2773L1.72266 33.1982C-0.440395 31.0358 -0.44042 27.4892 1.72266 25.3262L26.5488 0.5C26.7273 0.32257 26.9508 0.198558 27.1943 0.140625L27.2998 0.120117ZM27.4395 3.46387L9.8457 21.0498L3.64258 27.2529C2.51274 28.383 2.51272 30.1389 3.64258 31.2695L16.7227 44.3486C17.8527 45.4787 19.6086 45.4787 20.7393 44.3486L44.5312 20.5566L44.6016 20.4854L41.9365 17.8203C41.6963 17.5796 41.5543 17.2576 41.5391 16.918C41.5239 16.5782 41.6366 16.2446 41.8545 15.9834C43.8225 13.6223 43.9879 10.3008 42.332 7.76172L42.2646 7.65918L41.4238 8.5L41.3721 8.55078L41.4053 8.61523C42.2817 10.3522 41.9978 12.5441 40.5557 13.9863C38.7598 15.7821 35.8046 15.7821 34.0088 13.9863C32.2137 12.1912 32.2137 9.2356 34.0088 7.44043C35.4517 6.00059 37.6433 5.71402 39.3809 6.58984L39.4453 6.62305L39.4961 6.57129L40.3369 5.73047L40.2334 5.66309C37.6937 4.01018 34.3727 4.17466 32.0117 6.14062C31.7506 6.35828 31.4177 6.47116 31.0781 6.45605C30.7385 6.44091 30.4165 6.29958 30.1758 6.05957L27.5811 3.46387L27.5098 3.39355L27.4395 3.46387ZM22.1045 30.9268C23.2745 30.927 24.2437 31.824 24.4102 32.9639L24.4326 33.1953V33.2529C24.4326 34.5233 23.3736 35.5925 22.1045 35.5928C20.8347 35.5928 19.7783 34.5236 19.7783 33.2529C19.7785 31.9825 20.834 30.9268 22.1045 30.9268ZM14.7207 24.7334H29.4902C29.6692 24.7334 29.8464 24.7694 30.0117 24.8379C30.1771 24.9064 30.3275 25.0063 30.4541 25.1328C30.5807 25.2594 30.6815 25.4098 30.75 25.5752C30.8185 25.7405 30.8535 25.9178 30.8535 26.0967C30.8535 26.2757 30.8185 26.4537 30.75 26.6191C30.6815 26.7844 30.5805 26.9341 30.4541 27.0605C30.3275 27.1871 30.1771 27.2879 30.0117 27.3564C29.8464 27.4249 29.6692 27.4599 29.4902 27.46H14.7207C14.5418 27.4599 14.3645 27.4249 14.1992 27.3564C14.0339 27.2879 13.8834 27.1871 13.7568 27.0605C13.6305 26.9342 13.5303 26.7842 13.4619 26.6191C13.3934 26.4537 13.3584 26.2757 13.3584 26.0967C13.3584 25.9178 13.3935 25.7405 13.4619 25.5752C13.5304 25.4099 13.6303 25.2593 13.7568 25.1328C13.8833 25.0063 14.034 24.9064 14.1992 24.8379C14.3645 24.7694 14.5418 24.7335 14.7207 24.7334ZM22.1045 16.4707C23.3525 16.4709 24.3722 17.4915 24.4326 18.7383V18.7969C24.433 20.0677 23.3736 21.1365 22.1045 21.1367C20.8349 21.1373 19.7785 20.068 19.7783 18.7969C19.7783 17.527 20.8339 16.4707 22.1045 16.4707ZM37.0303 8.82324C36.6319 8.87644 36.2486 9.06298 35.9385 9.37305C35.1832 10.1283 35.1833 11.3082 35.9385 12.0635C36.6938 12.8188 37.8742 12.8188 38.6289 12.0635C38.9403 11.7513 39.112 11.3688 39.1777 10.9746L39.2168 10.7393L39.0215 10.876C38.7593 11.0595 38.4409 11.1449 38.1221 11.1172C37.8031 11.0894 37.504 10.9498 37.2773 10.7236C37.0513 10.4971 36.9117 10.1987 36.8838 9.87988C36.856 9.5609 36.9414 9.24184 37.125 8.97949L37.2559 8.79297L37.0303 8.82324Z" fill="#EB0A1E" stroke="white" stroke-width="0.2"/>
</svg>
