<svg width="20" height="20" viewBox="0 0 20 20" fill="none" xmlns="http://www.w3.org/2000/svg">
<path d="M17 7.62785C17.0011 8.10381 16.9077 8.57527 16.7254 9.01495C16.543 9.45462 16.2752 9.85378 15.9376 10.1893L10.3568 15.8509C10.3103 15.8981 10.2548 15.9356 10.1937 15.9612C10.1325 15.9868 10.0669 16 10.0006 16C9.93426 16 9.86862 15.9868 9.80747 15.9612C9.74631 15.9356 9.69086 15.8981 9.64434 15.8509L4.06355 10.1893C3.38316 9.51 3.00059 8.58827 3 7.62693C2.99941 6.6656 3.38086 5.7434 4.06042 5.06322C4.73998 4.38304 5.662 4.00059 6.62363 4C7.58526 3.99941 8.50774 4.38074 9.18813 5.0601L10.0006 5.81917L10.8186 5.0576C11.3264 4.55254 11.9724 4.20918 12.6752 4.07087C13.378 3.93257 14.106 4.00552 14.7673 4.28051C15.4287 4.5555 15.9937 5.0202 16.391 5.61595C16.7884 6.21171 17.0003 6.9118 17 7.62785Z" fill="#EB0A1E"/>
</svg>
