<svg width="36" height="36" viewBox="0 0 36 36" fill="none" xmlns="http://www.w3.org/2000/svg">
<rect width="36" height="36" rx="18" fill="white"/>
<path d="M9 16.1868C9.00002 15.1405 9.32071 14.1187 9.91972 13.2565C10.5187 12.3944 11.3679 11.7323 12.355 11.3578C13.3422 10.9834 14.4208 10.9141 15.4486 11.1591C16.4764 11.4041 17.4048 11.952 18.1114 12.7303C18.1612 12.783 18.2214 12.825 18.2882 12.8537C18.355 12.8824 18.4271 12.8972 18.5 12.8972C18.5728 12.8972 18.6449 12.8824 18.7117 12.8537C18.7786 12.825 18.8388 12.783 18.8885 12.7303C19.5929 11.9469 20.5216 11.3945 21.551 11.1465C22.5804 10.8984 23.6618 10.9666 24.6511 11.3419C25.6404 11.7172 26.4908 12.3819 27.089 13.2474C27.6872 14.1129 28.005 15.1382 27.9999 16.1868C27.9999 18.3401 26.5749 19.948 25.1499 21.3585L19.9326 26.3543C19.7556 26.5555 19.5373 26.7172 19.2923 26.8285C19.0473 26.9398 18.7812 26.9983 18.5116 27C18.2421 27.0017 17.9752 26.9465 17.7288 26.8383C17.4825 26.7301 17.2622 26.5712 17.0826 26.3722L11.85 21.3585C10.425 19.948 9 18.3495 9 16.1868Z" stroke="#58595B" stroke-width="1.5" stroke-linecap="round" stroke-linejoin="round"/>
</svg>
