<svg width="16" height="16" viewBox="0 0 16 16" fill="none" xmlns="http://www.w3.org/2000/svg">
<path fill-rule="evenodd" clip-rule="evenodd" d="M8.00017 0C10.1217 1.25197e-05 12.1562 0.84277 13.6564 2.34277C15.1567 3.84304 16.0002 5.8783 16.0002 8C16.0001 9.58219 15.5306 11.1288 14.6515 12.4443C13.7725 13.7598 12.5234 14.7851 11.0617 15.3906C9.59994 15.9961 7.99141 16.1543 6.43962 15.8457C4.8878 15.537 3.46175 14.7751 2.34294 13.6562C1.22436 12.5375 0.46213 11.1122 0.15349 9.56055C-0.155153 8.00876 0.00406855 6.40022 0.609544 4.93848C1.21504 3.47675 2.24031 2.22765 3.55583 1.34863C4.87141 0.469594 6.41794 0 8.00017 0ZM10.6242 1.66504C9.37123 1.14605 7.99242 1.00983 6.66228 1.27441C5.33217 1.539 4.1105 2.19241 3.15154 3.15137C2.19258 4.11034 1.53916 5.33199 1.27458 6.66211C1.01001 7.99224 1.14622 9.37107 1.66521 10.624C2.1842 11.8769 3.06301 12.9477 4.1906 13.7012C5.31823 14.4546 6.64397 14.8574 8.00017 14.8574C9.81874 14.8574 11.5629 14.1345 12.8488 12.8486C14.1347 11.5627 14.8576 9.81856 14.8576 8C14.8576 6.6438 14.4548 5.31807 13.7013 4.19043C12.9479 3.06283 11.8771 2.18403 10.6242 1.66504ZM8.57146 12H7.42888V6.28516H8.57146V12ZM8.57146 4V5.14258H7.42888V4H8.57146Z" fill="#547DD5"/>
</svg>
