<svg width="15" height="15" viewBox="0 0 15 15" fill="none" xmlns="http://www.w3.org/2000/svg">
<path d="M14.0531 5.81384C13.8007 5.55 13.5395 5.27812 13.4411 5.03906C13.35 4.82009 13.3446 4.45714 13.3393 4.10558C13.3292 3.45201 13.3185 2.71138 12.8036 2.19643C12.2886 1.68147 11.548 1.67076 10.8944 1.66071C10.5429 1.65536 10.1799 1.65 9.96094 1.55893C9.72254 1.46049 9.45 1.19933 9.18616 0.946875C8.72411 0.502902 8.19911 0 7.5 0C6.80089 0 6.27656 0.502902 5.81384 0.946875C5.55 1.19933 5.27812 1.46049 5.03906 1.55893C4.82143 1.65 4.45714 1.65536 4.10558 1.66071C3.45201 1.67076 2.71138 1.68147 2.19643 2.19643C1.68147 2.71138 1.67411 3.45201 1.66071 4.10558C1.65536 4.45714 1.65 4.82009 1.55893 5.03906C1.46049 5.27746 1.19933 5.55 0.946875 5.81384C0.502902 6.27589 0 6.80089 0 7.5C0 8.19911 0.502902 8.72344 0.946875 9.18616C1.19933 9.45 1.46049 9.72187 1.55893 9.96094C1.65 10.1799 1.65536 10.5429 1.66071 10.8944C1.67076 11.548 1.68147 12.2886 2.19643 12.8036C2.71138 13.3185 3.45201 13.3292 4.10558 13.3393C4.45714 13.3446 4.82009 13.35 5.03906 13.4411C5.27746 13.5395 5.55 13.8007 5.81384 14.0531C6.27589 14.4971 6.80089 15 7.5 15C8.19911 15 8.72344 14.4971 9.18616 14.0531C9.45 13.8007 9.72187 13.5395 9.96094 13.4411C10.1799 13.35 10.5429 13.3446 10.8944 13.3393C11.548 13.3292 12.2886 13.3185 12.8036 12.8036C13.3185 12.2886 13.3292 11.548 13.3393 10.8944C13.3446 10.5429 13.35 10.1799 13.4411 9.96094C13.5395 9.72254 13.8007 9.45 14.0531 9.18616C14.4971 8.72411 15 8.19911 15 7.5C15 6.80089 14.4971 6.27656 14.0531 5.81384ZM13.2797 8.44487C12.9589 8.77969 12.6268 9.12589 12.4507 9.55112C12.2819 9.9596 12.2746 10.4263 12.2679 10.8783C12.2612 11.3471 12.2538 11.8379 12.0455 12.0455C11.8373 12.2531 11.3498 12.2612 10.8783 12.2679C10.4263 12.2746 9.9596 12.2819 9.55112 12.4507C9.12589 12.6268 8.77969 12.9589 8.44487 13.2797C8.11004 13.6004 7.76786 13.9286 7.5 13.9286C7.23214 13.9286 6.88728 13.5991 6.55513 13.2797C6.22299 12.9603 5.87411 12.6268 5.44888 12.4507C5.0404 12.2819 4.57366 12.2746 4.12165 12.2679C3.6529 12.2612 3.16205 12.2538 2.95446 12.0455C2.74687 11.8373 2.73884 11.3498 2.73214 10.8783C2.72545 10.4263 2.71808 9.9596 2.54933 9.55112C2.37321 9.12589 2.04107 8.77969 1.72031 8.44487C1.39955 8.11004 1.07143 7.76786 1.07143 7.5C1.07143 7.23214 1.40089 6.88728 1.72031 6.55513C2.03973 6.22299 2.37321 5.87411 2.54933 5.44888C2.71808 5.0404 2.72545 4.57366 2.73214 4.12165C2.73884 3.6529 2.74621 3.16205 2.95446 2.95446C3.16272 2.74687 3.65022 2.73884 4.12165 2.73214C4.57366 2.72545 5.0404 2.71808 5.44888 2.54933C5.87411 2.37321 6.22031 2.04107 6.55513 1.72031C6.88996 1.39955 7.23214 1.07143 7.5 1.07143C7.76786 1.07143 8.11272 1.40089 8.44487 1.72031C8.77701 2.03973 9.12589 2.37321 9.55112 2.54933C9.9596 2.71808 10.4263 2.72545 10.8783 2.73214C11.3471 2.73884 11.8379 2.74621 12.0455 2.95446C12.2531 3.16272 12.2612 3.65022 12.2679 4.12165C12.2746 4.57366 12.2819 5.0404 12.4507 5.44888C12.6268 5.87411 12.9589 6.22031 13.2797 6.55513C13.6004 6.88996 13.9286 7.23214 13.9286 7.5C13.9286 7.76786 13.5991 8.11272 13.2797 8.44487ZM10.5576 5.51384C10.6074 5.56359 10.6469 5.62268 10.6739 5.68771C10.7008 5.75275 10.7147 5.82246 10.7147 5.89286C10.7147 5.96326 10.7008 6.03297 10.6739 6.098C10.6469 6.16304 10.6074 6.22212 10.5576 6.27187L6.80759 10.0219C6.75784 10.0717 6.69875 10.1112 6.63372 10.1382C6.56868 10.1651 6.49897 10.179 6.42857 10.179C6.35817 10.179 6.28846 10.1651 6.22342 10.1382C6.15839 10.1112 6.09931 10.0717 6.04955 10.0219L4.44241 8.41473C4.34189 8.31421 4.28542 8.17787 4.28542 8.03571C4.28542 7.89355 4.34189 7.75722 4.44241 7.6567C4.54293 7.55617 4.67927 7.4997 4.82143 7.4997C4.96359 7.4997 5.09992 7.55617 5.20045 7.6567L6.42857 8.88549L9.79955 5.51384C9.84931 5.46403 9.90839 5.42452 9.97342 5.39756C10.0385 5.3706 10.1082 5.35672 10.1786 5.35672C10.249 5.35672 10.3187 5.3706 10.3837 5.39756C10.4488 5.42452 10.5078 5.46403 10.5576 5.51384Z" fill="#58595B"/>
</svg>
