<svg width="11" height="14" viewBox="0 0 11 14" fill="none" xmlns="http://www.w3.org/2000/svg">
<path d="M10.2671 5.46656C10.2671 8.4624 6.94367 11.5824 5.82766 12.5461C5.72369 12.6242 5.59713 12.6665 5.46705 12.6665C5.33697 12.6665 5.21041 12.6242 5.10645 12.5461C3.99043 11.5824 0.666992 8.4624 0.666992 5.46656C0.666992 4.19351 1.17271 2.97259 2.0729 2.07241C2.97308 1.17222 4.194 0.666504 5.46705 0.666504C6.74011 0.666504 7.96102 1.17222 8.86121 2.07241C9.76139 2.97259 10.2671 4.19351 10.2671 5.46656Z" stroke="#58595B" stroke-width="1.33333" stroke-linecap="round" stroke-linejoin="round"/>
<path d="M5.46604 7.26557C6.46016 7.26557 7.26606 6.45967 7.26606 5.46555C7.26606 4.47142 6.46016 3.66553 5.46604 3.66553C4.47191 3.66553 3.66602 4.47142 3.66602 5.46555C3.66602 6.45967 4.47191 7.26557 5.46604 7.26557Z" stroke="#58595B" stroke-width="1.33333" stroke-linecap="round" stroke-linejoin="round"/>
</svg>
