<svg width="15" height="15" viewBox="0 0 15 15" fill="none" xmlns="http://www.w3.org/2000/svg">
<path fill-rule="evenodd" clip-rule="evenodd" d="M7.2002 0.200195C3.33418 0.200195 0.200195 3.33418 0.200195 7.2002C0.200195 11.0662 3.33418 14.2002 7.2002 14.2002C11.0662 14.2002 14.2002 11.0662 14.2002 7.2002C14.2002 3.33418 11.0662 0.200195 7.2002 0.200195ZM9.08515 10.7138V11.2941H5.31539V10.7138H9.08515ZM6.67837 7.74862C7.69018 7.14118 8.75978 8.49479 7.91745 9.33722C7.11108 10.1436 5.79176 9.192 6.28699 8.17547L4.13108 6.03255L4.53899 5.62228L6.67837 7.74862ZM6.89266 8.31179C7.29762 7.90683 7.91215 8.52194 7.50719 8.92632C7.10281 9.33187 6.4877 8.71676 6.89266 8.31179ZM12.5994 7.20021H12.0191C12.0191 5.86962 11.4795 4.66483 10.6076 3.79285C8.39397 1.5792 4.70023 2.03544 3.0799 4.69958L2.5858 4.39793C3.0675 3.60571 3.74815 2.94691 4.5575 2.49182C8.12717 0.48355 12.5994 3.05972 12.5994 7.20021ZM2.66062 2.66064C5.16775 0.153514 9.23264 0.153514 11.7392 2.66064C14.2463 5.16776 14.2463 9.23266 11.7392 11.7392C9.23204 14.2463 5.16775 14.2463 2.66062 11.7392C0.153498 9.23266 0.153498 5.16776 2.66062 2.66064Z" fill="#58595B" stroke="#58595B" stroke-width="0.4"/>
</svg>
