<svg width="15" height="14" viewBox="0 0 15 14" fill="none" xmlns="http://www.w3.org/2000/svg">
<path d="M13.7036 5.39617C13.5582 5.41976 13.4284 5.49837 13.3428 5.61471C13.2572 5.73105 13.2227 5.8756 13.247 6.01655C13.3035 6.34332 13.3318 6.67407 13.3318 7.00539C13.3331 8.45644 12.7829 9.85711 11.7863 10.9399C11.1662 10.0689 10.2943 9.39518 9.2803 9.00327C9.82501 8.58742 10.2225 8.01739 10.4175 7.37243C10.6124 6.72747 10.5952 6.03965 10.3682 5.40462C10.1411 4.76959 9.7156 4.21892 9.15072 3.82918C8.58583 3.43944 7.90969 3.23001 7.21631 3.23001C6.52294 3.23001 5.84679 3.43944 5.28191 3.82918C4.71702 4.21892 4.29148 4.76959 4.06445 5.40462C3.83742 6.03965 3.8202 6.72747 4.01517 7.37243C4.21014 8.01739 4.60762 8.58742 5.15233 9.00327C4.13828 9.39518 3.26641 10.0689 2.64636 10.9399C1.86435 10.0857 1.35353 9.0308 1.17533 7.90197C0.997124 6.77314 1.15912 5.61844 1.64184 4.57672C2.12456 3.535 2.90745 2.65061 3.89637 2.02989C4.88529 1.40917 6.03815 1.07854 7.21631 1.07776C7.55813 1.07771 7.89937 1.10519 8.23649 1.15994C8.38126 1.18208 8.52918 1.14792 8.6481 1.06489C8.76701 0.981855 8.84729 0.856671 8.87148 0.716565C8.89566 0.576459 8.86179 0.432765 8.77723 0.316739C8.69267 0.200713 8.56427 0.121743 8.41996 0.0970053C6.91015 -0.149183 5.35868 0.0760798 3.98957 0.74027C2.62045 1.40446 1.50454 2.47321 0.802935 3.79221C0.101334 5.1112 -0.149646 6.6122 0.0862336 8.07846C0.322113 9.54473 1.03265 10.9004 2.11524 11.9497C3.19784 12.9991 4.59648 13.6878 6.10922 13.9164C7.62197 14.145 9.17054 13.9018 10.5313 13.2217C11.8921 12.5417 12.9948 11.4601 13.68 10.133C14.3653 8.80595 14.5977 7.30215 14.3437 5.83872C14.3193 5.69777 14.2382 5.57196 14.1182 5.48897C13.9982 5.40598 13.849 5.3726 13.7036 5.39617ZM4.99249 6.46651C4.99249 6.0402 5.12291 5.62345 5.36727 5.26898C5.61163 4.91451 5.95894 4.63823 6.36529 4.47509C6.77164 4.31194 7.21878 4.26926 7.65016 4.35243C8.08154 4.4356 8.47778 4.64089 8.78879 4.94234C9.0998 5.2438 9.3116 5.62787 9.3974 6.046C9.48321 6.46412 9.43917 6.89752 9.27086 7.29139C9.10254 7.68525 8.81751 8.0219 8.4518 8.25875C8.0861 8.4956 7.65614 8.62201 7.21631 8.62201C6.62652 8.62201 6.06088 8.39492 5.64383 7.99068C5.22678 7.58645 4.99249 7.03819 4.99249 6.46651ZM3.46917 11.6869C3.87136 11.0772 4.42542 10.5754 5.08028 10.2279C5.73513 9.88036 6.46972 9.69819 7.21631 9.69819C7.96291 9.69819 8.69749 9.88036 9.35235 10.2279C10.0072 10.5754 10.5613 11.0772 10.9635 11.6869C9.89208 12.4945 8.57355 12.933 7.21631 12.933C5.85907 12.933 4.54054 12.4945 3.46917 11.6869ZM14.8371 1.45901L12.6133 3.61452C12.5616 3.66462 12.5003 3.70436 12.4328 3.73148C12.3653 3.7586 12.293 3.77256 12.2199 3.77256C12.1469 3.77256 12.0745 3.7586 12.007 3.73148C11.9395 3.70436 11.8782 3.66462 11.8266 3.61452L10.7147 2.53676C10.663 2.4867 10.622 2.42726 10.5941 2.36184C10.5661 2.29643 10.5517 2.22632 10.5517 2.15551C10.5517 2.0847 10.5661 2.01459 10.5941 1.94918C10.622 1.88376 10.663 1.82432 10.7147 1.77426C10.819 1.67314 10.9605 1.61633 11.108 1.61633C11.1811 1.61633 11.2534 1.63028 11.3209 1.65738C11.3884 1.68447 11.4497 1.72419 11.5013 1.77426L12.2199 2.47143L14.0504 0.696504C14.102 0.646437 14.1634 0.606722 14.2309 0.579626C14.2984 0.55253 14.3707 0.538584 14.4437 0.538584C14.5168 0.538584 14.5891 0.55253 14.6566 0.579626C14.7241 0.606722 14.7854 0.646437 14.8371 0.696504C14.8887 0.746571 14.9297 0.806009 14.9577 0.871425C14.9856 0.936841 15 1.00695 15 1.07776C15 1.14856 14.9856 1.21868 14.9577 1.28409C14.9297 1.34951 14.8887 1.40895 14.8371 1.45901Z" fill="#58595B"/>
</svg>
