<svg width="36" height="36" viewBox="0 0 36 36" fill="none" xmlns="http://www.w3.org/2000/svg">
<rect width="36" height="36" rx="18" fill="white"/>
<path d="M22.6309 9.98438C24.2485 9.98461 25.5594 11.2964 25.5596 12.9141C25.5596 14.5318 24.2486 15.8435 22.6309 15.8438C21.8233 15.8437 21.0924 15.5168 20.5625 14.9883L16.7344 17.2227C16.8025 17.4705 16.8428 17.7305 16.8428 18C16.8428 18.2692 16.8023 18.5288 16.7344 18.7764L20.5615 21.0078C21.0915 20.4791 21.8232 20.1523 22.6309 20.1523C24.2485 20.1526 25.5595 21.4643 25.5596 23.082C25.5596 24.6998 24.2486 26.0114 22.6309 26.0117C21.0129 26.0117 19.7012 24.6999 19.7012 23.082C19.7012 22.8126 19.7405 22.5525 19.8086 22.3047L15.9805 20.0742C15.4508 20.6022 14.721 20.9295 13.9141 20.9297C12.2961 20.9297 10.9844 19.6179 10.9844 18C10.9844 16.3821 12.2961 15.0703 13.9141 15.0703C14.7213 15.0705 15.4518 15.3975 15.9814 15.9258L19.8086 13.6914C19.7405 13.4437 19.7012 13.1834 19.7012 12.9141C19.7013 11.2963 21.013 9.98442 22.6309 9.98438ZM22.6309 21.6523C22.1385 21.6523 21.7035 21.9011 21.4463 22.2803C21.4339 22.3096 21.4207 22.339 21.4043 22.3672C21.3889 22.3937 21.3716 22.4185 21.3535 22.4424C21.2568 22.635 21.2012 22.8518 21.2012 23.082C21.2012 23.8718 21.8417 24.5117 22.6309 24.5117C23.4198 24.5114 24.0596 23.8717 24.0596 23.082C24.0595 22.2924 23.4198 21.6526 22.6309 21.6523ZM13.9141 16.5703C13.1249 16.5703 12.4844 17.2102 12.4844 18C12.4844 18.7898 13.1249 19.4297 13.9141 19.4297C14.703 19.4294 15.3428 18.7896 15.3428 18C15.3427 17.2104 14.703 16.5706 13.9141 16.5703ZM22.6309 11.4844C21.8418 11.4844 21.2013 12.1244 21.2012 12.9141C21.2012 13.7039 21.8417 14.3437 22.6309 14.3438C23.4199 14.3435 24.0596 13.7037 24.0596 12.9141C24.0594 12.1245 23.4198 11.4846 22.6309 11.4844Z" fill="#58595B"/>
</svg>
