<svg width="20" height="20" viewBox="0 0 20 20" fill="none" xmlns="http://www.w3.org/2000/svg">
<path d="M16.0288 1.57901L15.4446 0L14.8604 1.57901C14.4498 2.68752 13.5765 3.56079 12.4679 3.97146L10.8889 4.55566L12.4679 5.13987C13.5764 5.55047 14.4497 6.42372 14.8604 7.53232L15.4446 9.11133L16.0288 7.53232C16.4394 6.42381 17.3126 5.55054 18.4212 5.13987L20.0002 4.55566L18.4212 3.97146C17.3127 3.56086 16.4395 2.68761 16.0288 1.57901Z" fill="#EB0A1E"/>
<path d="M8.65017 7.32381L7.66666 4.66669L6.68314 7.32381C5.99303 9.18926 4.52253 10.6598 2.65712 11.3498L0 12.3333L2.65712 13.3169C4.52258 14.007 5.99314 15.4775 6.68314 17.3429L7.66666 20L8.65017 17.3429C9.34029 15.4774 10.8108 14.0069 12.6762 13.3169L15.3333 12.3333L12.6762 11.3498C10.8107 10.6597 9.34017 9.18922 8.65017 7.32381Z" fill="#EB0A1E"/>
</svg>
