<svg width="12" height="16" viewBox="0 0 12 16" fill="none" xmlns="http://www.w3.org/2000/svg">
<path d="M12 5.86873C12.0006 4.88031 11.7457 3.90776 11.2588 3.04143C10.772 2.1751 10.0691 1.44309 9.21548 0.913376C8.3618 0.383666 7.38503 0.0734429 6.37588 0.0115217C5.36673 -0.0503994 4.35794 0.13799 3.4432 0.559191C2.52847 0.980392 1.73746 1.62074 1.14365 2.42077C0.549846 3.22079 0.172495 4.15454 0.0466518 5.13528C-0.0791912 6.11602 0.0505553 7.11194 0.42384 8.03055C0.797125 8.94915 1.40184 9.76064 2.18182 10.3896V15.4664C2.18175 15.5573 2.20548 15.6468 2.25074 15.7262C2.296 15.8057 2.3613 15.8725 2.44042 15.9203C2.51954 15.9681 2.60986 15.9954 2.70279 15.9995C2.79572 16.0035 2.88817 15.9843 2.97136 15.9436L6 14.4667L9.02932 15.947C9.10526 15.9825 9.18854 16.0005 9.27273 15.9996C9.41739 15.9996 9.55613 15.9434 9.65842 15.8434C9.76071 15.7435 9.81818 15.6078 9.81818 15.4664V10.3896C10.5006 9.84019 11.0502 9.14987 11.4274 8.36823C11.8046 7.58658 12.0002 6.73299 12 5.86873ZM1.09091 5.86873C1.09091 4.91961 1.37882 3.9918 1.91824 3.20264C2.45766 2.41347 3.22435 1.79839 4.12137 1.43518C5.01839 1.07197 6.00545 0.976936 6.95772 1.1621C7.90999 1.34726 8.7847 1.80431 9.47125 2.47544C10.1578 3.14657 10.6253 4.00164 10.8148 4.93253C11.0042 5.86341 10.907 6.8283 10.5354 7.70517C10.1639 8.58204 9.53464 9.33152 8.72734 9.85882C7.92005 10.3861 6.97093 10.6676 6 10.6676C4.69847 10.6662 3.45066 10.1601 2.53034 9.26047C1.61002 8.36082 1.09235 7.14103 1.09091 5.86873ZM8.72727 14.604L6.24341 13.3902C6.16763 13.3532 6.08406 13.3339 5.99932 13.3339C5.91458 13.3339 5.83101 13.3532 5.75523 13.3902L3.27273 14.604V11.0921C4.11707 11.514 5.05176 11.734 6 11.734C6.94823 11.734 7.88293 11.514 8.72727 11.0921V14.604ZM6 9.60116C6.75516 9.60116 7.49337 9.38226 8.12127 8.97214C8.74916 8.56201 9.23855 7.97908 9.52754 7.29707C9.81653 6.61506 9.89214 5.86459 9.74482 5.14057C9.59749 4.41655 9.23384 3.75149 8.69986 3.2295C8.16588 2.70752 7.48554 2.35204 6.74489 2.20802C6.00424 2.064 5.23653 2.13792 4.53884 2.42042C3.84116 2.70291 3.24484 3.18131 2.8253 3.7951C2.40575 4.4089 2.18182 5.13053 2.18182 5.86873C2.1829 6.85831 2.58552 7.80705 3.30133 8.50679C4.01715 9.20653 4.98769 9.60011 6 9.60116ZM6 3.20271C6.5394 3.20271 7.06669 3.35907 7.51519 3.65202C7.96369 3.94496 8.31325 4.36134 8.51967 4.84849C8.72609 5.33564 8.7801 5.87169 8.67487 6.38885C8.56964 6.906 8.30989 7.38104 7.92847 7.75389C7.54706 8.12674 7.0611 8.38066 6.53206 8.48353C6.00303 8.5864 5.45466 8.5336 4.95632 8.33182C4.45797 8.13003 4.03203 7.78832 3.73236 7.3499C3.43268 6.91147 3.27273 6.39602 3.27273 5.86873C3.27273 5.16166 3.56006 4.48355 4.07153 3.98357C4.58299 3.48359 5.27668 3.20271 6 3.20271Z" fill="#58595B"/>
</svg>
