<svg width="20" height="20" viewBox="0 0 20 20" fill="none" xmlns="http://www.w3.org/2000/svg">
<path d="M17.3177 1.06647L16.9231 0L16.5285 1.06647C16.2512 1.81517 15.6614 2.40498 14.9126 2.68235L13.8462 3.07692L14.9126 3.4715C15.6613 3.74882 16.2511 4.33862 16.5285 5.08737L16.9231 6.15385L17.3177 5.08737C17.595 4.33868 18.1848 3.74886 18.9335 3.4715L20 3.07692L18.9335 2.68235C18.1848 2.40503 17.595 1.81523 17.3177 1.06647Z" fill="#EB0A1E"/>
<path d="M3.4715 14.53L3.07692 13.4635L2.68235 14.53C2.40503 15.2787 1.81523 15.8685 1.06647 16.1459L0 16.5405L1.06647 16.935C1.81517 17.2124 2.40498 17.8022 2.68235 18.5509L3.07692 19.6174L3.4715 18.5509C3.74882 17.8022 4.33862 17.2124 5.08737 16.935L6.15385 16.5405L5.08737 16.1459C4.33868 15.8686 3.74886 15.2788 3.4715 14.53Z" fill="#EB0A1E"/>
<path d="M11.4361 4.66905L10.4273 1.9438L9.41861 4.66905C8.7108 6.58234 7.2026 8.09061 5.28936 8.7983L2.5641 9.80704L5.28936 10.8158C7.20264 11.5236 8.71091 13.0318 9.41861 14.945L10.4273 17.6703L11.4361 14.945C12.1439 13.0317 13.6521 11.5235 15.5653 10.8158L18.2906 9.80704L15.5653 8.7983C13.652 8.09049 12.1438 6.58229 11.4361 4.66905Z" fill="#EB0A1E"/>
</svg>
