<svg width="1440" height="1519" viewBox="0 0 1440 1519" fill="none" xmlns="http://www.w3.org/2000/svg">
<g opacity="0.12">
<path d="M648.398 1432.54C594.782 1432.54 541.84 1412.88 495.004 1375.54C449.882 1339.56 412.575 1289.33 387.11 1230.29C358.473 1163.9 347.396 1090.45 355.917 1023.48C365.419 948.814 398.655 883.124 452.037 833.517C516.681 773.431 555.293 669.298 560.75 540.302C565.767 421.715 542.524 294.942 496.984 192.487C470.848 133.688 438.004 85.4072 402.007 52.8633C362.499 17.1513 319.726 -0.0242328 274.874 1.7527C202.883 4.63913 128.854 55.9231 54.8474 154.174C-30.0787 266.923 -113.142 439.849 -192.039 668.15L-193.641 667.634C-114.685 439.177 -31.5409 266.099 53.4841 153.221C127.801 54.5449 202.267 3.03556 274.802 0.127456C320.086 -1.67548 363.309 15.6561 403.158 51.6801C439.327 84.3757 472.306 132.847 498.536 191.85C544.171 294.517 567.463 421.551 562.437 540.367C556.962 669.784 518.175 774.311 453.211 834.687C329.444 949.707 341.093 1119.35 388.671 1229.67C441.59 1352.37 543.244 1430.91 648.515 1430.91C649.883 1430.91 651.237 1430.9 652.605 1430.87C722.792 1429.52 791.3 1395.6 856.232 1330.07C930.639 1254.97 997.713 1140.32 1055.59 989.276C1123.53 811.964 1192.64 722.831 1266.87 716.786C1375.98 707.892 1480.18 882.153 1580.88 1050.68C1628.45 1130.29 1677.65 1212.61 1725.95 1272.59C1779.87 1339.55 1827.36 1371.55 1871.03 1370.12C1921.13 1368.6 1967.67 1324.66 2013.3 1235.79L2014.81 1236.51C1968.88 1325.97 1921.87 1370.21 1871.08 1371.75C1870.2 1371.78 1869.31 1371.79 1868.42 1371.79C1824.88 1371.79 1777.81 1339.63 1724.62 1273.58C1676.25 1213.52 1627.03 1131.14 1579.43 1051.48C1479 883.397 1375.13 709.622 1267.03 718.402C1193.52 724.392 1124.88 813.178 1057.19 989.835C999.229 1141.08 932.034 1255.93 857.465 1331.19C792.214 1397.04 723.305 1431.13 652.65 1432.49C651.237 1432.52 649.82 1432.53 648.412 1432.53L648.398 1432.54Z" fill="#EB0D1C"/>
<path d="M647.507 1434.09C590.219 1434.09 533.624 1412.87 483.67 1372.64C436.699 1334.81 396.967 1280.59 371.79 1219.98C344.687 1154.74 335.203 1086.39 344.354 1022.3C354.414 951.876 387.249 889.973 439.313 843.288C577.406 719.444 571.498 429.753 486.833 232.374C428.718 96.8943 342.343 20.9586 249.773 23.9664C176.594 26.3631 101.863 76.2082 27.6493 172.11C-57.4927 282.137 -140.124 451.184 -217.955 674.553L-219.552 674.037C-141.667 450.508 -58.9504 281.309 26.2995 171.144C100.833 74.8256 176 24.7638 249.714 22.3498C342.95 19.29 429.995 95.6201 488.39 231.763C573.271 429.644 579.084 720.172 440.46 844.488C320.751 951.837 327.302 1108.54 373.351 1219.39C427.237 1349.11 534.641 1432.47 647.511 1432.47C648.371 1432.47 649.217 1432.47 650.081 1432.46C721.437 1431.66 790.738 1398.9 856.065 1335.09C930.913 1261.98 997.901 1150 1055.18 1002.25C1121.88 830.138 1190.62 743.229 1265.31 736.559C1377.04 726.591 1485.5 899.959 1590.38 1067.63C1639.87 1146.75 1691.04 1228.57 1741.07 1288.08C1796.93 1354.54 1845.88 1386.11 1890.51 1384.43C1940.92 1382.61 1987.34 1339.88 2032.42 1253.79L2033.93 1254.52C1988.55 1341.18 1941.66 1384.21 1890.58 1386.06C1845.35 1387.68 1795.98 1355.98 1739.76 1289.1C1689.66 1229.5 1638.45 1147.64 1588.94 1068.47C1484.33 901.224 1376.16 728.268 1265.47 738.171C1191.49 744.781 1123.22 831.348 1056.76 1002.81C999.404 1150.78 932.286 1262.96 857.276 1336.23C791.624 1400.36 721.923 1433.28 650.107 1434.09C649.239 1434.1 648.371 1434.1 647.507 1434.1V1434.09Z" fill="#EB0D1C"/>
<path d="M646.752 1435.6C585.631 1435.6 525.244 1412.79 472.05 1369.6C422.528 1329.39 381.433 1272.63 356.332 1209.79C331.182 1146.81 322.998 1081.61 332.657 1021.23C343.271 954.904 375.714 896.647 426.474 852.757C560.396 736.957 557.363 466.794 477.067 272.502C448.969 204.511 412.297 147.857 371.017 108.66C325.522 65.4593 276.193 44.2098 224.489 45.5273C150.1 47.4082 74.6308 95.8144 0.187759 189.402C-85.2062 296.755 -167.437 462.001 -244.233 680.559L-245.831 680.039C-168.98 461.312 -86.6594 295.906 -1.15298 188.414C73.614 94.4189 149.515 45.796 224.444 43.9021C276.661 42.5845 326.367 63.9814 372.2 107.503C413.642 146.856 450.445 203.705 478.632 271.9C559.145 466.708 562.069 737.69 427.598 853.966C311.651 954.215 315.574 1103.2 357.902 1209.2C411.622 1343.72 527.655 1433.97 646.77 1433.97H647.45C720.012 1433.76 790.154 1402.16 855.918 1340.05C931.252 1268.9 998.204 1159.52 1054.91 1014.95C1120.4 847.972 1188.74 763.256 1263.83 755.957C1378.22 744.858 1491.07 917.437 1600.25 1084.34C1651.71 1163 1704.91 1244.34 1756.7 1303.43C1814.54 1369.4 1864.83 1400.6 1910.61 1398.63C1961.29 1396.5 2007.58 1354.96 2052.1 1271.62L2053.6 1272.37C2008.77 1356.27 1962.02 1398.1 1910.68 1400.25C1864.47 1402.13 1813.61 1370.86 1755.41 1304.47C1703.54 1245.31 1650.3 1163.92 1598.82 1085.21C1489.92 918.72 1377.27 746.579 1264 757.574C1189.6 764.799 1121.73 849.177 1056.49 1015.52C999.693 1160.31 932.611 1269.89 857.097 1341.21C791.009 1403.63 720.475 1435.38 647.454 1435.59H646.748L646.752 1435.6Z" fill="#EB0D1C"/>
<path d="M646.18 1437.08C645.676 1437.08 645.177 1437.08 644.673 1437.08C580.079 1436.71 516.276 1412.29 460.163 1366.45C408.035 1323.87 365.64 1264.7 340.786 1199.83C317.566 1139.23 310.66 1077.16 320.824 1020.32C331.982 957.937 364.029 903.172 413.506 861.956C546.425 751.223 540.567 496.32 467.577 312.707C405.547 156.67 305.176 64.6644 199.036 66.5063C123.401 67.8412 47.1672 114.817 -27.5503 206.125C-113.237 310.843 -195.121 472.384 -270.928 686.257L-272.525 685.732C-196.66 471.686 -114.681 309.981 -28.8775 205.12C46.1639 113.413 122.834 66.229 199 64.8854C305.828 62.9438 406.852 155.427 469.147 312.13C507.728 409.185 526.026 520.928 519.349 618.707C511.903 727.763 475.68 812.306 414.604 863.191C319.191 942.677 292.182 1068.31 342.366 1199.27C395.379 1337.63 519.695 1434.75 644.682 1435.46C718.41 1435.85 789.514 1405.44 855.76 1345.01C931.634 1275.79 998.59 1168.95 1054.77 1027.47C1119.05 865.54 1186.97 782.982 1262.41 775.073C1379.39 762.816 1496.87 934.68 1610.45 1100.9C1663.92 1179.14 1719.2 1260.04 1772.8 1318.71C1832.67 1384.24 1884.54 1415 1931.25 1412.79C1982.17 1410.38 2028.31 1370.01 2072.29 1289.37L2073.78 1290.13C2029.5 1371.32 1982.91 1411.97 1931.33 1414.41C1884.09 1416.67 1831.76 1385.7 1771.53 1319.78C1717.85 1261.02 1662.53 1180.07 1609.04 1101.79C1495.73 935.976 1378.53 764.55 1262.58 776.685C1187.84 784.525 1120.38 866.745 1056.34 1028.04C1000.07 1169.76 932.974 1276.8 856.912 1346.18C790.792 1406.5 719.894 1437.08 646.171 1437.08L646.18 1437.08Z" fill="#EB0D1C"/>
<path d="M645.752 1438.53C644.407 1438.53 643.062 1438.53 641.716 1438.5C573.847 1437.53 506.868 1411.5 448.014 1363.22C393.246 1318.3 349.622 1256.85 325.169 1190.2C279.197 1064.89 307.317 945.519 400.391 870.87C528.86 767.834 526.74 532.231 458.245 352.752C428.821 275.646 388.369 210.246 341.258 163.626C289.932 112.827 231.794 86.2339 173.39 86.8623C96.4774 87.6208 19.4383 133.162 -55.5851 222.221C-141.613 324.347 -223.192 482.26 -298.049 691.569L-299.646 691.041C-224.722 481.549 -143.049 323.467 -56.8944 221.194C18.462 131.741 95.933 85.9955 173.372 85.2328C232.257 84.626 290.814 111.367 342.469 162.49C389.741 209.276 430.324 274.875 459.829 352.193C496.295 447.748 512.262 551.27 504.785 643.692C496.547 745.527 460.823 824.519 401.466 872.123C308.959 946.316 281.033 1065.02 326.758 1189.66C379.456 1333.31 508.982 1434.98 641.739 1436.88C716.915 1437.93 788.798 1408.71 855.566 1349.93C932.038 1282.61 999.044 1178.25 1054.73 1039.76C1117.83 882.819 1185.31 802.389 1261.03 793.873C1380.82 780.39 1502.89 951.656 1621 1117.27C1676.52 1195.11 1733.94 1275.61 1789.39 1333.9C1851.33 1399 1904.73 1429.43 1952.49 1426.9C2003.62 1424.2 2049.59 1384.99 2093.04 1307.01L2094.52 1307.78C2050.78 1386.3 2004.35 1425.79 1952.59 1428.52C1904.19 1431.05 1850.45 1400.47 1788.15 1334.99C1732.61 1276.62 1675.17 1196.07 1619.62 1118.18C1501.79 952.969 1379.91 782.119 1261.23 795.481C1186.19 803.919 1119.16 884.015 1056.31 1040.34C1000.53 1179.07 933.374 1283.63 856.713 1351.13C790.809 1409.14 719.858 1438.54 645.761 1438.54L645.752 1438.53Z" fill="#EB0D1C"/>
<path d="M1968.02 1442.76C1920.24 1442.76 1866.93 1412.38 1805.28 1350.12C1747.85 1292.1 1688.22 1211.93 1630.55 1134.4C1508.07 969.707 1381.42 799.43 1259.92 813.979C1184.65 823.011 1118.08 901.005 1056.41 1052.43C1001.08 1188.28 933.816 1290.43 856.493 1356.04C790.846 1411.74 719.885 1439.95 645.497 1439.96C643.202 1439.96 640.921 1439.93 638.617 1439.87C567.445 1438.22 497.272 1410.58 435.678 1359.94C378.242 1312.72 333.453 1249.17 309.558 1180.98C290.045 1125.3 285.605 1069.31 296.718 1019.07C309.063 963.245 339.496 916.287 387.169 879.508C515.745 780.299 509.33 557.424 448.956 392.326C419.194 310.934 376.92 241.196 326.714 190.657C272.098 135.681 210.298 106.626 147.976 106.626H147.584C69.3618 106.777 -8.51862 150.889 -83.8885 237.737C-170.304 337.31 -251.617 491.678 -325.574 696.55L-327.167 696.016C-253.147 490.959 -171.73 336.418 -85.1842 236.693C-9.48138 149.463 68.8354 105.152 147.58 105H147.976C210.775 105 272.989 134.225 327.933 189.535C378.305 240.242 420.701 310.18 450.544 391.789C484.256 483.977 498.307 582.037 490.105 667.915C481.052 762.725 445.82 836.333 388.221 880.778C298.468 950.027 269.66 1062.06 311.155 1180.46C355.081 1305.8 481.678 1434.6 638.658 1438.25C715.103 1440.04 788.034 1411.96 855.378 1354.82C932.498 1289.38 999.607 1187.44 1054.84 1051.84C1116.76 899.813 1183.78 821.481 1259.72 812.371C1382.22 797.67 1509.16 968.377 1631.94 1133.45C1689.57 1210.94 1749.16 1291.07 1806.51 1349C1870.57 1413.7 1925.47 1443.75 1974.36 1440.95C2025.65 1437.98 2071.45 1399.9 2114.35 1324.54L2115.83 1325.33C2072.62 1401.22 2026.38 1439.57 1974.46 1442.57C1972.33 1442.7 1970.18 1442.76 1968.03 1442.76L1968.02 1442.76Z" fill="#EB0D1C"/>
<path d="M1989.6 1456.82C1940.94 1456.82 1886.31 1426.76 1822.91 1365.16C1763.54 1307.49 1701.67 1227.65 1641.85 1150.45C1514.58 986.201 1383.03 816.335 1258.66 832.185C1183.22 841.789 1117.14 917.72 1056.62 1064.32C1001.7 1197.38 934.279 1297.18 856.227 1360.93C787.93 1416.73 713.591 1443.72 635.301 1441.2C560.817 1438.78 487.441 1409.54 423.107 1356.64C362.99 1307.19 317.103 1241.71 293.905 1172.25C255.604 1057.57 284.709 953.917 373.76 887.872C497.438 796.148 495.922 592.42 439.556 431.205C390.511 290.923 277.798 126.769 121.56 125.807C121.115 125.807 120.656 125.807 120.206 125.807C41.0885 125.807 -37.2058 168.475 -112.535 252.667C-199.387 349.726 -280.484 500.627 -353.577 701.182L-355.17 700.64C-282.005 499.894 -200.8 348.816 -113.813 251.605C-38.1507 167.053 40.5846 124.182 120.206 124.182C120.665 124.182 121.11 124.182 121.574 124.182C188.584 124.593 254.956 156.413 313.508 216.205C366.323 270.137 411.657 346.307 441.162 430.689C497.721 592.451 499.134 796.954 374.795 889.164C286.342 954.763 257.444 1057.76 295.516 1171.76C337.547 1297.61 470.938 1434.24 635.359 1439.57C803.713 1444.99 952.761 1311.54 1055.06 1063.72C1115.82 916.524 1182.34 840.259 1258.45 830.573C1383.69 814.632 1515.64 984.849 1643.2 1149.48C1703 1226.64 1764.82 1306.42 1824.11 1364.02C1890.34 1428.36 1946.83 1458.12 1996.79 1454.96C2048.22 1451.74 2093.81 1414.78 2136.19 1341.99L2137.66 1342.78C2094.98 1416.1 2048.94 1453.32 1996.9 1456.59C1994.49 1456.74 1992.05 1456.82 1989.6 1456.82Z" fill="#EB0D1C"/>
<path d="M2011.78 1470.84C1962.21 1470.84 1906.25 1441.09 1841.06 1380.13C1779.71 1322.77 1715.56 1243.24 1653.52 1166.33C1521.33 1002.45 1384.61 832.992 1257.47 850.093C1181.93 860.252 1116.35 934.151 1056.98 1076.01C1002.43 1206.38 934.782 1303.88 855.943 1365.8C786.962 1419.98 711.529 1445.77 631.786 1442.44C555.098 1439.25 476.462 1407.59 410.356 1353.31C347.548 1301.73 300.635 1234.52 278.27 1164.05C243.766 1055.35 273.636 957.637 360.222 895.96C486.743 805.839 476.858 609.636 429.945 469.002C376.594 309.057 252.454 146.658 95.3836 144.4C14.3358 143.2 -65.2632 184.485 -141.447 266.996C-228.776 361.576 -309.702 509.092 -381.972 705.447L-383.56 704.905C-311.214 508.355 -230.18 360.657 -142.703 265.921C-66.1765 183.042 14.0119 141.557 95.4151 142.784C166.583 143.807 237.031 178.249 299.137 242.383C355.201 300.276 402.23 380.585 431.56 468.513C459.725 552.943 469.911 640.025 460.247 713.72C449.552 795.282 415.314 858.753 361.23 897.277C275.255 958.517 245.606 1055.58 279.889 1163.59C320.836 1292.58 458.11 1433.59 631.863 1440.83C803.416 1448 953.813 1318.21 1055.42 1075.41C1115.03 932.968 1181.05 858.74 1257.25 848.494C1385.38 831.267 1522.37 1001.1 1654.85 1165.34C1716.86 1242.21 1780.97 1321.69 1842.24 1378.97C1910.68 1442.96 1968.71 1472.38 2019.85 1468.96C2071.37 1465.48 2116.76 1429.63 2158.61 1359.35L2160.07 1360.16C2117.92 1430.95 2072.09 1467.06 2019.96 1470.58C2017.26 1470.76 2014.52 1470.85 2011.78 1470.85V1470.84Z" fill="#EB0D1C"/>
<path d="M2034.56 1484.84C1984.06 1484.84 1926.75 1455.37 1859.74 1395.03C1796.36 1337.95 1729.86 1258.7 1665.55 1182.05C1528.3 1018.47 1386.34 849.339 1256.33 867.728C1180.75 878.42 1115.7 950.308 1057.47 1087.5C1003.24 1215.27 935.327 1310.54 855.62 1370.65C785.892 1423.24 709.334 1447.77 628.043 1443.63C548.098 1439.54 466.195 1406.29 397.426 1350C332.881 1297.16 283.755 1226.6 262.64 1156.42C248.103 1108.1 246.943 1060.53 259.279 1018.85C272.925 972.749 302.278 934.038 346.522 903.795C398.501 868.265 432.002 809.852 443.403 734.87C453.877 665.994 445.792 586.683 420.025 505.52C391.203 414.728 342.721 330.774 283.498 269.119C218.107 201.036 143.943 164.15 69.0235 162.447C-13.32 160.544 -94.0304 200.378 -170.691 280.764C-258.56 372.9 -339.369 517.105 -410.87 709.373L-412.458 708.827C-340.881 516.355 -259.955 371.964 -171.933 279.668C-94.9302 198.926 -13.869 158.958 69.0594 160.826C144.447 162.542 219.025 199.606 284.735 268.022C344.124 329.855 392.742 414.034 421.636 505.052C447.474 586.444 455.577 665.999 445.067 735.113C433.599 810.545 399.86 869.336 347.494 905.126C263.841 962.308 233.504 1053.74 264.26 1155.98C304.424 1289.49 451.51 1432.98 628.129 1442.01C802.993 1450.96 954.911 1324.83 1055.91 1086.89C1114.38 949.12 1179.86 876.907 1256.08 866.124C1387.14 847.605 1529.31 1017.1 1666.85 1181.04C1731.12 1257.63 1797.58 1336.85 1860.88 1393.85C1931.59 1457.52 1991.34 1486.63 2043.53 1482.91C2095.11 1479.2 2140.28 1444.44 2181.61 1376.63L2183.06 1377.45C2141.43 1445.75 2095.83 1480.78 2043.66 1484.53C2040.65 1484.74 2037.61 1484.85 2034.55 1484.85L2034.56 1484.84Z" fill="#EB0D1C"/>
<path d="M2057.93 1498.84C2006.49 1498.84 1947.81 1469.64 1878.94 1409.86C1813.49 1353.05 1744.59 1274.04 1677.96 1197.63C1535.52 1034.28 1388.2 865.364 1255.24 885.088C1179.68 896.291 1115.19 966.198 1058.09 1098.81C1004.13 1224.08 935.88 1317.17 855.224 1375.48C784.691 1426.48 706.914 1449.78 624.026 1444.74C540.841 1439.69 455.708 1404.86 384.306 1346.69C317.129 1291.95 267.085 1220.03 247.001 1149.37C233.747 1102.74 233.553 1058.95 246.421 1019.22C260.431 975.963 289.442 939.674 332.652 911.352C448.883 835.182 448.658 669.841 409.686 540.506C381.548 447.126 331.581 359.623 268.984 294.115C199.962 221.889 121.632 182.402 42.4605 179.928C-41.4127 177.297 -123.086 215.674 -200.264 293.959C-288.722 383.69 -369.46 524.661 -440.227 712.968L-441.811 712.418C-370.962 523.903 -290.108 382.736 -201.488 292.845C-123.963 214.205 -41.9032 175.676 42.5145 178.307C122.15 180.795 200.894 220.463 270.226 293.019C332.998 358.709 383.101 446.441 411.306 540.055C434.517 617.101 440.883 691.567 429.716 755.411C417.528 825.088 384.288 879.48 333.601 912.695C250.911 966.892 220.735 1050.79 248.63 1148.94C286.369 1281.74 440.667 1431.97 624.129 1443.12C802.503 1453.97 956.054 1331.46 1056.53 1098.19C1113.88 965.011 1178.79 894.783 1254.98 883.484C1388.91 863.609 1536.51 1032.89 1679.25 1196.59C1745.84 1272.96 1814.7 1351.92 1880.07 1408.66C1953.1 1472.05 2014.49 1500.9 2067.85 1496.84C2119.46 1492.93 2164.38 1459.24 2205.2 1393.84L2206.64 1394.68C2165.52 1460.55 2120.17 1494.5 2067.98 1498.46C2064.66 1498.71 2061.31 1498.84 2057.93 1498.84Z" fill="#EB0D1C"/>
<path d="M2081.94 1512.81C2029.54 1512.81 1969.45 1483.86 1898.69 1424.63C1831.12 1368.06 1759.76 1289.26 1690.75 1213.06C1542.97 1049.87 1390.22 881.113 1254.21 902.18C1178.74 913.869 1114.83 981.821 1058.84 1109.93C1005.12 1232.81 936.461 1323.78 854.77 1380.3C783.355 1429.72 704.269 1451.76 619.716 1445.77C533.314 1439.67 444.991 1403.31 371.003 1343.39C301.225 1286.88 250.326 1213.8 231.358 1142.9C206.333 1049.34 237.333 969.704 318.646 918.654C413.515 859.096 443.52 730.165 398.915 573.756C372.087 479.695 319.388 386.619 254.331 318.393C181.678 242.206 99.1726 200.18 15.7358 196.851C-69.6627 193.453 -152.411 230.366 -230.157 306.583C-319.267 393.939 -399.977 531.755 -470.056 716.214L-471.64 715.655C-401.48 530.979 -320.639 392.964 -231.358 305.443C-153.261 228.884 -70.1305 191.785 15.8079 195.226C99.6991 198.572 182.609 240.78 255.572 317.292C320.81 385.7 373.648 479.019 400.54 573.322C421.272 646.02 426.005 715.615 414.231 774.584C401.381 838.909 368.65 889.196 319.564 920.01C238.903 970.648 208.16 1049.66 232.991 1142.49C268.962 1276.97 427.094 1430.54 619.833 1444.15C801.896 1457.03 957.252 1338.09 1057.28 1109.29C1113.52 980.625 1177.85 912.356 1253.93 900.572C1390.84 879.379 1543.94 1048.47 1692.02 1211.99C1760.99 1288.15 1832.31 1366.9 1899.79 1423.4C1975.19 1486.52 2038.3 1515.09 2092.8 1510.75C2144.4 1506.64 2189.08 1474 2229.39 1410.98L2230.82 1411.83C2190.21 1475.32 2145.1 1508.21 2092.94 1512.37C2089.31 1512.66 2085.64 1512.8 2081.93 1512.8L2081.94 1512.81Z" fill="#EB0D1C"/>
<path d="M2106.57 1526.78C2053.2 1526.78 1991.67 1498.06 1918.99 1439.34C1849.25 1382.99 1775.38 1304.38 1703.94 1228.36C1550.67 1065.26 1392.14 896.612 1253.22 919.01C1177.9 931.154 1114.6 997.182 1059.7 1120.87C1006.17 1241.45 937.036 1330.35 854.22 1385.1C781.851 1432.96 701.389 1453.68 615.072 1446.72C525.499 1439.5 434.026 1401.65 357.509 1340.13C285.167 1281.96 233.472 1207.93 215.687 1137.01C193.479 1048.47 225 973.432 304.446 925.702C395.779 870.834 426.886 751.021 387.654 605.204C361.936 509.623 307.928 413.668 239.474 341.945C186.28 286.215 99.6221 218.648 -11.1516 213.261C-98.1473 209.044 -182.007 244.492 -260.378 318.663C-350.199 403.67 -430.95 538.405 -500.381 719.123L-501.964 718.559C-432.443 537.616 -351.562 402.682 -261.561 317.506C-182.839 243.005 -98.5566 207.388 -11.0706 211.64C100.275 217.053 187.306 284.893 240.711 340.849C309.346 412.763 363.497 508.968 389.282 604.797C407.693 673.222 410.905 738.184 398.577 792.658C384.945 852.878 353.577 898.108 305.337 927.085C226.561 974.416 195.306 1048.83 217.324 1136.63C235.033 1207.22 286.521 1280.94 358.589 1338.89C434.845 1400.19 525.98 1437.92 615.212 1445.11C722.899 1453.81 923.674 1423.14 1058.14 1120.24C1113.3 995.999 1177.01 929.655 1252.94 917.415C1392.81 894.879 1551.61 1063.85 1705.19 1227.28C1776.59 1303.26 1850.42 1381.83 1920.07 1438.11C1997.9 1500.99 2062.77 1529.28 2118.41 1524.68C2169.96 1520.39 2214.37 1488.79 2254.18 1428.08L2255.61 1428.94C2215.49 1490.12 2170.66 1521.96 2118.55 1526.3C2114.6 1526.63 2110.61 1526.79 2106.57 1526.79V1526.78Z" fill="#EB0D1C"/>
<path d="M2131.86 1540.75C2077.49 1540.75 2014.5 1512.26 1939.85 1454C1867.9 1397.84 1791.45 1319.39 1717.51 1243.52C1558.6 1080.44 1394.26 911.828 1252.29 935.565C1177.19 948.129 1114.52 1012.26 1060.69 1131.63C1007.3 1250 937.617 1336.88 853.578 1389.87C780.17 1436.16 698.24 1455.56 610.061 1447.57C517.351 1439.15 422.793 1399.83 343.806 1336.86C268.949 1277.18 216.515 1202.4 199.954 1131.67C180.333 1047.87 212.336 977.137 290.063 932.488C379.475 881.13 410.748 772.599 375.867 634.726C351.427 538.122 296.195 439.697 224.339 364.68C145.595 282.478 52.3412 234.34 -38.2403 229.131C-126.901 224.034 -211.921 258.03 -290.967 330.178C-381.566 412.87 -462.407 544.593 -531.24 721.688L-532.819 721.12C-463.896 543.791 -382.916 411.864 -292.128 328.999C-212.731 256.53 -127.283 222.396 -38.1413 227.506C52.8766 232.737 146.536 281.061 225.577 363.575C297.622 438.787 352.997 537.476 377.504 634.341C393.773 698.64 395.591 759.242 382.764 809.594C368.6 865.199 337.7 907.017 290.922 933.884C213.87 978.142 182.146 1048.26 201.592 1131.31C218.072 1201.69 270.298 1276.16 344.872 1335.61C423.602 1398.38 517.833 1437.56 610.209 1445.95C720.295 1455.95 925.025 1428.33 1059.13 1130.98C1113.2 1011.08 1176.29 946.634 1251.99 933.966C1394.85 910.068 1559.5 1079.01 1718.72 1242.4C1792.62 1318.23 1869.03 1396.65 1940.89 1452.73C2021.19 1515.4 2087.84 1543.49 2144.65 1538.58C2196.12 1534.13 2240.26 1503.55 2279.58 1445.1L2280.99 1445.99C2241.37 1504.89 2196.82 1535.7 2144.79 1540.19C2140.53 1540.56 2136.21 1540.74 2131.84 1540.74L2131.86 1540.75Z" fill="#EB0D1C"/>
<path d="M2157.8 1554.72C2102.41 1554.72 2037.93 1526.44 1961.27 1468.6C1887.06 1412.61 1807.97 1334.29 1731.48 1258.55C1566.78 1095.43 1396.45 926.766 1251.43 951.881C1176.61 964.84 1114.58 1027.1 1061.81 1142.22C1008.52 1258.48 938.198 1343.41 852.817 1394.64C778.275 1439.37 694.771 1457.42 604.644 1448.3C508.848 1438.61 411.275 1397.87 329.889 1333.6C252.576 1272.54 199.459 1197.18 184.166 1126.84C175.892 1088.8 178.803 1053.71 192.818 1022.57C207.967 988.915 235.785 960.801 275.504 939.014C361.914 891.613 394.025 790.774 363.597 662.354C318.52 472.101 141.658 258.237 -65.4693 244.468C-155.826 238.461 -242.102 270.983 -321.881 341.124C-413.326 421.528 -494.315 550.312 -562.59 723.901L-564.169 723.325C-495.796 549.497 -414.662 420.501 -323.019 339.924C-242.889 269.466 -156.195 236.818 -65.3568 242.842C142.545 256.663 320.027 471.169 365.239 661.99C395.843 791.156 363.44 892.645 276.336 940.427C200.867 981.825 168.721 1047.91 185.813 1126.51C201.034 1196.49 253.935 1271.51 330.956 1332.34C412.089 1396.42 509.347 1437.02 604.815 1446.68C717.447 1458.06 926.392 1433.59 1060.26 1141.56C1113.28 1025.91 1175.71 963.341 1251.12 950.278C1397.03 925.006 1567.67 1094 1732.69 1257.41C1809.13 1333.12 1888.18 1411.4 1962.3 1467.32C2045.13 1529.8 2113.58 1557.65 2171.57 1552.49C2222.95 1547.91 2266.79 1518.34 2305.63 1462.09L2307.03 1463C2267.9 1519.68 2223.64 1549.49 2171.73 1554.11C2167.15 1554.52 2162.5 1554.73 2157.79 1554.73L2157.8 1554.72Z" fill="#EB0D1C"/>
<path d="M2184.41 1568.71C2127.98 1568.71 2061.98 1540.61 1983.25 1483.16C1906.74 1427.33 1824.95 1349.11 1745.85 1273.46C1575.19 1110.24 1398.74 941.473 1250.61 967.941C1176.13 981.255 1114.78 1041.67 1063.06 1152.63C1009.8 1266.89 938.765 1349.91 851.922 1399.38C776.152 1442.55 690.979 1459.21 598.769 1448.92C499.949 1437.88 399.433 1395.77 315.736 1330.33C236.038 1268.03 182.291 1192.28 168.276 1122.53C161.01 1086.36 164.551 1053.13 178.795 1023.78C194.159 992.12 221.726 965.722 260.729 945.309C344.422 901.509 377.257 807.765 350.824 688.117C307.934 493.99 119.41 275.362 -92.8687 259.322C-185.025 252.349 -272.587 283.393 -353.158 351.553C-445.526 429.691 -526.722 555.606 -594.489 725.793L-596.063 725.212C-528.198 554.774 -446.844 428.646 -354.274 350.331C-273.343 281.872 -185.353 250.697 -92.7382 257.701C120.292 273.798 309.455 493.075 352.471 687.775C364.979 744.394 364.376 797.134 350.726 840.292C335.694 887.814 305.684 923.621 261.534 946.73C166.665 996.385 159.358 1069.56 169.931 1122.21C183.87 1191.6 237.401 1267 316.797 1329.07C400.248 1394.31 500.453 1436.3 598.957 1447.3C714.298 1460.19 927.747 1438.95 1061.52 1151.97C1113.48 1040.48 1175.23 979.764 1250.3 966.341C1399.3 939.709 1576.07 1108.79 1747.04 1272.31C1826.09 1347.92 1907.84 1426.1 1984.27 1481.87C2069.68 1544.19 2139.97 1571.85 2199.15 1566.42C2250.39 1561.72 2293.94 1533.14 2332.3 1479.04L2333.69 1479.96C2295.04 1534.48 2251.08 1563.29 2199.32 1568.04C2194.42 1568.48 2189.45 1568.71 2184.41 1568.71Z" fill="#EB0D1C"/>
<path d="M2211.71 1582.72C2154.23 1582.72 2086.67 1554.78 2005.82 1497.68C1926.95 1441.97 1842.4 1363.83 1760.64 1288.26C1583.86 1124.88 1401.06 955.928 1249.87 983.756C1175.79 997.395 1115.14 1055.99 1064.45 1162.9C1011.18 1275.24 939.327 1356.39 850.887 1404.1C773.785 1445.71 686.816 1460.94 592.406 1449.38C490.621 1436.92 387.258 1393.47 301.351 1327.03C219.349 1263.62 165.027 1187.67 152.312 1118.65C143.021 1068.23 151.7 998.271 245.809 951.334C328.224 910.23 360.834 825.263 337.628 712.077C298.193 519.735 100.392 292.378 -120.391 273.664C-214.383 265.707 -303.34 295.221 -384.77 361.419C-478.137 437.315 -559.607 560.422 -626.91 727.323L-628.485 726.734C-561.079 559.577 -479.446 436.249 -385.859 360.175C-304.069 293.687 -214.698 264.038 -120.242 272.048C-17.0947 280.789 88.9909 335.774 178.475 426.875C260.715 510.598 319.33 614.436 339.283 711.764C350.329 765.636 348.732 813.544 334.541 854.153C319.159 898.16 289.568 931.345 246.583 952.781C172.815 989.573 140.79 1046.83 153.972 1118.37C166.619 1187.01 220.722 1262.6 302.408 1325.77C388.077 1392.02 491.143 1435.35 592.622 1447.77C710.828 1462.24 929.118 1444.39 1062.92 1162.23C1113.85 1054.81 1174.9 995.909 1249.55 982.166C1401.63 954.173 1584.72 1123.42 1761.81 1287.1C1843.54 1362.63 1928.04 1440.74 2006.83 1496.38C2094.88 1558.57 2167.03 1586.05 2227.43 1580.38C2278.51 1575.59 2321.75 1547.98 2359.64 1495.97L2361.02 1496.9C2322.83 1549.32 2279.19 1577.15 2227.6 1581.99C2222.4 1582.48 2217.1 1582.73 2211.73 1582.73L2211.71 1582.72Z" fill="#EB0D1C"/>
<path d="M2239.72 1596.75C2181.15 1596.75 2111.99 1568.96 2028.98 1512.17C1947.7 1456.56 1860.33 1378.47 1775.83 1302.95C1592.78 1139.34 1403.49 970.156 1249.19 999.336C1175.57 1013.26 1115.64 1070.06 1065.96 1173C1012.62 1283.53 939.844 1362.87 849.667 1408.82C771.108 1448.85 682.218 1462.6 585.473 1449.71C480.795 1435.76 374.678 1391.02 286.67 1323.73C202.469 1259.34 147.619 1183.34 136.191 1115.21C124.682 1046.59 157.346 991.934 230.647 957.136C310.804 919.088 343.944 839.963 323.964 734.34C287.381 540.953 77.7383 308.795 -148.065 287.554C-244.005 278.535 -334.411 306.528 -416.773 370.771C-511.228 444.444 -593.041 564.82 -659.934 728.545L-661.504 727.951C-594.503 563.958 -512.519 443.361 -417.835 369.51C-335.113 304.99 -244.284 276.866 -147.899 285.938C-40.837 296.01 69.2755 352.988 162.147 446.381C246.479 531.184 307.591 638.723 325.628 734.049C345.758 840.453 312.293 920.198 231.398 958.593C158.827 993.043 126.482 1047.11 137.861 1114.95C160.005 1246.99 356.236 1417.52 585.707 1448.1C706.99 1464.27 930.454 1449.94 1064.43 1172.32C1114.35 1068.88 1174.68 1011.77 1248.86 997.75C1404.03 968.4 1593.61 1137.89 1776.98 1301.77C1861.44 1377.26 1948.77 1455.31 2029.96 1510.85C2120.7 1572.93 2194.75 1600.26 2256.37 1594.36C2307.26 1589.49 2350.2 1562.84 2387.62 1512.87L2388.99 1513.82C2351.26 1564.19 2307.94 1591.06 2256.54 1595.98C2251.04 1596.5 2245.43 1596.77 2239.73 1596.77L2239.72 1596.75Z" fill="#EB0D1C"/>
<path d="M2268.45 1610.82C2208.78 1610.82 2137.96 1583.14 2052.73 1526.62C1968.99 1471.1 1878.74 1393.03 1791.45 1317.54C1601.95 1153.64 1406.02 984.166 1248.59 1014.67C1175.49 1028.84 1116.29 1083.87 1067.61 1182.93C932.821 1457.21 702.941 1467.89 577.914 1449.85C470.425 1434.33 361.671 1388.34 271.688 1320.34C185.399 1255.13 130.082 1179.24 119.932 1112.13C110.074 1046.96 143.044 995.278 215.287 962.678C293.419 927.425 327.023 853.657 309.908 754.963C276.255 560.901 61.3707 325.518 -175.838 300.97C-324.693 285.572 -535.316 347.4 -693.507 729.428L-695.072 728.825C-628.431 567.887 -546.029 449.96 -450.152 378.306C-366.422 315.732 -274.064 289.173 -175.658 299.35C-64.7497 310.826 49.3129 369.69 145.523 465.094C233.117 551.96 295.192 660.218 311.573 754.69C328.823 854.168 294.886 928.557 216.007 964.147C144.511 996.414 111.869 1047.5 121.605 1111.89C131.697 1178.6 186.78 1254.1 272.736 1319.06C361.194 1385.91 472.521 1432.99 578.171 1448.24C702.743 1466.21 931.773 1455.56 1066.09 1182.24C1115.01 1082.69 1174.6 1027.35 1248.26 1013.08C1406.54 982.411 1602.78 1152.17 1792.59 1316.34C1879.83 1391.8 1970.05 1469.83 2053.69 1525.29C2147.18 1587.29 2223.17 1614.45 2286 1608.37C2336.69 1603.45 2379.31 1577.73 2416.29 1529.74L2417.64 1530.72C2380.37 1579.09 2337.36 1605.02 2286.18 1609.98C2280.38 1610.55 2274.47 1610.83 2268.45 1610.83L2268.45 1610.82Z" fill="#EB0D1C"/>
<path d="M2297.91 1624.93C2237.1 1624.93 2164.6 1597.35 2077.07 1541.05C1990.84 1485.58 1897.63 1407.52 1807.5 1332.02C1611.39 1167.78 1408.62 997.944 1248.06 1029.76C1175.53 1044.13 1117.09 1097.43 1069.39 1192.72C934.094 1462.97 698.213 1469.78 569.658 1449.78C461.044 1432.89 346.851 1384.45 256.364 1316.88C168.113 1250.97 112.396 1175.35 103.496 1109.38C95.1415 1047.42 128.408 998.525 199.711 967.979C276.03 935.283 310.035 866.408 295.462 774.042C265.461 583.94 40.8727 341.532 -203.728 313.903C-355.84 296.719 -570.23 354.946 -727.677 729.935L-729.243 729.324C-662.912 571.337 -580.011 456.014 -482.847 386.554C-398.029 325.917 -304.046 300.932 -203.535 312.287C41.7861 339.998 267.041 583.13 297.127 773.795C311.83 866.949 277.474 936.44 200.395 969.461C129.848 999.686 96.9186 1048 105.17 1109.17C114.011 1174.71 169.495 1249.95 257.399 1315.59C347.67 1383 461.584 1431.32 569.928 1448.17C698.028 1468.09 933.055 1461.31 1067.88 1192.01C1115.82 1096.24 1174.64 1042.65 1247.73 1028.16C1409.08 996.18 1612.19 1166.29 1808.61 1330.79C1898.71 1406.25 1991.87 1484.28 2078.02 1539.7C2174.3 1601.63 2252.25 1628.67 2316.33 1622.41C2366.79 1617.46 2409.08 1592.67 2445.62 1546.6L2446.96 1547.59C2410.13 1594.03 2367.46 1619.03 2316.5 1624.03C2310.43 1624.62 2304.24 1624.92 2297.91 1624.92L2297.91 1624.93Z" fill="#EB0D1C"/>
<path d="M2328.12 1639.08C2266.16 1639.08 2191.94 1611.59 2102.05 1555.47C2013.27 1500.03 1917.04 1421.95 1824 1346.44C1621.1 1181.79 1411.28 1011.53 1247.62 1044.64C1175.7 1059.18 1118.03 1110.78 1071.3 1202.38C1017.36 1308.09 941.113 1382.24 844.678 1422.78C762.096 1457.5 663.875 1466.74 560.637 1449.51C449.436 1430.95 332.814 1381.31 240.676 1313.34C150.607 1246.88 94.5474 1171.65 86.8763 1106.94C79.8846 1047.97 113.439 1001.67 183.914 973.048C258.623 942.706 292.983 878.312 280.664 791.728C267.612 699.999 203.863 591.481 110.141 501.434C7.72717 403.035 -113.674 340.877 -231.686 326.419C-387.263 307.345 -605.611 361.927 -762.42 730.151L-763.981 729.531C-697.907 574.383 -614.438 461.596 -515.885 394.311C-429.897 335.603 -334.209 312.216 -231.47 324.807C-113.084 339.312 8.65845 401.631 111.338 500.285C205.312 590.57 269.236 699.44 282.342 791.511C288.322 833.538 283.642 870.35 268.435 900.927C252.072 933.826 223.857 958.599 184.575 974.552C114.865 1002.86 81.6618 1048.58 88.559 1106.76C96.1805 1171.04 152.002 1245.86 241.71 1312.05C333.641 1379.87 449.994 1429.39 560.934 1447.91C692.818 1469.92 934.306 1467.2 1069.79 1201.67C1116.77 1109.59 1174.83 1057.71 1247.29 1043.06C1411.75 1009.79 1621.89 1180.3 1825.09 1345.2C1918.1 1420.68 2014.28 1498.73 2102.97 1554.11C2202.12 1616.02 2282.06 1642.96 2347.38 1636.54C2397.6 1631.58 2439.56 1607.69 2475.66 1563.5L2476.99 1564.5C2440.59 1609.06 2398.25 1633.16 2347.55 1638.15C2341.22 1638.78 2334.74 1639.09 2328.14 1639.09L2328.12 1639.08Z" fill="#EB0D1C"/>
<path d="M2359.1 1653.27C2295.95 1653.27 2219.95 1625.84 2127.62 1569.85C2036.24 1514.42 1936.94 1436.3 1840.91 1360.74C1631.07 1195.63 1414.09 1024.92 1247.27 1059.27C1176.02 1073.95 1119.13 1123.86 1073.34 1211.86C1019.07 1316.18 941.387 1388.68 842.455 1427.36C757.839 1460.45 656.968 1467.92 550.748 1448.96C437.072 1428.68 318.191 1377.9 224.577 1309.65C132.857 1242.78 76.5323 1168.1 70.0491 1104.75C64.2991 1048.56 98.1329 1004.68 167.888 977.87C261.812 941.763 272.826 865.624 265.528 808.112C254.078 717.879 189.443 609.43 92.6349 518.013C-12.9108 418.34 -138.041 354.592 -259.698 338.504C-418.906 317.458 -641.501 368.283 -797.824 729.996L-799.381 729.372C-733.509 576.951 -649.37 466.647 -549.305 401.529C-462.048 344.749 -364.533 323.001 -259.469 336.892C-137.452 353.027 -11.9885 416.936 93.8181 516.847C190.892 608.515 255.707 717.324 267.202 807.913C272.228 847.525 266.973 882.119 251.572 910.723C235.033 941.447 207.089 964.547 168.509 979.378C99.5231 1005.9 66.0539 1049.19 71.7228 1104.59C85.5038 1239.27 318.448 1405.85 551.045 1447.36C687.014 1471.62 935.475 1473.19 1071.83 1211.13C1117.85 1122.65 1175.12 1072.46 1246.9 1057.68C1414.5 1023.14 1631.81 1194.13 1841.97 1359.48C1937.96 1435 2037.21 1513.1 2128.51 1568.47C2230.56 1630.36 2312.53 1657.26 2379.11 1650.68C2429.07 1645.74 2470.7 1622.73 2506.4 1580.34L2507.7 1581.36C2471.72 1624.1 2429.71 1647.3 2379.29 1652.29C2372.7 1652.94 2365.97 1653.26 2359.09 1653.26L2359.1 1653.27Z" fill="#EB0D1C"/>
<path d="M2390.36 1667.56C2346.41 1667.56 2297.04 1655.01 2240.01 1629.4C2122.46 1576.63 1988.16 1474.12 1858.28 1374.97C1641.3 1209.35 1416.94 1038.11 1247.01 1073.67C1176.47 1088.44 1120.37 1136.7 1075.52 1221.21C1020.83 1324.24 941.548 1395.13 839.881 1431.91C753.047 1463.32 649.31 1468.93 539.896 1448.12C423.876 1426.06 302.916 1374.2 208.033 1305.84C114.851 1238.7 58.342 1164.69 53.006 1102.78C48.3854 1049.18 82.489 1007.57 151.632 982.459C224.707 955.909 258.752 900.867 250.092 823.285C240.198 734.685 174.695 626.522 74.8719 533.944C-33.7241 433.231 -162.499 367.97 -287.728 350.192C-450.782 327.04 -677.877 374.059 -833.822 729.523L-835.375 728.891C-769.655 579.082 -684.765 471.205 -583.066 408.254C-494.442 353.399 -394.993 333.315 -287.481 348.588C-222.693 357.789 -156.889 379.676 -91.8983 413.65C-32.6939 444.599 25.3812 485.793 76.0417 532.778C176.143 625.612 241.831 734.148 251.765 823.116C260.521 901.522 226.098 957.148 152.226 983.984C83.8613 1008.82 50.131 1049.86 54.6842 1102.65C59.9842 1164.1 116.242 1237.68 209.041 1304.54C303.726 1372.76 424.438 1424.52 540.219 1446.53C680.598 1473.22 936.608 1479.35 1074.01 1220.48C1119.11 1135.5 1175.58 1086.97 1246.65 1072.09C1417.38 1036.34 1642.04 1207.85 1859.33 1373.7C1989.13 1472.79 2123.35 1575.24 2240.72 1627.94C2373.5 1687.54 2467.92 1677.79 2537.86 1597.23L2539.16 1598.27C2501.9 1641.18 2457.89 1663.7 2404.61 1667.11C2399.93 1667.41 2395.18 1667.56 2390.37 1667.56L2390.36 1667.56Z" fill="#EB0D1C"/>
<path d="M2422.92 1681.87C2377.63 1681.87 2326.55 1669.07 2267.24 1642.91C2147.06 1589.9 2009.32 1487.83 1876.1 1389.12C1651.83 1222.93 1419.91 1051.07 1246.85 1087.85C1177.06 1102.67 1121.78 1149.31 1077.83 1230.42C1022.65 1332.27 941.59 1401.57 836.908 1436.39C747.631 1466.09 640.794 1469.74 527.951 1446.93C409.727 1423.05 286.909 1370.17 190.982 1301.84C96.5449 1234.57 39.9545 1161.37 35.7119 1101C32.117 1049.81 66.4951 1010.32 135.125 986.796C207.089 962.136 241.395 910.449 234.336 837.335C225.95 750.49 159.601 642.8 56.8444 549.255C-53.088 449.179 -188.895 380.737 -315.758 361.472C-482.865 336.106 -714.752 379.216 -870.459 728.69L-872.011 728.049C-806.382 580.75 -720.646 475.239 -617.183 414.451C-527.087 361.52 -425.582 343.153 -315.497 359.869C-248.977 369.967 -181.359 392.694 -114.524 427.409C-53.6279 459.039 6.02643 500.762 58.0007 548.076C161.045 641.881 227.592 749.962 236.014 837.187C243.154 911.125 208.461 963.388 135.688 988.33C67.8448 1011.58 33.8537 1050.51 37.3945 1100.89C41.6013 1160.79 97.9486 1233.56 191.985 1300.54C287.723 1368.73 410.307 1421.51 528.297 1445.35C673.449 1474.68 937.648 1485.65 1076.34 1229.67C1120.53 1148.11 1176.18 1101.2 1246.48 1086.27C1420.31 1049.34 1652.55 1221.42 1877.13 1387.84C2010.27 1486.5 2147.93 1588.51 2267.94 1641.44C2403.71 1701.32 2499.71 1692.63 2570.06 1614.11L2571.34 1615.17C2533.87 1656.99 2489.31 1678.71 2435.13 1681.55C2431.11 1681.76 2427.04 1681.87 2422.92 1681.87H2422.92Z" fill="#EB0D1C"/>
<path d="M2456.29 1696.26C2409.62 1696.26 2356.75 1683.2 2295.08 1656.46C2172.23 1603.2 2030.99 1501.53 1894.39 1403.22C1662.63 1236.4 1422.98 1063.9 1246.79 1101.8C1177.8 1116.64 1123.33 1161.68 1080.28 1239.5C1024.5 1340.3 941.472 1408.03 833.479 1440.83C741.53 1468.76 631.332 1470.33 514.804 1445.39C394.546 1419.64 270.109 1365.8 173.386 1297.66C77.9361 1230.42 21.3592 1158.16 18.1648 1099.39C15.5058 1050.46 50.1583 1012.95 118.37 990.942C189.376 968.024 223.934 919.423 218.296 850.391C211.363 765.397 144.177 658.348 38.5864 564.032C-74.1534 463.332 -213.506 393.494 -343.743 372.427C-515.156 344.694 -752.171 383.791 -907.788 727.54L-909.336 726.89C-843.738 581.988 -757.044 478.796 -651.665 420.179C-559.972 369.181 -456.28 352.573 -343.468 370.823C-212.916 391.943 -73.2446 461.932 39.7292 562.84C145.626 657.425 213.005 764.873 219.974 850.265C225.675 920.129 190.725 969.307 118.901 992.485C51.4855 1014.24 17.2289 1051.18 19.8475 1099.31C26.5872 1223.32 267.301 1390.74 515.164 1443.8C665.481 1475.98 938.579 1492.13 1078.78 1238.74C1122.08 1160.48 1176.92 1115.17 1246.42 1100.21C1423.37 1062.15 1663.33 1234.88 1895.4 1401.91C2031.92 1500.18 2173.09 1601.79 2295.77 1654.98C2434.59 1715.16 2532.21 1707.55 2602.99 1631.03L2604.25 1632.11C2566.55 1672.86 2521.43 1693.78 2466.32 1696.05C2463.01 1696.19 2459.66 1696.26 2456.28 1696.26L2456.29 1696.26Z" fill="#EB0D1C"/>
<path d="M2490.5 1710.72C2442.41 1710.72 2387.7 1697.38 2323.56 1670.04C2197.98 1616.5 2053.18 1515.2 1913.15 1417.24C1673.72 1249.74 1426.17 1076.55 1246.86 1115.54C1178.69 1130.36 1125.05 1173.84 1082.87 1248.45C1026.42 1348.31 941.186 1414.5 829.539 1445.19C734.647 1471.28 620.801 1470.66 500.318 1443.39C378.224 1415.75 252.432 1361.02 155.201 1293.23C59.0003 1226.16 2.56744 1154.96 0.367371 1097.88C-1.43677 1051.04 33.4902 1015.41 101.369 994.82C171.56 973.531 206.352 927.765 201.992 862.469C190.646 692.607 -81.7017 432.802 -371.623 382.992C-547.616 352.754 -790.094 387.725 -945.764 726.022L-947.308 725.363C-881.678 582.741 -793.918 481.807 -686.46 425.374C-593.049 376.313 -487.022 361.517 -371.326 381.393C-80.7165 431.32 192.292 691.944 203.68 862.365C208.098 928.497 172.896 974.831 101.882 996.371C34.8038 1016.72 0.286377 1051.8 2.05908 1097.82C4.24115 1154.4 60.4221 1225.14 156.196 1291.91C253.251 1359.58 378.823 1414.21 500.705 1441.8C766.043 1501.86 977.692 1431.1 1081.39 1247.67C1123.82 1172.63 1177.82 1128.88 1246.49 1113.95C1426.51 1074.8 1674.41 1248.21 1914.14 1415.91C2054.1 1513.83 2198.83 1615.08 2324.25 1668.55C2466.16 1729.05 2565.45 1722.51 2636.71 1647.96L2637.95 1649.06C2600 1688.76 2554.3 1708.89 2498.24 1710.6C2495.68 1710.68 2493.1 1710.72 2490.5 1710.72L2490.5 1710.72Z" fill="#EB0D1C"/>
<path d="M2525.56 1725.28C2476 1725.28 2419.39 1711.64 2352.69 1683.67C2224.33 1629.83 2075.92 1528.85 1932.38 1431.21C1685.12 1262.99 1429.42 1089.04 1247.05 1129.06C1179.73 1143.83 1126.92 1185.77 1085.6 1257.28C1028.36 1356.32 940.685 1420.98 825.007 1449.47C726.872 1473.64 609.066 1470.68 484.327 1440.89C360.618 1411.36 233.791 1355.83 136.362 1288.57C39.7114 1221.84 -16.4471 1151.82 -17.7158 1096.5C-18.7416 1051.61 16.4687 1017.72 84.1135 998.484C153.616 978.717 188.647 935.563 185.421 873.691C181.192 792.624 112.436 687.309 1.50006 591.974C-116.486 490.581 -262.587 418.16 -399.339 393.283C-655.017 346.766 -862.81 464.295 -984.44 724.212L-985.979 723.545C-920.246 583.085 -831.289 484.361 -721.577 430.122C-626.294 383.016 -517.774 370.087 -399.024 391.688C-261.979 416.617 -115.586 489.181 2.62482 590.765C113.893 686.385 182.857 792.122 187.108 873.613C190.379 936.326 154.93 980.043 84.595 1000.04C17.7599 1019.05 -17.0364 1052.39 -16.0241 1096.46C-14.7689 1151.27 41.1331 1220.82 137.352 1287.25C234.615 1354.4 361.234 1409.83 484.741 1439.32C760.467 1505.15 978.942 1438.51 1084.14 1256.49C1125.71 1184.56 1178.88 1142.36 1246.69 1127.48C1429.83 1087.3 1685.8 1261.46 1933.37 1429.88C2076.83 1527.49 2225.18 1628.41 2353.38 1682.19C2498.45 1743.03 2599.44 1737.56 2671.2 1664.95L2672.42 1666.08C2634.2 1704.74 2587.91 1724.1 2530.88 1725.23C2529.12 1725.27 2527.34 1725.28 2525.57 1725.28L2525.56 1725.28Z" fill="#EB0D1C"/>
<path d="M2561.51 1739.93C2510.45 1739.93 2451.86 1725.99 2382.49 1697.35C2251.3 1643.2 2099.2 1542.51 1952.11 1445.13C1696.83 1276.13 1432.86 1101.38 1247.36 1142.37C1180.93 1157.05 1128.95 1197.49 1088.46 1265.99C1030.33 1364.34 939.93 1427.47 819.78 1453.65C718.068 1475.8 595.947 1470.33 466.628 1437.82C341.574 1406.38 214.063 1350.17 116.787 1283.6C20.0192 1217.37 -35.7075 1148.69 -36.0989 1095.18C-36.4138 1052.13 -0.911011 1019.88 66.5808 1001.93C135.521 983.595 170.79 942.852 168.577 884.117C165.598 805.096 96.1089 700.846 -17.3059 605.248C-137.703 503.763 -286.985 430.146 -426.868 403.271C-689.885 352.746 -901.885 465.949 -1023.81 722.04L-1025.35 721.364C-959.452 582.954 -869.167 486.397 -757.012 434.376C-659.713 389.246 -548.526 378.247 -426.54 401.68C-286.373 428.608 -136.812 502.359 -16.1991 604.025C97.562 699.915 167.268 804.602 170.26 884.061C172.505 943.636 136.808 984.939 67.0262 1003.5C0.353271 1021.24 -34.7221 1052.93 -34.4117 1095.17C-34.0248 1148.16 21.4453 1216.36 117.763 1282.28C214.878 1348.74 342.19 1404.86 467.051 1436.25C602.862 1470.39 935.143 1522.07 1086.99 1265.2C1127.73 1196.27 1180.06 1155.58 1246.98 1140.79C1433.19 1099.62 1697.48 1274.6 1953.07 1443.79C2100.09 1541.13 2252.12 1641.77 2383.15 1695.86C2531.46 1757.08 2634.19 1752.67 2706.46 1681.99L2707.66 1683.13C2669.17 1720.78 2622.25 1739.35 2564.23 1739.92C2563.32 1739.93 2562.41 1739.94 2561.5 1739.94L2561.51 1739.93Z" fill="#EB0D1C"/>
<path d="M2598.34 1754.68C2545.74 1754.68 2485.1 1740.42 2412.95 1711.09C2278.88 1656.6 2123.04 1556.15 1972.34 1459.01C1708.85 1289.18 1436.38 1113.55 1247.82 1155.46C1182.28 1170.03 1131.14 1208.99 1091.47 1274.59C1032.31 1372.37 938.89 1433.97 813.795 1457.68C708.124 1477.72 581.311 1469.56 447.065 1434.09C183.536 1364.46 -55.6619 1202.32 -54.7891 1093.92C-54.4561 1052.57 -18.6472 1021.88 48.7681 1005.15C117.259 988.15 152.771 949.642 151.466 893.79C149.666 816.858 79.4928 713.8 -36.2479 618.097C-158.886 516.695 -311.196 441.943 -454.12 413.013C-724.987 358.189 -941.559 467.037 -1063.92 719.517L-1065.45 718.828C-999.31 582.351 -907.554 487.918 -792.74 438.146C-693.255 395.023 -579.206 386.03 -453.774 411.423C-310.579 440.409 -158 515.291 -35.1501 616.867C80.946 712.86 151.34 816.373 153.148 893.756C154.471 950.453 118.523 989.515 49.182 1006.72C-17.41 1023.25 -52.7779 1053.4 -53.1064 1093.93C-53.9747 1201.69 184.638 1363.07 447.51 1432.52C589.175 1469.95 935.371 1529.41 1090.01 1273.78C1129.94 1207.77 1181.43 1168.56 1247.44 1153.89C1436.73 1111.81 1709.49 1287.64 1973.28 1457.66C2123.91 1554.76 2279.68 1655.16 2413.6 1709.6C2565.18 1771.21 2669.7 1767.87 2742.53 1699.07L2743.71 1700.23C2704.93 1736.87 2657.38 1754.68 2598.34 1754.68H2598.34Z" fill="#EB0D1C"/>
<path d="M2636.08 1769.52C2635.12 1769.52 2634.16 1769.52 2633.2 1769.51C2579.67 1769 2517.82 1754.41 2444.09 1724.88C2307.08 1670.02 2147.45 1569.78 1993.06 1472.84C1721.18 1302.11 1440.04 1125.58 1248.41 1168.33C1183.81 1182.74 1133.5 1220.27 1094.62 1283.05C1034.31 1380.41 937.51 1440.47 806.913 1461.56C696.864 1479.33 564.935 1468.27 425.393 1429.58C298.63 1394.44 170.993 1337.22 75.2151 1272.61C-20.6439 1207.95 -74.9532 1142.35 -73.788 1092.65C-72.8567 1052.92 -36.7373 1023.68 30.678 1008.12C98.8267 992.392 134.59 955.956 134.1 902.761C133.412 827.956 62.6129 726.199 -55.283 630.552C-179.977 529.393 -335.144 453.57 -481.006 422.526C-760.3 363.089 -981.816 467.543 -1104.76 716.651L-1106.28 715.953C-1039.82 581.288 -946.44 488.935 -828.728 441.452C-726.867 400.362 -609.759 393.462 -480.646 420.939C-334.527 452.036 -179.091 527.984 -54.1986 629.308C64.0662 725.254 135.09 827.475 135.783 902.743C136.282 956.788 100.073 993.77 31.0648 1009.7C-36.4719 1025.29 -71.183 1053.21 -72.1053 1092.69C-73.2571 1141.84 -19.2087 1206.93 76.1779 1271.28C171.812 1335.79 299.264 1392.92 425.857 1428.02C573.91 1469.07 935.323 1537.04 1093.16 1282.22C1132.29 1219.04 1182.95 1181.27 1248.02 1166.75C1440.36 1123.84 1721.79 1300.57 1993.97 1471.47C2148.29 1568.37 2307.86 1668.57 2444.72 1723.38C2599.65 1785.42 2705.99 1783.14 2779.39 1716.21L2780.55 1717.38C2742.09 1752.45 2694.8 1769.52 2636.07 1769.52H2636.08Z" fill="#EB0D1C"/>
<path d="M2674.76 1784.48C2672.79 1784.48 2670.83 1784.46 2668.83 1784.42C2614.36 1783.41 2551.26 1768.47 2475.93 1738.74C2335.92 1683.49 2172.41 1583.41 2014.29 1486.63C1733.83 1314.97 1443.81 1137.46 1249.16 1180.99C1185.49 1195.22 1136.02 1231.34 1097.91 1291.4C1036.31 1388.48 935.759 1446.98 799.052 1465.24C684.143 1480.6 546.649 1466.42 401.439 1424.24C134.14 1346.59 -96.9594 1191.07 -93.1171 1091.41C-91.6234 1052.63 -56.1565 1025.53 12.2937 1010.88C80.2039 996.342 116.229 961.835 116.472 911.088C117.178 762.84 -185.246 503.829 -507.431 431.876C-674.417 394.586 -979.469 381.576 -1146.34 713.45L-1147.85 712.74C-1080.99 579.76 -985.803 489.449 -864.929 444.306C-760.481 405.3 -640.079 400.58 -507.048 430.29C-358.117 463.549 -200.026 540.499 -73.3027 641.407C46.9326 737.148 118.51 837.965 118.159 911.088C117.916 962.684 81.4321 997.738 12.6581 1012.46C-54.9462 1026.93 -89.9677 1053.51 -91.4299 1091.47C-95.2452 1190.46 135.296 1345.23 401.929 1422.68C546.91 1464.79 684.153 1478.95 798.823 1463.63C935.003 1445.43 1035.15 1387.2 1096.47 1290.55C1134.3 1230.94 1185.54 1193.54 1248.77 1179.4C1444.15 1135.7 1734.44 1313.41 2015.2 1485.25C2173.26 1581.99 2336.71 1682.03 2476.57 1737.22C2632.72 1798.84 2744.12 1797.59 2817.13 1733.39L2818.27 1734.59C2780.14 1768.12 2733.14 1784.47 2674.76 1784.47V1784.48Z" fill="#EB0D1C"/>
<path d="M2714.36 1799.56C2711.36 1799.56 2708.32 1799.52 2705.25 1799.43C2649.81 1797.92 2585.44 1782.62 2508.47 1752.67C2365.41 1697.01 2197.97 1597.05 2036.03 1500.39C1658.79 1275.2 1268.71 1042.34 1101.35 1299.65C1038.3 1396.59 933.568 1453.46 790.054 1468.69C638.05 1484.8 480.404 1449.97 374.921 1417.91C248.144 1379.38 122.415 1321.82 29.9666 1260.01C-64.5652 1196.8 -115.257 1136.48 -112.774 1090.15C-110.771 1052.79 -74.9717 1026.98 -6.37756 1013.41C61.3887 1000.01 97.6833 967.301 98.5833 918.821C99.8925 848.363 28.0859 749.54 -93.4991 654.47C-221.622 554.285 -381.918 476.517 -533.292 441.104C-705.924 400.715 -1020.62 381.936 -1188.71 709.901L-1190.22 709.182C-1122.87 577.763 -1025.67 489.458 -901.345 446.716C-794.085 409.843 -670.124 407.424 -532.9 439.526C-381.292 474.995 -220.753 552.881 -92.4419 653.209C29.5437 748.595 101.584 847.9 100.266 918.851C99.348 968.185 62.5854 1001.44 -6.04016 1015C-73.7885 1028.4 -109.134 1053.71 -111.091 1090.24C-113.507 1135.32 -61.7443 1196.71 30.9293 1258.67C123.243 1320.4 248.81 1377.87 375.43 1416.36C480.759 1448.37 638.162 1483.16 789.874 1467.07C932.848 1451.9 1037.17 1395.29 1099.93 1298.79C1140.36 1236.62 1194.08 1200.73 1264.15 1189.05C1326.39 1178.67 1400.08 1187.81 1489.46 1217C1655.1 1271.08 1849.21 1386.96 2036.93 1499.01C2198.8 1595.64 2366.18 1695.56 2509.1 1751.17C2668.69 1813.26 2782.06 1813.1 2855.71 1750.68L2856.83 1751.89C2819.03 1783.93 2772.36 1799.56 2714.37 1799.56L2714.36 1799.56Z" fill="#EB0D1C"/>
</g>
</svg>
