<svg width="321" height="50" viewBox="0 0 321 50" fill="none" xmlns="http://www.w3.org/2000/svg">
<rect width="50" height="50" fill="#EB0A1E"/>
<path d="M150.855 16.835L146.025 33.165H141.954L138.803 22.263L135.606 33.165H131.581L126.751 16.835H130.96L133.95 28.105L137.101 16.835H140.942L144.093 28.013L147.06 16.835H150.855Z" fill="#F5F5F5"/>
<path d="M117.626 33.395C116 33.395 114.536 33.05 113.233 32.36C111.929 31.67 110.902 30.6887 110.151 29.416C109.415 28.1433 109.047 26.6713 109.047 25C109.047 23.3287 109.415 21.8567 110.151 20.584C110.902 19.3113 111.929 18.33 113.233 17.64C114.536 16.95 116.008 16.605 117.649 16.605C119.289 16.605 120.761 16.95 122.065 17.64C123.368 18.33 124.388 19.3113 125.124 20.584C125.875 21.8413 126.251 23.2903 126.251 24.931C126.251 26.587 125.875 28.059 125.124 29.347C124.388 30.6197 123.36 31.6163 122.042 32.337C120.738 33.0423 119.266 33.395 117.626 33.395ZM117.649 29.738C118.538 29.738 119.328 29.5387 120.018 29.14C120.708 28.7413 121.244 28.1817 121.628 27.461C122.026 26.7403 122.226 25.92 122.226 25C122.226 24.08 122.026 23.2597 121.628 22.539C121.244 21.8183 120.708 21.2587 120.018 20.86C119.328 20.4613 118.538 20.262 117.649 20.262C116.759 20.262 115.97 20.4613 115.28 20.86C114.59 21.2587 114.053 21.8183 113.67 22.539C113.286 23.2597 113.095 24.08 113.095 25C113.095 25.92 113.286 26.7403 113.67 27.461C114.053 28.1817 114.59 28.7413 115.28 29.14C115.97 29.5387 116.759 29.738 117.649 29.738Z" fill="#F5F5F5"/>
<path d="M100.499 27.047H99.1418V33.165H95.2778V16.835H101.557C102.737 16.835 103.749 17.0497 104.593 17.479C105.436 17.9083 106.072 18.491 106.502 19.227C106.931 19.963 107.146 20.7833 107.146 21.688C107.146 22.6847 106.885 23.597 106.364 24.425C105.858 25.253 105.122 25.897 104.156 26.357L108.526 33.165H104.018L100.499 27.047ZM99.1418 24.034H100.913C101.572 24.034 102.093 23.8577 102.477 23.505C102.875 23.1523 103.075 22.6463 103.075 21.987C103.075 21.3277 102.883 20.8293 102.5 20.492C102.116 20.1393 101.595 19.963 100.936 19.963H99.1418V24.034Z" fill="#F5F5F5"/>
<path d="M85.3376 27.047H83.9806V33.165H80.1166V16.835H86.3956C87.5763 16.835 88.5883 17.0497 89.4316 17.479C90.275 17.9083 90.9113 18.491 91.3406 19.227C91.77 19.963 91.9846 20.7833 91.9846 21.688C91.9846 22.6847 91.724 23.597 91.2026 24.425C90.6966 25.253 89.9606 25.897 88.9946 26.357L93.3646 33.165H88.8566L85.3376 27.047ZM83.9806 24.034H85.7516C86.411 24.034 86.9323 23.8577 87.3156 23.505C87.7143 23.1523 87.9136 22.6463 87.9136 21.987C87.9136 21.3277 87.722 20.8293 87.3386 20.492C86.9553 20.1393 86.434 19.963 85.7746 19.963H83.9806V24.034Z" fill="#F5F5F5"/>
<path d="M72.626 28.956H67.313L65.91 33.165H62L67.957 16.835H72.189L78.123 33.165H74.052L72.626 28.956ZM71.614 25.92L69.958 21.021L68.325 25.92H71.614Z" fill="#F5F5F5"/>
</svg>
