<svg width="12" height="18" viewBox="0 0 12 18" fill="none" xmlns="http://www.w3.org/2000/svg">
<path d="M5.95671 0.627913C5.35114 0.627913 4.77038 0.868473 4.34218 1.29667C3.91398 1.72487 3.67342 2.30563 3.67342 2.9112V8.99996C3.67342 9.60553 3.91398 10.1863 4.34218 10.6145C4.77038 11.0427 5.35114 11.2832 5.95671 11.2832C6.56227 11.2832 7.14304 11.0427 7.57124 10.6145C7.99944 10.1863 8.23999 9.60553 8.23999 8.99996V2.9112C8.23999 2.30563 7.99944 1.72487 7.57124 1.29667C7.14304 0.868473 6.56227 0.627913 5.95671 0.627913Z" stroke="#0A0A0A" stroke-width="1.2" stroke-linecap="round" stroke-linejoin="round"/>
<path d="M11.2832 7.47926V9.00145C11.2832 10.4144 10.7219 11.7695 9.72281 12.7687C8.72368 13.7678 7.36857 14.3291 5.95558 14.3291C4.54259 14.3291 3.18748 13.7678 2.18835 12.7687C1.18922 11.7695 0.627913 10.4144 0.627913 9.00145V7.47926" stroke="#0A0A0A" stroke-width="1.2" stroke-linecap="round" stroke-linejoin="round"/>
<path d="M5.95858 14.3266V17.371" stroke="#0A0A0A" stroke-width="1.2" stroke-linecap="round" stroke-linejoin="round"/>
<path d="M2.90898 17.3721H8.99774" stroke="#0A0A0A" stroke-width="1.2" stroke-linecap="round" stroke-linejoin="round"/>
</svg>
