<svg width="37" height="37" viewBox="0 0 37 37" fill="none" xmlns="http://www.w3.org/2000/svg">
<mask id="path-1-outside-1_2847_7972" maskUnits="userSpaceOnUse" x="-0.919883" y="-0.919789" width="38.8398" height="38.8398" fill="black">
<rect fill="white" x="-0.919883" y="-0.919789" width="38.8398" height="38.8398"/>
<path d="M14.6552 35.0553V36.8969H0.102216V35.0553H14.6552ZM18.5 0.10231C28.6445 0.10231 36.8978 8.35572 36.8978 18.5001C36.8977 28.4209 29.0043 36.5313 19.1678 36.8839V35.0403C27.9886 34.6888 35.0552 27.4055 35.0552 18.5001C35.0552 9.37108 27.6292 1.94488 18.5 1.94488C9.59453 1.94497 2.31131 9.01174 1.95976 17.8323H0.115192C0.467864 7.99604 8.57905 0.1024 18.5 0.10231ZM11.4781 28.7001V30.5427H0.102216V28.7001H11.4781ZM8.29997 22.3459V24.1875H0.102216V22.3459H8.29997ZM19.4213 11.2236V18.1188L23.4458 22.1433L22.1432 23.4459L17.5787 18.8814V11.2236H19.4213Z"/>
</mask>
<path d="M14.6552 35.0553V36.8969H0.102216V35.0553H14.6552ZM18.5 0.10231C28.6445 0.10231 36.8978 8.35572 36.8978 18.5001C36.8977 28.4209 29.0043 36.5313 19.1678 36.8839V35.0403C27.9886 34.6888 35.0552 27.4055 35.0552 18.5001C35.0552 9.37108 27.6292 1.94488 18.5 1.94488C9.59453 1.94497 2.31131 9.01174 1.95976 17.8323H0.115192C0.467864 7.99604 8.57905 0.1024 18.5 0.10231ZM11.4781 28.7001V30.5427H0.102216V28.7001H11.4781ZM8.29997 22.3459V24.1875H0.102216V22.3459H8.29997ZM19.4213 11.2236V18.1188L23.4458 22.1433L22.1432 23.4459L17.5787 18.8814V11.2236H19.4213Z" fill="#EB0A1E"/>
<path d="M14.6552 35.0553H14.7574V34.9531H14.6552V35.0553ZM14.6552 36.8969V36.9991H14.7574V36.8969H14.6552ZM0.102216 36.8969H6.23687e-06V36.9991H0.102216V36.8969ZM0.102216 35.0553V34.9531H6.23687e-06V35.0553H0.102216ZM18.5 0.10231V9.98128e-05V9.98128e-05V0.10231ZM36.8978 18.5001H37V18.5001H36.8978ZM19.1678 36.8839H19.0655V36.9898L19.1714 36.986L19.1678 36.8839ZM19.1678 35.0403L19.1637 34.9382L19.0655 34.9421V35.0403H19.1678ZM35.0552 18.5001H35.1574V18.5001H35.0552ZM18.5 1.94488V1.84267H18.5L18.5 1.94488ZM1.95976 17.8323V17.9345H2.05798L2.06189 17.8364L1.95976 17.8323ZM0.115192 17.8323L0.0130477 17.8287L0.00925178 17.9345H0.115192V17.8323ZM11.4781 28.7001H11.5803V28.5979H11.4781V28.7001ZM11.4781 30.5427V30.6449H11.5803V30.5427H11.4781ZM0.102216 30.5427H6.23687e-06V30.6449H0.102216V30.5427ZM0.102216 28.7001V28.5979H6.23687e-06V28.7001H0.102216ZM8.29997 22.3459H8.40218V22.2437H8.29997V22.3459ZM8.29997 24.1875V24.2897H8.40218V24.1875H8.29997ZM0.102216 24.1875H6.23687e-06V24.2897H0.102216V24.1875ZM0.102216 22.3459V22.2437H6.23687e-06V22.3459H0.102216ZM19.4213 11.2236H19.5235V11.1214H19.4213V11.2236ZM19.4213 18.1188H19.3191V18.1611L19.349 18.1911L19.4213 18.1188ZM23.4458 22.1433L23.5181 22.2156L23.5903 22.1433L23.5181 22.071L23.4458 22.1433ZM22.1432 23.4459L22.071 23.5182L22.1432 23.5904L22.2155 23.5182L22.1432 23.4459ZM17.5787 18.8814H17.4765V18.9237L17.5064 18.9537L17.5787 18.8814ZM17.5787 11.2236V11.1214H17.4765V11.2236H17.5787ZM14.6552 35.0553H14.5529V36.8969H14.6552H14.7574V35.0553H14.6552ZM14.6552 36.8969V36.7947H0.102216V36.8969V36.9991H14.6552V36.8969ZM0.102216 36.8969H0.204426V35.0553H0.102216H6.23687e-06V36.8969H0.102216ZM0.102216 35.0553V35.1575H14.6552V35.0553V34.9531H0.102216V35.0553ZM18.5 0.10231V0.20452C28.5881 0.20452 36.7956 8.41217 36.7956 18.5001H36.8978H37C37 8.29927 28.701 9.98128e-05 18.5 9.98128e-05V0.10231ZM36.8978 18.5001H36.7956C36.7955 28.3657 28.9459 36.4311 19.1641 36.7818L19.1678 36.8839L19.1714 36.986C29.0627 36.6314 36.9999 28.4762 37 18.5001H36.8978ZM19.1678 36.8839H19.27V35.0403H19.1678H19.0655V36.8839H19.1678ZM19.1678 35.0403L19.1718 35.1425C28.0472 34.7888 35.1574 27.4606 35.1574 18.5001H35.0552H34.953C34.953 27.3504 27.9299 34.5889 19.1637 34.9382L19.1678 35.0403ZM35.0552 18.5001H35.1574C35.1574 9.31463 27.6856 1.84267 18.5 1.84267V1.94488V2.04709C27.5727 2.04709 34.953 9.42752 34.953 18.5001H35.0552ZM18.5 1.94488L18.5 1.84267C9.53942 1.84276 2.21135 8.9531 1.85763 17.8283L1.95976 17.8323L2.06189 17.8364C2.41126 9.07039 9.64965 2.04718 18.5 2.04709L18.5 1.94488ZM1.95976 17.8323V17.7301H0.115192V17.8323V17.9345H1.95976V17.8323ZM0.115192 17.8323L0.217336 17.836C0.568045 8.05446 8.6343 0.20461 18.5 0.20452V0.10231V9.98128e-05C8.5238 0.000190929 0.367683 7.93761 0.0130477 17.8287L0.115192 17.8323ZM11.4781 28.7001H11.3758V30.5427H11.4781H11.5803V28.7001H11.4781ZM11.4781 30.5427V30.4405H0.102216V30.5427V30.6449H11.4781V30.5427ZM0.102216 30.5427H0.204426V28.7001H0.102216H6.23687e-06V30.5427H0.102216ZM0.102216 28.7001V28.8023H11.4781V28.7001V28.5979H0.102216V28.7001ZM8.29997 22.3459H8.19776V24.1875H8.29997H8.40218V22.3459H8.29997ZM8.29997 24.1875V24.0853H0.102216V24.1875V24.2897H8.29997V24.1875ZM0.102216 24.1875H0.204426V22.3459H0.102216H6.23687e-06V24.1875H0.102216ZM0.102216 22.3459V22.4482H8.29997V22.3459V22.2437H0.102216V22.3459ZM19.4213 11.2236H19.3191V18.1188H19.4213H19.5235V11.2236H19.4213ZM19.4213 18.1188L19.349 18.1911L23.3735 22.2156L23.4458 22.1433L23.5181 22.071L19.4936 18.0465L19.4213 18.1188ZM23.4458 22.1433L23.3735 22.071L22.071 23.3736L22.1432 23.4459L22.2155 23.5182L23.5181 22.2156L23.4458 22.1433ZM22.1432 23.4459L22.2155 23.3736L17.651 18.8091L17.5787 18.8814L17.5064 18.9537L22.071 23.5182L22.1432 23.4459ZM17.5787 18.8814H17.6809V11.2236H17.5787H17.4765V18.8814H17.5787ZM17.5787 11.2236V11.3258H19.4213V11.2236V11.1214H17.5787V11.2236Z" fill="#EB0A1E" mask="url(#path-1-outside-1_2847_7972)"/>
</svg>
