<svg width="32" height="32" viewBox="0 0 32 32" fill="none" xmlns="http://www.w3.org/2000/svg">
<rect width="32" height="32" rx="8" fill="#EB0A1E"/>
<path d="M16 8.79004C10.0032 8.79004 5.41333 11.8824 5.41333 16C5.41333 19.9822 9.8862 23.21 16 23.21C22.1137 23.21 26.5866 19.982 26.5866 16C26.5866 11.8824 21.9965 8.79004 16 8.79004ZM22.6011 11.8824C22.8218 12.7712 21.7865 13.8822 18.4551 14.2455C18.2334 11.9819 17.562 10.0694 16.4493 9.66438C17.9473 9.70657 19.3674 9.96004 20.6054 10.4091C21.7631 10.8458 22.4825 11.4031 22.6011 11.8824ZM17.6667 15.9652C17.6667 18.8334 16.8053 20.0222 16 20.0222C15.1946 20.0222 14.3332 18.8334 14.3332 15.9652L14.3334 15.9354C14.8686 15.9806 15.4257 16.0043 16 16.0043C16.5742 16.0043 17.1313 15.9806 17.6666 15.9354L17.6667 15.9652ZM15.9994 14.3665C15.4376 14.3665 14.9181 14.3505 14.4376 14.321C14.6906 12.4454 15.3628 11.3552 15.9998 11.3552C16.6369 11.3552 17.309 12.4454 17.562 14.321C17.0816 14.3507 16.5617 14.3665 15.9994 14.3665ZM9.39775 11.8824C9.51633 11.4055 10.2287 10.8515 11.376 10.4155C12.6182 9.96219 14.0452 9.70657 15.5491 9.66407C14.4362 10.0691 13.765 11.9816 13.5431 14.2452C10.2111 13.8821 9.17555 12.7711 9.39622 11.8821L9.39775 11.8824ZM6.97445 15.7403C6.97445 14.5261 7.38098 13.4766 8.08855 12.6078C8.18018 14.2178 10.3579 15.4184 13.463 15.84L13.4626 15.9654C13.4626 19.8497 14.4584 21.9088 15.5622 22.3343C10.822 22.164 6.9743 19.2442 6.9743 15.7406L6.97445 15.7403ZM16.4182 22.3346C17.5297 21.8908 18.5374 19.6814 18.5374 15.9652L18.5369 15.8399C21.6421 15.4184 23.8198 14.2178 23.9114 12.6077C24.6188 13.4765 25.0255 14.5259 25.0255 15.7401C25.0255 19.2487 21.1673 22.1715 16.4182 22.3346Z" fill="white"/>
</svg>
