<svg width="14" height="15" viewBox="0 0 14 15" fill="none" xmlns="http://www.w3.org/2000/svg">
<path d="M12 6C12 9.32867 8.30737 12.7953 7.06737 13.866C6.95186 13.9529 6.81124 13.9998 6.66671 13.9998C6.52218 13.9998 6.38156 13.9529 6.26604 13.866C5.02604 12.7953 1.33337 9.32867 1.33337 6C1.33337 4.58551 1.89528 3.22896 2.89547 2.22877C3.89567 1.22857 5.25222 0.666668 6.66671 0.666668C8.0812 0.666668 9.43775 1.22857 10.4379 2.22877C11.4381 3.22896 12 4.58551 12 6Z" stroke="#F5F5F5" stroke-width="1.33333" stroke-linecap="round" stroke-linejoin="round"/>
<path d="M6.66541 7.9987C7.76997 7.9987 8.66541 7.10327 8.66541 5.9987C8.66541 4.89413 7.76997 3.9987 6.66541 3.9987C5.56084 3.9987 4.66541 4.89413 4.66541 5.9987C4.66541 7.10327 5.56084 7.9987 6.66541 7.9987Z" stroke="#F5F5F5" stroke-width="1.33333" stroke-linecap="round" stroke-linejoin="round"/>
</svg>
