<svg width="40" height="40" viewBox="0 0 40 40" fill="none" xmlns="http://www.w3.org/2000/svg">
<path d="M20 0.5C30.7696 0.5 39.5 9.23045 39.5 20C39.5 30.7696 30.7696 39.5 20 39.5C9.23045 39.5 0.5 30.7696 0.5 20C0.5 9.23045 9.23045 0.5 20 0.5Z" stroke="#D4D4D4"/>
<path d="M13.3333 18.0055C13.3333 17.2636 13.5583 16.5392 13.9787 15.9279C14.399 15.3167 14.9949 14.8473 15.6877 14.5818C16.3804 14.3163 17.1374 14.2671 17.8586 14.4409C18.5798 14.6146 19.2314 15.003 19.7273 15.5548C19.7622 15.5922 19.8044 15.6219 19.8513 15.6423C19.8982 15.6626 19.9488 15.6731 19.9999 15.6731C20.051 15.6731 20.1016 15.6626 20.1485 15.6423C20.1954 15.6219 20.2377 15.5922 20.2726 15.5548C20.7669 14.9994 21.4186 14.6077 22.141 14.4319C22.8634 14.256 23.6222 14.3044 24.3165 14.5705C25.0108 14.8366 25.6075 15.3078 26.0273 15.9214C26.4471 16.5351 26.6701 17.262 26.6666 18.0055C26.6666 19.5322 25.6666 20.6722 24.6666 21.6722L21.0053 25.2142C20.881 25.3568 20.7279 25.4714 20.5559 25.5504C20.384 25.6293 20.1973 25.6707 20.0081 25.6719C19.8189 25.6731 19.6317 25.634 19.4588 25.5573C19.2859 25.4806 19.1313 25.3679 19.0053 25.2268L15.3333 21.6722C14.3333 20.6722 13.3333 19.5388 13.3333 18.0055Z" stroke="#F5F5F5" stroke-width="1.5" stroke-linecap="round" stroke-linejoin="round"/>
</svg>
